<svg width="24" height="25" viewBox="0 0 24 25" fill="none" xmlns="http://www.w3.org/2000/svg">
<g clip-path="url(#clip0_1_1634)">
<mask id="mask0_1_1634" style="mask-type:luminance" maskUnits="userSpaceOnUse" x="0" y="0" width="24" height="25">
<path d="M24 0.339966H0V24.34H24V0.339966Z" fill="white"/>
</mask>
<g mask="url(#mask0_1_1634)">
<path d="M15.3906 8.31781H17.7174V3.53111H19.2465L16.5872 0.339966L13.928 3.53111H15.3906V8.31781ZM15.5235 19.6198H8.8753V22.9439H2.89192V24.2735H21.5069V22.9439H15.5235V19.6198ZM4.88638 4.99371H6.21602V14.3012H4.88638V4.99371ZM7.54566 10.3123H8.8753V14.3012H7.54566V10.3123ZM10.2049 7.65299H11.5346V14.3012H10.2049V7.65299ZM12.8643 10.9771H14.1939V14.3012H12.8643V10.9771ZM18.1828 10.9771H19.5125V14.3012H18.1828V10.9771ZM15.5235 12.3068H16.8532V14.3012H15.5235V12.3068ZM21.5734 1.66961H20.7756V2.86629H21.5734C21.9058 2.86629 22.1717 3.13221 22.1717 3.46462V15.7638C22.1717 16.0962 21.9058 16.3622 21.5734 16.3622H2.75896C2.42655 16.3622 2.16062 16.0962 2.16062 15.7638V3.53111C2.16062 3.1987 2.42655 2.93277 2.75896 2.93277H12.1994V1.66961H2.75896C1.69524 1.66961 0.897461 2.46739 0.897461 3.53111V15.8303C0.897461 16.8275 1.76173 17.6918 2.75896 17.6918H21.5734C22.6371 17.6918 23.4349 16.894 23.4349 15.8303V3.53111C23.5014 2.53388 22.6371 1.66961 21.5734 1.66961Z" fill="white"/>
</g>
</g>
<defs>
<clipPath id="clip0_1_1634">
<rect width="24" height="24" fill="white" transform="translate(0 0.339966)"/>
</clipPath>
</defs>
</svg>
