<svg width="25" height="25" viewBox="0 0 25 25" fill="none" xmlns="http://www.w3.org/2000/svg">
<g clip-path="url(#clip0_1_1648)">
<g clip-path="url(#clip1_1_1648)">
<path d="M22.2611 2.33997H3.06481C1.74635 2.33997 0.659912 3.48554 0.659912 4.88778V16.9758C0.659912 18.3783 1.74649 19.5236 3.06481 19.5236H9.8155L11.5246 21.846C11.5792 21.9323 11.6496 22.0067 11.732 22.0653C12.2447 22.516 12.9894 22.3907 13.4167 21.846L15.1257 19.5236H22.2611C23.5856 19.5236 24.6599 18.3783 24.6599 16.9758V4.88778C24.6599 3.48554 23.5856 2.33997 22.2611 2.33997ZM7.26424 12.525C6.42185 12.525 5.76268 11.824 5.76268 10.9349C5.76268 10.0398 6.42185 9.33868 7.26424 9.33868C8.10651 9.33868 8.76567 10.0398 8.76567 10.9349C8.76567 11.824 8.10651 12.525 7.26424 12.525ZM12.6598 12.525C11.8237 12.525 11.1584 11.824 11.1584 10.9349C11.1584 10.0398 11.8237 9.33868 12.6598 9.33868C13.5022 9.33868 14.1613 10.0398 14.1613 10.9349C14.1613 11.824 13.5022 12.525 12.6598 12.525ZM18.0617 12.525C17.2255 12.525 16.5662 11.824 16.5662 10.9349C16.5662 10.0398 17.2253 9.33868 18.0617 9.33868C18.898 9.33868 19.5631 10.0398 19.5631 10.9349C19.5632 11.824 18.898 12.525 18.0617 12.525Z" fill="white"/>
</g>
</g>
<defs>
<clipPath id="clip0_1_1648">
<rect width="24" height="24" fill="white" transform="translate(0.659912 0.339966)"/>
</clipPath>
<clipPath id="clip1_1_1648">
<rect width="24" height="24" fill="white" transform="translate(0.659912 0.339966)"/>
</clipPath>
</defs>
</svg>
