<svg width="25" height="25" viewBox="0 0 25 25" fill="none" xmlns="http://www.w3.org/2000/svg">
<g clip-path="url(#clip0_1_1660)">
<g clip-path="url(#clip1_1_1660)">
<mask id="mask0_1_1660" style="mask-type:luminance" maskUnits="userSpaceOnUse" x="0" y="0" width="25" height="25">
<path d="M24.3301 0.339966H0.330078V24.34H24.3301V0.339966Z" fill="white"/>
</mask>
<g mask="url(#mask0_1_1660)">
<path d="M23.8301 0.339966H20.8301C20.554 0.339966 20.3301 0.563824 20.3301 0.839966V1.83997H19.8301V2.83997H20.3301V3.83997C20.3301 4.11611 20.554 4.33997 20.8301 4.33997H21.8301V4.83997H22.8301V4.33997H23.8301C24.1062 4.33997 24.3301 4.11611 24.3301 3.83997V0.839966C24.3301 0.563824 24.1062 0.339966 23.8301 0.339966ZM23.3301 3.33997H21.3301V1.33997H23.3301V3.33997ZM4.33008 0.839966C4.33008 0.563824 4.10622 0.339966 3.83008 0.339966H0.830078C0.553936 0.339966 0.330078 0.563824 0.330078 0.839966V3.83997C0.330078 4.11611 0.553936 4.33997 0.830078 4.33997H1.83008V4.83997H2.83008V4.33997H3.83008C4.10622 4.33997 4.33008 4.11611 4.33008 3.83997V2.83997H4.83008V1.83997H4.33008V0.839966ZM3.33008 3.33997H1.33008V1.33997H3.33008V3.33997ZM23.8301 20.34H22.8301V19.84H21.8301V20.34H20.8301C20.554 20.34 20.3301 20.5639 20.3301 20.84V21.84H19.8301V22.84H20.3301V23.84C20.3301 24.1161 20.554 24.34 20.8301 24.34H23.8301C24.1062 24.34 24.3301 24.1161 24.3301 23.84V20.84C24.3301 20.5639 24.1062 20.34 23.8301 20.34ZM23.3301 23.34H21.3301V21.34H23.3301V23.34ZM4.33008 20.84C4.33008 20.5639 4.10622 20.34 3.83008 20.34H2.83008V19.84H1.83008V20.34H0.830078C0.553936 20.34 0.330078 20.5639 0.330078 20.84V23.84C0.330078 24.1161 0.553936 24.34 0.830078 24.34H3.83008C4.10622 24.34 4.33008 24.1161 4.33008 23.84V22.84H4.83008V21.84H4.33008V20.84ZM3.33008 23.34H1.33008V21.34H3.33008V23.34ZM13.8301 1.83997H14.8301V2.83997H13.8301V1.83997ZM5.83008 1.83997H6.83008V2.83997H5.83008V1.83997ZM15.8301 1.83997H16.8301V2.83997H15.8301V1.83997ZM7.83008 1.83997H8.83008V2.83997H7.83008V1.83997ZM9.83008 1.83997H10.8301V2.83997H9.83008V1.83997ZM11.8301 1.83997H12.8301V2.83997H11.8301V1.83997ZM17.8301 1.83997H18.8301V2.83997H17.8301V1.83997ZM9.83008 21.84H10.8301V22.84H9.83008V21.84ZM7.83008 21.84H8.83008V22.84H7.83008V21.84ZM15.8301 21.84H16.8301V22.84H15.8301V21.84ZM5.83008 21.84H6.83008V22.84H5.83008V21.84ZM13.8301 21.84H14.8301V22.84H13.8301V21.84ZM17.8301 21.84H18.8301V22.84H17.8301V21.84ZM11.8301 21.84H12.8301V22.84H11.8301V21.84ZM21.8301 15.84H22.8301V16.84H21.8301V15.84ZM21.8301 5.83997H22.8301V6.83997H21.8301V5.83997ZM21.8301 11.84H22.8301V12.84H21.8301V11.84ZM21.8301 17.84H22.8301V18.84H21.8301V17.84ZM21.8301 9.83997H22.8301V10.84H21.8301V9.83997ZM21.8301 13.84H22.8301V14.84H21.8301V13.84ZM21.8301 7.83997H22.8301V8.83997H21.8301V7.83997ZM1.83008 7.83997H2.83008V8.83997H1.83008V7.83997ZM1.83008 9.83997H2.83008V10.84H1.83008V9.83997ZM1.83008 5.83997H2.83008V6.83997H1.83008V5.83997ZM1.83008 17.84H2.83008V18.84H1.83008V17.84ZM1.83008 15.84H2.83008V16.84H1.83008V15.84ZM1.83008 11.84H2.83008V12.84H1.83008V11.84ZM1.83008 13.84H2.83008V14.84H1.83008V13.84Z" fill="white"/>
<path d="M7.38762 6.69544H17.1057C17.3849 6.69544 17.6083 6.94153 17.6083 7.24915V11.6173C17.1057 11.1866 16.1562 10.5099 15.4302 10.5099C14.369 10.5099 13.4195 13.2169 12.2467 13.2169C11.353 13.1554 10.1243 12.048 8.72804 12.2325C8.16953 12.3556 7.38762 13.34 6.88495 14.0782V7.24915C6.88495 6.94153 7.10836 6.69544 7.38762 6.69544ZM9.73335 11.1251C9.28654 11.1251 8.89558 10.9405 8.61633 10.6329C8.33707 10.3253 8.16952 9.83313 8.16952 9.40247C8.16952 8.9718 8.33707 8.47961 8.61633 8.172C8.89558 7.86438 9.28654 7.67981 9.73335 7.67981C10.1243 7.67981 10.5153 7.86438 10.8504 8.172C11.1296 8.47961 11.2972 8.9718 11.2972 9.40247C11.2972 9.83313 11.1296 10.3253 10.8504 10.6329C10.5153 10.9405 10.1243 11.1251 9.73335 11.1251ZM17.3849 5.89563H7.10835C6.54984 5.89563 6.10303 6.38782 6.10303 7.00305V17.0929C6.10303 17.7081 6.54984 18.2003 7.10835 18.2003H17.3849C17.9434 18.2003 18.3902 17.7081 18.3902 17.0929V7.00305C18.3902 6.38782 17.9434 5.89563 17.3849 5.89563Z" fill="white"/>
</g>
</g>
</g>
<defs>
<clipPath id="clip0_1_1660">
<rect width="24" height="24" fill="white" transform="translate(0.330078 0.339966)"/>
</clipPath>
<clipPath id="clip1_1_1660">
<rect width="24" height="24" fill="white" transform="translate(0.330078 0.339966)"/>
</clipPath>
</defs>
</svg>
