<svg width="25" height="25" viewBox="0 0 25 25" fill="none" xmlns="http://www.w3.org/2000/svg">
<g clip-path="url(#clip0_1_1698)">
<g clip-path="url(#clip1_1_1698)">
<mask id="mask0_1_1698" style="mask-type:luminance" maskUnits="userSpaceOnUse" x="0" y="0" width="25" height="25">
<path d="M24.6599 0.109985H0.659912V24.11H24.6599V0.109985Z" fill="white"/>
</mask>
<g mask="url(#mask0_1_1698)">
<path d="M21.599 20.409H20.759V9.12899C20.7583 8.83103 20.5169 8.58965 20.219 8.58899H17.207C16.9088 8.58899 16.667 8.83075 16.667 9.12899V20.409H14.7266V12.6246C14.7259 12.3266 14.4845 12.0853 14.1866 12.0846H11.1758C10.8778 12.0853 10.6364 12.3266 10.6358 12.6246V20.409H8.70617V16.5498C8.70551 16.2518 8.46413 16.0105 8.16617 16.0098H5.15537C4.85929 16.013 4.6208 16.2536 4.62017 16.5498V20.415H3.62417C3.2928 20.415 3.02417 20.6836 3.02417 21.015C3.02417 21.3464 3.2928 21.615 3.62417 21.615H21.599C21.9303 21.615 22.199 21.3464 22.199 21.015C22.199 20.6836 21.9303 20.415 21.599 20.415V20.409ZM4.45337 12.339C4.62846 12.3392 4.79642 12.2696 4.92017 12.1458L10.3382 6.72779L12.7382 9.12779C12.9959 9.38568 13.414 9.38568 13.6718 9.12779L17.9966 4.78979V6.07379C17.9966 6.4383 18.292 6.73379 18.6566 6.73379C19.0211 6.73379 19.3166 6.4383 19.3166 6.07379V3.17819C19.3166 2.81368 19.0211 2.51819 18.6566 2.51819H15.7574C15.3928 2.51819 15.0974 2.81368 15.0974 3.17819C15.0974 3.5427 15.3928 3.83819 15.7574 3.83819H17.0846L13.2002 7.72259L10.8002 5.32259C10.5421 5.06536 10.1246 5.06536 9.86657 5.32259L3.98657 11.2026C3.79772 11.3913 3.74121 11.6753 3.8434 11.922C3.9456 12.1687 4.18635 12.3295 4.45337 12.3294V12.339Z" fill="white"/>
</g>
</g>
</g>
<defs>
<clipPath id="clip0_1_1698">
<rect width="24" height="24" fill="white" transform="translate(0.659912 0.109985)"/>
</clipPath>
<clipPath id="clip1_1_1698">
<rect width="24" height="24" fill="white" transform="translate(0.659912 0.109985)"/>
</clipPath>
</defs>
</svg>
