<svg width="25" height="25" viewBox="0 0 25 25" fill="none" xmlns="http://www.w3.org/2000/svg">
<g clip-path="url(#clip0_1_1719)">
<g clip-path="url(#clip1_1_1719)">
<mask id="mask0_1_1719" style="mask-type:luminance" maskUnits="userSpaceOnUse" x="0" y="0" width="25" height="25">
<path d="M24.3301 0.109985H0.330078V24.11H24.3301V0.109985Z" fill="white"/>
</mask>
<g mask="url(#mask0_1_1719)">
<path fill-rule="evenodd" clip-rule="evenodd" d="M22.5453 0H5.0909C4.48841 0 4 0.488413 4 1.0909V22.909C4 23.5114 4.48841 23.9999 5.0909 23.9999C5.28086 24.0031 5.46853 23.958 5.63635 23.869L13.3272 19.7072C13.6487 19.5253 14.042 19.5253 14.3636 19.7072L22.0544 23.869C22.206 23.9495 22.3739 23.9942 22.5453 23.9999C23.1479 23.9999 23.6363 23.5114 23.6363 22.909V1.0909C23.6363 0.488413 23.1479 0 22.5453 0ZM16.0445 7.38173C15.9553 7.36217 15.8739 7.32557 15.8001 7.27195C15.7263 7.21832 15.6663 7.15216 15.6201 7.07345L14.3828 4.96295C14.354 4.91371 14.3193 4.86901 14.2787 4.82885C14.2381 4.78869 14.1931 4.75443 14.1436 4.72606C14.094 4.69768 14.0417 4.67615 13.9865 4.66148C13.9314 4.64679 13.8753 4.63945 13.8182 4.63945C13.7611 4.63945 13.705 4.64679 13.6498 4.66148C13.5947 4.67615 13.5423 4.69768 13.4928 4.72606C13.4433 4.75443 13.3982 4.78869 13.3577 4.82885C13.3171 4.86901 13.2824 4.91371 13.2535 4.96295L12.0162 7.07345C11.97 7.15216 11.9101 7.21832 11.8363 7.27195C11.7625 7.32557 11.681 7.36217 11.5919 7.38173L9.20233 7.90632C9.14657 7.91856 9.09333 7.93776 9.04261 7.96393C8.99188 7.9901 8.94537 8.02235 8.90308 8.06068C8.86079 8.09902 8.82414 8.14215 8.79314 8.19007C8.76213 8.23799 8.7378 8.28909 8.72017 8.34338C8.70253 8.39767 8.69217 8.45331 8.68909 8.5103C8.686 8.56729 8.6903 8.62372 8.70198 8.6796C8.71366 8.73547 8.73233 8.78889 8.75799 8.83988C8.78365 8.89087 8.81543 8.93769 8.85335 8.98036L10.4782 10.8093C10.5388 10.8775 10.5832 10.955 10.6114 11.0417C10.6396 11.1285 10.6492 11.2173 10.6403 11.3081L10.4008 13.7428C10.3952 13.7996 10.397 13.8562 10.4062 13.9126C10.4154 13.9689 10.4317 14.0231 10.4551 14.0751C10.4785 14.1272 10.5082 14.1754 10.5442 14.2197C10.5802 14.264 10.6213 14.3029 10.6674 14.3365C10.7136 14.37 10.7633 14.3971 10.8166 14.4176C10.8698 14.4381 10.9248 14.4515 10.9816 14.4576C11.0383 14.4638 11.0949 14.4625 11.1513 14.4539C11.2077 14.4452 11.2621 14.4295 11.3144 14.4067L13.5559 13.4265C13.6395 13.39 13.727 13.3717 13.8182 13.3717C13.9094 13.3717 13.9968 13.39 14.0804 13.4265L16.3219 14.4067C16.3742 14.4295 16.4286 14.4452 16.485 14.4539C16.5415 14.4625 16.598 14.4638 16.6548 14.4576C16.7115 14.4515 16.7665 14.4381 16.8198 14.4176C16.8731 14.3971 16.9228 14.37 16.9689 14.3364C17.0151 14.3029 17.0562 14.264 17.0922 14.2197C17.1282 14.1754 17.1579 14.1272 17.1812 14.0751C17.2047 14.0231 17.2209 13.9689 17.2301 13.9126C17.2393 13.8562 17.2412 13.7996 17.2356 13.7428L16.9961 11.3081C16.9872 11.2173 16.9968 11.1285 17.025 11.0417C17.0532 10.955 17.0976 10.8775 17.1582 10.8093L18.783 8.98036C18.8209 8.93769 18.8527 8.89087 18.8784 8.83988C18.904 8.78889 18.9227 8.73547 18.9343 8.6796C18.946 8.62372 18.9504 8.56729 18.9473 8.5103C18.9442 8.45331 18.9338 8.39767 18.9162 8.34338C18.8985 8.28909 18.8742 8.23799 18.8432 8.19007C18.8123 8.14215 18.7756 8.09902 18.7333 8.06068C18.691 8.02235 18.6445 7.9901 18.5937 7.96393C18.5431 7.93776 18.4898 7.91856 18.434 7.90632L16.0445 7.38173Z" fill="white"/>
</g>
</g>
</g>
<defs>
<clipPath id="clip0_1_1719">
<rect width="24" height="24" fill="white" transform="translate(0.330078 0.109985)"/>
</clipPath>
<clipPath id="clip1_1_1719">
<rect width="24" height="24" fill="white" transform="translate(0.330078 0.109985)"/>
</clipPath>
</defs>
</svg>
