<svg width="20" height="21" viewBox="0 0 20 21" fill="none" xmlns="http://www.w3.org/2000/svg">
<g clip-path="url(#clip0_1_1413)">
<path d="M11.8627 17.5601H8.13602C8.08487 17.5602 8.03554 17.5791 7.99743 17.6132C7.95931 17.6473 7.93508 17.6943 7.92936 17.7451C7.92027 17.822 7.91582 17.8994 7.91602 17.9768C7.91602 18.5293 8.13552 19.0592 8.52622 19.4499C8.91692 19.8406 9.44682 20.0601 9.99936 20.0601C10.5519 20.0601 11.0818 19.8406 11.4725 19.4499C11.8632 19.0592 12.0827 18.5293 12.0827 17.9768C12.0829 17.8994 12.0784 17.822 12.0694 17.7451C12.064 17.6941 12.0399 17.647 12.0017 17.6128C11.9635 17.5786 11.9139 17.5598 11.8627 17.5601Z" fill="white"/>
<path d="M14.2877 3.06006C12.7158 3.06006 11.4404 4.33545 11.4404 5.90743V16.3478H9.54212V5.90743C9.54212 4.33545 8.26674 3.06006 6.69475 3.06006H1V16.3478C1 17.3971 1.84902 18.2461 2.89825 18.2461H8.85623C9.1825 18.8096 9.79053 19.1952 10.4912 19.1952C11.192 19.1952 11.8 18.8096 12.1263 18.2461H18.0842C19.1335 18.2461 19.9825 17.3971 19.9825 16.3478V3.06006H14.2877Z" fill="white"/>
</g>
<defs>
<clipPath id="clip0_1_1413">
<rect width="20" height="20" fill="white" transform="translate(0 0.0600586)"/>
</clipPath>
</defs>
</svg>
