<svg width="21" height="29" viewBox="0 0 21 29" fill="none" xmlns="http://www.w3.org/2000/svg">
<g clip-path="url(#clip0_1_1776)">
<mask id="mask0_1_1776" style="mask-type:luminance" maskUnits="userSpaceOnUse" x="0" y="4" width="21" height="21">
<path d="M20.3401 4.22H0.340088V24.22H20.3401V4.22Z" fill="white"/>
</mask>
<g mask="url(#mask0_1_1776)">
<path fill-rule="evenodd" clip-rule="evenodd" d="M5.76987 7.15003C5.0832 7.8367 4.73987 8.66559 4.73987 9.63669C4.73987 10.6078 5.0832 11.4367 5.76987 12.1234C6.45655 12.81 7.28543 13.1534 8.25653 13.1534C9.22763 13.1534 10.0565 12.81 10.7432 12.1234C11.4299 11.4367 11.7732 10.6078 11.7732 9.63669C11.7732 8.66559 11.4299 7.8367 10.7432 7.15003C10.0565 6.46336 9.22763 6.12003 8.25653 6.12003C7.28543 6.12003 6.45655 6.46336 5.76987 7.15003ZM13.6154 11.6221C14.3642 11.1709 14.7386 10.5089 14.7386 9.63598C14.7386 8.76327 14.3643 8.10132 13.6158 7.65013C13.4795 7.568 13.381 7.43485 13.3427 7.2804C13.3322 7.23783 13.3263 7.19423 13.3252 7.15038L13.3251 7.13598C13.3251 7.02685 13.3548 6.91979 13.4112 6.82631C13.5157 6.65285 13.7007 6.54382 13.903 6.53638L13.9251 6.53598C14.0342 6.53598 14.1412 6.56574 14.2347 6.62207C14.7543 6.93515 15.1658 7.35428 15.4691 7.87946C15.7821 8.42151 15.9386 9.00702 15.9386 9.63598C15.9386 10.2649 15.7821 10.8505 15.4691 11.3925C15.1658 11.9177 14.7543 12.3368 14.2347 12.6499C14.1438 12.7047 14.0398 12.7344 13.9337 12.7359L13.9251 12.736C13.7147 12.736 13.5197 12.6258 13.4112 12.4457C13.3549 12.3523 13.3251 12.2454 13.3251 12.136C13.3251 12.0873 13.331 12.0388 13.3427 11.9916C13.381 11.8371 13.4791 11.7042 13.6154 11.6221ZM3.55561 15.7147C2.79646 16.1015 2.22348 16.6745 1.83667 17.4336C1.63431 17.8308 1.50721 18.3466 1.45537 18.9812C1.42376 19.368 1.40796 20.114 1.40796 21.2193V21.7193C1.40796 22.0507 1.67659 22.3193 2.00796 22.3193H14.508C14.8393 22.3193 15.108 22.0507 15.108 21.7193V21.2193C15.108 20.114 15.0922 19.368 15.0606 18.9812C15.0088 18.3466 14.8817 17.8308 14.6793 17.4336C14.2925 16.6745 13.7195 16.1015 12.9603 15.7147C12.5632 15.5123 12.0473 15.3852 11.4128 15.3334C11.026 15.3018 10.2799 15.286 9.17462 15.286H7.3413C6.236 15.286 5.48994 15.3018 5.10312 15.3334C4.4686 15.3852 3.95277 15.5123 3.55561 15.7147ZM17.1262 15.7152C17.8852 16.102 18.4585 16.6751 18.8452 17.4341C19.0475 17.8313 19.1746 18.3471 19.2265 18.9817C19.258 19.3685 19.2738 20.1145 19.2738 21.2198V21.7198C19.2738 22.0512 19.0052 22.3198 18.6738 22.3198C18.3425 22.3198 18.0738 22.0512 18.0738 21.7198V21.2198C18.0738 20.1471 18.0594 19.4336 18.0305 19.0793C17.9915 18.6022 17.9066 18.2354 17.776 17.9789C17.5072 17.4514 17.109 17.0532 16.5815 16.7844C16.3816 16.6825 16.2552 16.4777 16.2538 16.2498C16.2538 16.1551 16.2762 16.0617 16.3192 15.9774C16.4211 15.7775 16.626 15.6511 16.8538 15.6498C16.9486 15.6498 17.0418 15.6722 17.1262 15.7152Z" fill="white"/>
</g>
</g>
<defs>
<clipPath id="clip0_1_1776">
<rect width="20" height="20" fill="white" transform="translate(0.340088 4.22)"/>
</clipPath>
</defs>
</svg>
