<svg width="20" height="17" viewBox="0 0 20 17" fill="none" xmlns="http://www.w3.org/2000/svg">
<g clip-path="url(#clip0_1_1471)">
<path d="M16.9556 1.42358C15.6518 0.794256 14.2671 0.335588 12.8218 0.0795898C12.6399 0.410259 12.4377 0.858252 12.2962 1.21026C10.759 0.975584 9.23279 0.975584 7.71672 1.21026C7.57521 0.858252 7.36295 0.410259 7.19112 0.0795898C5.73573 0.335588 4.35105 0.794256 3.05634 1.42358C0.438605 5.49824 -0.268894 9.47689 0.0848539 13.4022C1.82327 14.7355 3.50106 15.5462 5.14953 16.0796C5.55382 15.5036 5.91768 14.8849 6.231 14.2342C5.63468 13.9996 5.06868 13.7116 4.5229 13.3702C4.6644 13.2636 4.8059 13.1463 4.93729 13.0289C8.2322 14.6183 11.801 14.6183 15.0555 13.0289C15.197 13.1463 15.3284 13.2636 15.4699 13.3702C14.9241 13.7116 14.3581 13.9996 13.7618 14.2342C14.0751 14.8849 14.439 15.5036 14.8432 16.0796C16.4907 15.5462 18.1786 14.7355 19.9079 13.4022C20.3425 8.85826 19.2196 4.91161 16.9556 1.42358ZM6.68581 10.9809C5.6953 10.9809 4.88674 10.0316 4.88674 8.86893C4.88674 7.70627 5.67509 6.7569 6.68581 6.7569C7.68639 6.7569 8.50504 7.70627 8.48483 8.86893C8.48483 10.0316 7.68639 10.9809 6.68581 10.9809ZM13.3272 10.9809C12.3367 10.9809 11.5271 10.0316 11.5271 8.86893C11.5271 7.70627 12.3165 6.7569 13.3272 6.7569C14.3278 6.7569 15.1464 7.70627 15.1262 8.86893C15.1262 10.0316 14.3379 10.9809 13.3272 10.9809Z" fill="#898989"/>
</g>
<defs>
<clipPath id="clip0_1_1471">
<rect width="20" height="16" fill="white" transform="translate(0 0.0795898)"/>
</clipPath>
</defs>
</svg>
