<svg width="20" height="21" viewBox="0 0 20 21" fill="none" xmlns="http://www.w3.org/2000/svg">
<g clip-path="url(#clip0_1_1488)">
<path fill-rule="evenodd" clip-rule="evenodd" d="M0 5.35694V16.8296C0 16.9117 0.00800613 16.993 0.0240184 17.0735C0.0400306 17.154 0.0637414 17.2321 0.0951506 17.308C0.126559 17.3838 0.165063 17.4558 0.210662 17.5241C0.256262 17.5923 0.30808 17.6555 0.366116 17.7135C0.424153 17.7715 0.487293 17.8234 0.555537 17.869C0.623781 17.9145 0.695817 17.953 0.771645 17.9845C0.847474 18.0159 0.925638 18.0396 1.00614 18.0556C1.08664 18.0716 1.16792 18.0796 1.25 18.0796H18.75C18.8321 18.0796 18.9134 18.0716 18.9939 18.0556C19.0744 18.0396 19.1525 18.0159 19.2284 17.9845C19.3042 17.953 19.3762 17.9145 19.4445 17.869C19.5128 17.8234 19.5759 17.7715 19.6339 17.7135C19.6919 17.6555 19.7437 17.5923 19.7894 17.5241C19.835 17.4558 19.8735 17.3838 19.9049 17.308C19.9363 17.2321 19.96 17.154 19.976 17.0735C19.992 16.993 20 16.9117 20 16.8296V5.35796L10.6906 10.4358C10.2308 10.6866 9.77105 10.6866 9.31126 10.4358L0 5.35694ZM0 3.89233L9.77105 9.22199C9.92431 9.30558 10.0776 9.30558 10.2308 9.22199L20 3.89335V3.32959C20 3.24751 19.992 3.16623 19.976 3.08573C19.96 3.00523 19.9363 2.92706 19.9049 2.85123C19.8735 2.77541 19.835 2.70337 19.7894 2.63513C19.7437 2.56688 19.6919 2.50374 19.6339 2.44571C19.5759 2.38767 19.5128 2.33585 19.4445 2.29025C19.3762 2.24465 19.3042 2.20615 19.2284 2.17474C19.1525 2.14333 19.0744 2.11962 18.9939 2.10361C18.9134 2.0876 18.8321 2.07959 18.75 2.07959H1.25C1.16792 2.07959 1.08664 2.0876 1.00614 2.10361C0.925638 2.11962 0.847474 2.14333 0.771645 2.17474C0.695817 2.20615 0.623781 2.24465 0.555537 2.29025C0.487293 2.33585 0.424153 2.38767 0.366116 2.44571C0.30808 2.50374 0.256262 2.56688 0.210662 2.63513C0.165063 2.70337 0.126559 2.77541 0.0951506 2.85123C0.0637414 2.92706 0.0400306 3.00523 0.0240184 3.08573C0.00800613 3.16623 0 3.24751 0 3.32959V3.89233Z" fill="white" fill-opacity="0.5"/>
</g>
<defs>
<clipPath id="clip0_1_1488">
<rect width="20" height="20" fill="white" transform="translate(0 0.0795898)"/>
</clipPath>
</defs>
</svg>
