<svg width="571" height="560" viewBox="0 0 571 560" fill="none" xmlns="http://www.w3.org/2000/svg">
<g clip-path="url(#clip0_1_1992)">
<mask id="mask0_1_1992" style="mask-type:luminance" maskUnits="userSpaceOnUse" x="0" y="0" width="571" height="560">
<path d="M570.992 0.75H0.0078125V559.28H570.992V0.75Z" fill="white"/>
</mask>
<g mask="url(#mask0_1_1992)">
<path d="M570.992 0.75H0.0078125V559.28H570.992V0.75Z" fill="#151A24"/>
<path d="M45.1873 31.7016C44.8816 30.1423 43.6155 28.1464 40.316 28.1464C37.7525 28.1464 35.5882 29.9864 35.5882 32.4438C35.5882 34.5395 36.9854 35.974 39.1497 36.4231L41.0458 36.816C42.0998 37.0281 42.6924 37.6581 42.6924 38.4565C42.6924 39.4357 41.9065 40.1654 40.4906 40.1654C38.5758 40.1654 37.634 38.9305 37.5218 37.5583L35.0706 38.2257C35.2764 40.2028 36.8669 42.5169 40.4719 42.5169C43.6342 42.5169 45.3806 40.415 45.3806 38.2818C45.3806 36.3233 44.0583 34.6767 41.5821 34.1902L39.6861 33.816C38.6881 33.6226 38.2141 33.0114 38.2141 32.2505C38.2141 31.3274 39.0561 30.4854 40.341 30.4854C42.0624 30.4854 42.6737 31.6829 42.8109 32.4438L45.1873 31.7016ZM46.8525 39.6851C46.8525 41.1571 48.0813 42.5169 50.0959 42.5169C51.493 42.5169 52.3912 41.8682 52.8714 41.1197C52.8714 41.3567 52.9089 41.8744 52.9712 42.1177H55.3039C55.2478 41.7934 55.1917 41.1259 55.1917 40.627V36.0863C55.1917 34.2276 54.0814 32.5374 51.0876 32.5374C48.5615 32.5374 47.2018 34.1715 47.0459 35.6185L49.31 36.0863C49.3849 35.2817 49.9961 34.5894 51.1126 34.5894C52.1853 34.5894 52.703 35.132 52.703 35.7869C52.703 36.1051 52.5283 36.367 51.9919 36.448L49.6717 36.7849C48.1 37.0095 46.8525 37.9263 46.8525 39.5729V39.6851ZM50.6322 40.4898C49.809 40.4898 49.4035 39.9658 49.4035 39.4232C49.4035 38.7122 49.9213 38.3566 50.5699 38.2631L52.703 37.945V38.3566C52.703 39.9845 51.705 40.4898 50.6322 40.4898ZM60.356 42.1177V28.1464H57.8112V42.1177H60.356ZM64.8592 36.3857C64.9154 35.5624 65.6451 34.6082 66.9674 34.6082C68.4207 34.6082 69.0319 35.4875 69.0756 36.3857H64.8592ZM69.3188 38.8557C69.0131 39.7226 68.3645 40.3338 67.1732 40.3338C65.9133 40.3338 64.8592 39.4107 64.7969 38.1258H71.5455C71.5455 38.0885 71.5828 37.708 71.5828 37.3462C71.5828 34.4023 69.8365 32.5374 66.9238 32.5374C64.5099 32.5374 62.2895 34.4959 62.2895 37.4211C62.2895 40.6582 64.5723 42.5169 67.1545 42.5169C69.4747 42.5169 70.9716 41.1571 71.4519 39.5105L69.3188 38.8557ZM72.9738 39.6103C73.086 40.6831 74.0653 42.5169 76.8969 42.5169C79.373 42.5169 80.5581 40.9514 80.5581 39.417C80.5581 38.0448 79.6226 36.9221 77.7639 36.5354L76.4229 36.2485C75.9053 36.1549 75.556 35.8681 75.556 35.4127C75.556 34.8763 76.0924 34.4771 76.766 34.4771C77.8388 34.4771 78.238 35.1819 78.319 35.737L80.4458 35.2567C80.3273 34.2464 79.4292 32.5374 76.7473 32.5374C74.714 32.5374 73.2233 33.9407 73.2233 35.6185C73.2233 36.9409 74.0466 38.0261 75.8678 38.4252L77.109 38.7122C77.8388 38.8681 78.1257 39.2111 78.1257 39.629C78.1257 40.128 77.7265 40.5646 76.8782 40.5646C75.768 40.5646 75.2129 39.8786 75.1568 39.1363L72.9738 39.6103Z" fill="white"/>
<path d="M34.4968 67.0972H250.647" stroke="white" stroke-opacity="0.1" stroke-width="1.42939"/>
<path d="M85.2722 166.01H526.923" stroke="white" stroke-opacity="0.1" stroke-width="0.958027"/>
<path d="M85.2722 245.526H526.923" stroke="white" stroke-opacity="0.1" stroke-width="0.958027"/>
<path d="M85.2722 325.042H526.923" stroke="white" stroke-opacity="0.1" stroke-width="0.958027"/>
<path d="M85.2722 404.559H526.923" stroke="white" stroke-opacity="0.1" stroke-width="0.958027"/>
<path d="M85.2722 485.033H526.923" stroke="white" stroke-opacity="0.1" stroke-width="0.958027"/>
<path d="M201.032 318.027C171.189 326.096 135.62 331.292 85.2722 326.421V491.26H526.923V167.447C493.489 213.059 490.425 249.075 449.778 264.381C409.132 279.686 351.172 252.032 299.839 263.813C251.792 274.841 230.873 309.957 201.032 318.027Z" fill="url(#paint0_linear_1_1992)" fill-opacity="0.27"/>
<path d="M528.081 167.326C523.072 174.253 518.173 181.791 513.386 189.941C510.551 194.768 506.727 201.664 501.914 210.628C497.498 218.851 494.181 224.821 491.962 228.54C488.305 234.665 484.741 239.836 481.27 244.054C477.168 249.039 472.735 253.289 467.973 256.802C462.746 260.657 456.851 263.837 450.287 266.343C444.995 268.362 439.045 269.794 432.436 270.638C426.578 271.386 420.017 271.691 412.751 271.553C406.715 271.438 399.746 271.002 391.843 270.243C387.11 269.789 379.936 268.984 370.323 267.829C362.002 266.829 355.783 266.119 351.667 265.698C344.816 264.998 338.739 264.526 333.438 264.282C320.234 263.674 309.076 264.381 299.962 266.402C289.268 268.774 278.589 273.037 267.925 279.19C263.685 281.637 259.113 284.57 254.209 287.989C251.27 290.038 246.981 293.154 241.342 297.339C236.703 300.782 233.229 303.322 230.919 304.96C227.071 307.688 223.573 310.015 220.425 311.94C212.577 316.741 205.105 320.113 198.01 322.058C188.999 324.528 180.625 326.471 172.888 327.888C164.481 329.426 156.026 330.497 147.521 331.1C138.724 331.724 129.279 331.891 119.186 331.601C109.097 331.312 97.7457 330.548 85.1326 329.31C85.086 329.306 85.0398 329.299 84.9939 329.29C84.9479 329.281 84.9026 329.27 84.8578 329.256C84.813 329.242 84.7689 329.227 84.7257 329.209C84.6824 329.191 84.6401 329.171 84.5988 329.149C84.5576 329.127 84.5174 329.103 84.4785 329.077C84.4396 329.051 84.402 329.023 84.3658 328.993C84.3296 328.964 84.2949 328.932 84.2618 328.899C84.2287 328.866 84.1973 328.831 84.1676 328.795C84.1379 328.759 84.11 328.722 84.084 328.683C84.058 328.644 84.0339 328.604 84.0118 328.562C83.9897 328.521 83.9697 328.479 83.9518 328.436C83.9339 328.392 83.9181 328.348 83.9045 328.303C83.8909 328.259 83.8795 328.213 83.8704 328.167C83.8612 328.121 83.8543 328.075 83.8497 328.028C83.8451 327.982 83.8428 327.935 83.8428 327.889C83.8428 327.842 83.845 327.795 83.8496 327.749C83.8542 327.702 83.861 327.656 83.8701 327.61C83.8792 327.564 83.8906 327.518 83.9042 327.474C83.9177 327.429 83.9335 327.385 83.9514 327.342C83.9693 327.298 83.9892 327.256 84.0113 327.215C84.0333 327.174 84.0574 327.133 84.0834 327.094C84.1094 327.055 84.1372 327.018 84.1669 326.981C84.1966 326.946 84.228 326.911 84.261 326.878C84.2941 326.845 84.3288 326.813 84.3649 326.783C84.4011 326.754 84.4387 326.726 84.4776 326.7C84.5165 326.673 84.5566 326.65 84.5979 326.628C84.6391 326.605 84.6814 326.585 84.7246 326.567C84.7679 326.55 84.8119 326.534 84.8567 326.52C84.9015 326.507 84.9468 326.496 84.9927 326.486C85.0387 326.477 85.0849 326.47 85.1315 326.466C85.1781 326.461 85.2248 326.458 85.2716 326.458C85.3184 326.458 85.3651 326.461 85.4117 326.466C97.9595 327.697 109.245 328.456 119.268 328.743C129.266 329.031 138.617 328.866 147.319 328.249C155.719 327.654 164.07 326.596 172.373 325.075C180.029 323.674 188.323 321.749 197.255 319.301C204.089 317.428 211.315 314.161 218.933 309.501C222.026 307.609 225.471 305.318 229.266 302.628C231.558 301.002 235.016 298.474 239.638 295.044C245.3 290.842 249.612 287.708 252.573 285.643C257.544 282.179 262.185 279.202 266.496 276.715C277.414 270.415 288.363 266.047 299.343 263.612C308.704 261.535 320.112 260.807 333.569 261.427C338.924 261.673 345.054 262.149 351.957 262.855C356.091 263.277 362.326 263.989 370.664 264.991C380.254 266.143 387.405 266.946 392.116 267.398C399.946 268.149 406.843 268.582 412.805 268.695C419.931 268.83 426.354 268.532 432.074 267.802C438.457 266.987 444.189 265.61 449.268 263.672C455.589 261.259 461.258 258.202 466.275 254.502C470.848 251.128 475.11 247.04 479.063 242.238C482.442 238.131 485.923 233.076 489.506 227.074C491.704 223.393 495 217.46 499.395 209.276C504.225 200.28 508.067 193.352 510.921 188.493C515.754 180.265 520.702 172.651 525.765 165.651C525.792 165.613 525.821 165.577 525.853 165.542C525.883 165.507 525.916 165.473 525.95 165.441C525.985 165.409 526.021 165.379 526.058 165.351C526.095 165.323 526.133 165.296 526.174 165.272C526.213 165.247 526.254 165.225 526.296 165.204C526.338 165.183 526.381 165.165 526.425 165.149C526.469 165.132 526.513 165.118 526.559 165.106C526.604 165.095 526.65 165.085 526.696 165.077C526.742 165.07 526.789 165.065 526.836 165.062C526.882 165.059 526.929 165.059 526.976 165.06C527.023 165.062 527.069 165.066 527.115 165.072C527.162 165.079 527.208 165.087 527.253 165.098C527.299 165.109 527.344 165.122 527.388 165.137C527.433 165.152 527.476 165.17 527.519 165.189C527.561 165.209 527.602 165.23 527.643 165.254C527.684 165.278 527.722 165.303 527.76 165.33C527.798 165.358 527.835 165.387 527.87 165.418C527.905 165.449 527.939 165.482 527.97 165.516C528.002 165.55 528.032 165.586 528.061 165.624C528.089 165.661 528.115 165.699 528.14 165.739C528.164 165.779 528.187 165.82 528.208 165.862C528.228 165.904 528.246 165.947 528.263 165.991C528.279 166.035 528.293 166.08 528.305 166.125C528.317 166.17 528.326 166.216 528.334 166.262C528.342 166.308 528.347 166.355 528.349 166.401C528.353 166.448 528.353 166.495 528.351 166.542C528.349 166.588 528.345 166.635 528.339 166.681C528.333 166.728 528.325 166.774 528.314 166.819C528.303 166.865 528.29 166.91 528.275 166.954C528.259 166.998 528.242 167.042 528.222 167.084C528.203 167.127 528.181 167.168 528.158 167.209C528.134 167.249 528.109 167.288 528.081 167.326ZM528.35 166.489C528.35 166.535 528.348 166.582 528.344 166.629C528.339 166.675 528.332 166.721 528.323 166.767C528.314 166.813 528.302 166.858 528.289 166.903C528.276 166.948 528.26 166.992 528.241 167.035C528.224 167.078 528.204 167.12 528.182 167.162C528.16 167.203 528.136 167.243 528.11 167.282C528.084 167.321 528.056 167.358 528.026 167.394C527.996 167.43 527.965 167.465 527.933 167.498C527.899 167.531 527.865 167.563 527.828 167.592C527.792 167.622 527.755 167.65 527.716 167.676C527.677 167.702 527.637 167.726 527.595 167.748C527.555 167.77 527.512 167.79 527.469 167.808C527.426 167.825 527.382 167.841 527.337 167.855C527.292 167.868 527.247 167.88 527.202 167.889C527.156 167.898 527.109 167.905 527.063 167.909C527.016 167.914 526.969 167.916 526.923 167.916C526.876 167.916 526.83 167.914 526.783 167.909C526.736 167.905 526.69 167.898 526.644 167.889C526.599 167.88 526.553 167.868 526.508 167.855C526.463 167.841 526.42 167.825 526.377 167.808C526.333 167.79 526.291 167.77 526.25 167.748C526.209 167.726 526.169 167.702 526.13 167.676C526.091 167.65 526.053 167.622 526.017 167.592C525.981 167.563 525.946 167.531 525.913 167.498C525.88 167.465 525.849 167.43 525.819 167.394C525.79 167.358 525.762 167.321 525.736 167.282C525.71 167.243 525.686 167.203 525.664 167.162C525.642 167.12 525.621 167.078 525.604 167.035C525.586 166.992 525.57 166.948 525.557 166.903C525.543 166.858 525.532 166.813 525.523 166.767C525.514 166.721 525.507 166.675 525.502 166.629C525.498 166.582 525.495 166.535 525.495 166.489C525.495 166.442 525.498 166.395 525.502 166.349C525.507 166.302 525.514 166.256 525.523 166.21C525.532 166.164 525.543 166.119 525.557 166.074C525.57 166.03 525.586 165.986 525.604 165.942C525.621 165.899 525.642 165.857 525.664 165.816C525.686 165.775 525.71 165.735 525.736 165.696C525.762 165.657 525.79 165.619 525.819 165.583C525.849 165.547 525.88 165.512 525.913 165.479C525.946 165.446 525.981 165.415 526.017 165.385C526.053 165.356 526.091 165.328 526.13 165.302C526.169 165.276 526.209 165.252 526.25 165.23C526.291 165.208 526.333 165.188 526.377 165.17C526.42 165.152 526.463 165.136 526.508 165.123C526.553 165.109 526.599 165.098 526.644 165.089C526.69 165.08 526.736 165.073 526.783 165.068C526.83 165.064 526.876 165.061 526.923 165.061C526.969 165.061 527.016 165.064 527.063 165.068C527.109 165.073 527.156 165.08 527.202 165.089C527.247 165.098 527.292 165.109 527.337 165.123C527.382 165.136 527.426 165.152 527.469 165.17C527.512 165.188 527.555 165.208 527.595 165.23C527.637 165.252 527.677 165.276 527.716 165.302C527.755 165.328 527.792 165.356 527.828 165.385C527.865 165.415 527.899 165.446 527.933 165.479C527.965 165.512 527.996 165.547 528.026 165.583C528.056 165.619 528.084 165.657 528.11 165.696C528.136 165.735 528.16 165.775 528.182 165.816C528.204 165.857 528.224 165.899 528.241 165.942C528.26 165.986 528.276 166.03 528.289 166.074C528.302 166.119 528.314 166.164 528.323 166.21C528.332 166.256 528.339 166.302 528.344 166.349C528.348 166.395 528.35 166.442 528.35 166.489ZM86.6996 327.888C86.6996 327.935 86.6973 327.981 86.6928 328.027C86.6882 328.074 86.6813 328.12 86.6722 328.166C86.6631 328.212 86.6517 328.258 86.6382 328.302C86.6246 328.347 86.6089 328.391 86.591 328.435C86.5731 328.477 86.5531 328.52 86.5311 328.561C86.509 328.602 86.485 328.642 86.4591 328.681C86.4331 328.72 86.4053 328.757 86.3756 328.794C86.346 328.83 86.3146 328.864 86.2815 328.897C86.2485 328.931 86.2139 328.962 86.1777 328.991C86.1416 329.021 86.1041 329.049 86.0652 329.075C86.0263 329.101 85.9863 329.125 85.9451 329.146C85.9038 329.169 85.8616 329.189 85.8184 329.207C85.7752 329.225 85.7313 329.24 85.6865 329.254C85.6418 329.268 85.5965 329.279 85.5507 329.288C85.5048 329.297 85.4586 329.304 85.4121 329.308C85.3656 329.313 85.3189 329.315 85.2722 329.315C85.2254 329.315 85.1788 329.313 85.1322 329.308C85.0857 329.304 85.0395 329.297 84.9937 329.288C84.9478 329.279 84.9025 329.268 84.8578 329.254C84.8131 329.24 84.7691 329.225 84.7259 329.207C84.6827 329.189 84.6405 329.169 84.5993 329.146C84.558 329.125 84.518 329.101 84.4791 329.075C84.4402 329.049 84.4027 329.021 84.3666 328.991C84.3305 328.962 84.2959 328.931 84.2628 328.897C84.2297 328.864 84.1984 328.83 84.1687 328.794C84.1391 328.757 84.1113 328.72 84.0853 328.681C84.0593 328.642 84.0353 328.602 84.0133 328.561C83.9912 328.52 83.9713 328.477 83.9534 328.435C83.9355 328.391 83.9197 328.347 83.9062 328.302C83.8926 328.258 83.8813 328.212 83.8721 328.166C83.863 328.12 83.8562 328.074 83.8516 328.028C83.847 327.982 83.8447 327.935 83.8447 327.888C83.8447 327.841 83.847 327.794 83.8516 327.748C83.8562 327.702 83.863 327.656 83.8721 327.61C83.8813 327.564 83.8926 327.518 83.9062 327.474C83.9197 327.429 83.9355 327.385 83.9534 327.342C83.9713 327.299 83.9912 327.257 84.0133 327.215C84.0353 327.174 84.0593 327.134 84.0853 327.095C84.1113 327.056 84.1391 327.019 84.1687 326.982C84.1984 326.946 84.2297 326.912 84.2628 326.879C84.2959 326.846 84.3305 326.814 84.3666 326.785C84.4027 326.755 84.4402 326.727 84.4791 326.702C84.518 326.675 84.558 326.651 84.5993 326.629C84.6405 326.607 84.6827 326.587 84.7259 326.569C84.7691 326.551 84.8131 326.536 84.8578 326.522C84.9025 326.508 84.9478 326.497 84.9937 326.488C85.0395 326.479 85.0857 326.472 85.1322 326.468C85.1788 326.463 85.2254 326.46 85.2722 326.46C85.3189 326.46 85.3656 326.463 85.4121 326.468C85.4586 326.472 85.5048 326.479 85.5507 326.488C85.5965 326.497 85.6418 326.508 85.6865 326.522C85.7313 326.536 85.7752 326.551 85.8184 326.569C85.8616 326.587 85.9038 326.607 85.9451 326.629C85.9863 326.651 86.0263 326.675 86.0652 326.702C86.1041 326.727 86.1416 326.755 86.1777 326.785C86.2139 326.814 86.2485 326.846 86.2815 326.879C86.3146 326.912 86.346 326.946 86.3756 326.982C86.4053 327.019 86.4331 327.056 86.4591 327.095C86.485 327.134 86.509 327.174 86.5311 327.215C86.5531 327.257 86.5731 327.299 86.591 327.342C86.6089 327.385 86.6246 327.429 86.6382 327.474C86.6517 327.518 86.6631 327.564 86.6722 327.61C86.6813 327.656 86.6882 327.702 86.6928 327.748C86.6973 327.794 86.6996 327.841 86.6996 327.888Z" fill="#460BF9"/>
<g opacity="0.7">
<path d="M91.5766 518.085H93.024V526.834C93.024 527.615 92.8839 528.278 92.6038 528.824C92.3237 529.37 91.9287 529.784 91.419 530.067C90.9092 530.35 90.3081 530.491 89.6155 530.491C88.9618 530.491 88.3801 530.37 87.8704 530.126C87.3606 529.879 86.9598 529.529 86.668 529.075C86.3762 528.621 86.2302 528.08 86.2302 527.455H87.6544C87.6544 527.802 87.7381 528.105 87.9054 528.363C88.0766 528.618 88.31 528.818 88.6058 528.961C88.9015 529.104 89.238 529.177 89.6155 529.177C90.0318 529.177 90.386 529.086 90.6778 528.907C90.9696 528.728 91.1913 528.465 91.3431 528.119C91.4988 527.768 91.5766 527.339 91.5766 526.834V518.085ZM98.3762 530.539C97.8082 530.539 97.2926 530.43 96.8295 530.21C96.3665 529.988 95.9987 529.666 95.7264 529.248C95.454 528.826 95.3179 528.316 95.3179 527.718C95.3179 527.193 95.419 526.766 95.6214 526.439C95.8236 526.109 96.0941 525.849 96.4325 525.662C96.7711 525.475 97.1446 525.336 97.5532 525.245C97.9657 525.149 98.3801 525.073 98.7965 525.017C99.3412 524.946 99.7829 524.892 100.121 524.856C100.464 524.816 100.713 524.751 100.869 524.658C101.028 524.567 101.108 524.408 101.108 524.18V524.133C101.108 523.543 100.95 523.085 100.635 522.758C100.324 522.432 99.8509 522.268 99.2167 522.268C98.5591 522.268 98.0436 522.416 97.67 522.71C97.2965 523.005 97.0338 523.32 96.8821 523.654L95.5747 523.176C95.8081 522.619 96.1194 522.185 96.5085 521.874C96.9015 521.559 97.3295 521.34 97.7926 521.216C98.2595 521.088 98.7186 521.025 99.17 521.025C99.4579 521.025 99.7887 521.061 100.162 521.132C100.54 521.2 100.903 521.342 101.254 521.557C101.608 521.772 101.902 522.097 102.135 522.531C102.368 522.965 102.485 523.547 102.485 524.276V530.324H101.108V529.081H101.038C100.944 529.28 100.789 529.494 100.571 529.72C100.353 529.947 100.063 530.141 99.7011 530.3C99.3392 530.459 98.8976 530.539 98.3762 530.539ZM98.5863 529.272C99.131 529.272 99.5902 529.162 99.9637 528.943C100.341 528.724 100.625 528.441 100.816 528.095C101.01 527.749 101.108 527.383 101.108 527.001V525.711C101.049 525.782 100.921 525.848 100.722 525.908C100.528 525.963 100.302 526.013 100.045 526.057C99.7925 526.096 99.5455 526.132 99.3042 526.164C99.0669 526.192 98.8743 526.216 98.7264 526.236C98.3684 526.284 98.0338 526.361 97.7225 526.47C97.4151 526.573 97.1661 526.73 96.9755 526.941C96.7886 527.149 96.6953 527.432 96.6953 527.791C96.6953 528.28 96.8724 528.651 97.2264 528.901C97.5844 529.149 98.0377 529.272 98.5863 529.272ZM106.376 524.802V530.324H104.999V521.145H106.33V522.578H106.447C106.657 522.113 106.976 521.738 107.404 521.455C107.832 521.169 108.385 521.025 109.062 521.025C109.669 521.025 110.2 521.153 110.655 521.408C111.11 521.658 111.465 522.042 111.717 522.555C111.97 523.065 112.097 523.711 112.097 524.491V530.324H110.719V524.587C110.719 523.865 110.536 523.304 110.17 522.902C109.805 522.495 109.303 522.292 108.664 522.292C108.225 522.292 107.832 522.39 107.486 522.585C107.143 522.78 106.873 523.065 106.675 523.439C106.476 523.813 106.376 524.268 106.376 524.802Z" fill="white"/>
</g>
<g opacity="0.7">
<path d="M59.8847 491.26C58.9724 491.26 58.1953 491.018 57.5535 490.532C56.9117 490.042 56.4212 489.334 56.0821 488.407C55.7431 487.476 55.5735 486.351 55.5735 485.033C55.5735 483.724 55.7431 482.604 56.0821 481.677C56.4252 480.746 56.9178 480.036 57.5595 479.546C58.2053 479.053 58.9804 478.806 59.8847 478.806C60.7888 478.806 61.5618 479.053 62.2036 479.546C62.8495 480.036 63.342 480.746 63.681 481.677C64.0242 482.604 64.1957 483.724 64.1957 485.033C64.1957 486.351 64.0261 487.476 63.6871 488.407C63.348 489.334 62.8575 490.042 62.2157 490.532C61.5739 491.018 60.7968 491.26 59.8847 491.26ZM59.8847 489.959C60.7888 489.959 61.4912 489.532 61.9918 488.679C62.4923 487.827 62.7426 486.611 62.7426 485.033C62.7426 483.984 62.6275 483.09 62.3974 482.352C62.1714 481.614 61.8443 481.051 61.4165 480.665C60.9926 480.278 60.482 480.085 59.8847 480.085C58.9885 480.085 58.2882 480.517 57.7835 481.381C57.279 482.241 57.0267 483.459 57.0267 485.033C57.0267 486.083 57.1397 486.975 57.3657 487.709C57.5918 488.442 57.9168 489.001 58.3406 489.384C58.7685 489.766 59.2831 489.959 59.8847 489.959Z" fill="white"/>
</g>
<g opacity="0.7">
<path d="M39.277 412.702V398.331H40.2325V412.702H39.277ZM42.4933 402.643C42.4233 402.074 42.1397 401.633 41.6426 401.318C41.1454 401.003 40.5355 400.847 39.813 400.847C39.2848 400.847 38.8225 400.929 38.4263 401.093C38.034 401.259 37.7271 401.484 37.5058 401.773C37.2882 402.061 37.1795 402.388 37.1795 402.756C37.1795 403.062 37.2552 403.326 37.4067 403.547C37.5621 403.763 37.7602 403.945 38.0009 404.092C38.2418 404.234 38.4943 404.351 38.7584 404.444C39.0226 404.535 39.2654 404.608 39.4867 404.664L40.6987 404.978C41.0095 405.057 41.3551 405.165 41.7358 405.304C42.1204 405.442 42.4875 405.631 42.837 405.87C43.1905 406.107 43.4818 406.41 43.711 406.78C43.9402 407.15 44.0547 407.605 44.0547 408.144C44.0547 408.765 43.8858 409.326 43.5479 409.828C43.2138 410.33 42.7243 410.728 42.0796 411.024C41.4387 411.319 40.6599 411.468 39.7432 411.468C38.8886 411.468 38.1486 411.334 37.5232 411.068C36.9017 410.803 36.4123 410.432 36.0549 409.957C35.7015 409.482 35.5015 408.93 35.4548 408.301H36.9463C36.9853 408.735 37.1367 409.094 37.4008 409.379C37.6688 409.659 38.0068 409.869 38.4146 410.008C38.8264 410.142 39.2692 410.21 39.7432 410.21C40.2947 410.21 40.79 410.123 41.2289 409.952C41.6679 409.776 42.0155 409.532 42.2718 409.221C42.5283 408.908 42.6564 408.54 42.6564 408.122C42.6564 407.739 42.5457 407.429 42.3243 407.189C42.1029 406.95 41.8116 406.755 41.4503 406.606C41.0891 406.456 40.6987 406.325 40.2792 406.213L38.8109 405.809C37.8787 405.551 37.1407 405.182 36.5968 404.703C36.053 404.224 35.7811 403.597 35.7811 402.822C35.7811 402.179 35.9617 401.618 36.3229 401.139C36.6881 400.656 37.1775 400.282 37.7912 400.016C38.4088 399.747 39.0983 399.611 39.8596 399.611C40.6288 399.611 41.3124 399.745 41.9106 400.011C42.5088 400.272 42.9826 400.631 43.3322 401.088C43.6858 401.545 43.8722 402.063 43.8917 402.643H42.4933ZM46.2208 411.265V410.254L50.1596 406.1C50.6217 405.614 51.0025 405.191 51.3015 404.832C51.6006 404.469 51.8221 404.129 51.9658 403.811C52.1134 403.489 52.1872 403.152 52.1872 402.8C52.1872 402.395 52.0862 402.046 51.8842 401.75C51.686 401.455 51.4142 401.227 51.0685 401.066C50.7227 400.905 50.3342 400.824 49.9031 400.824C49.4447 400.824 49.0446 400.915 48.7029 401.1C48.3649 401.279 48.1028 401.531 47.9163 401.857C47.7338 402.183 47.6425 402.564 47.6425 403.003H46.2674C46.2674 402.329 46.4287 401.738 46.7509 401.228C47.0734 400.719 47.5124 400.323 48.0678 400.038C48.6271 399.754 49.2546 399.611 49.9497 399.611C50.649 399.611 51.2685 399.754 51.8085 400.038C52.3484 400.323 52.7718 400.707 53.0786 401.189C53.3855 401.672 53.5389 402.209 53.5389 402.8C53.5389 403.223 53.4592 403.636 53.3 404.041C53.1446 404.441 52.8727 404.888 52.4843 405.382C52.0997 405.873 51.5656 406.471 50.882 407.179L48.2018 409.94V410.03H53.7487V411.265H46.2208ZM60.0472 411.422C59.1693 411.422 58.4215 411.192 57.8039 410.731C57.1863 410.267 56.7143 409.596 56.3881 408.716C56.0618 407.834 55.8986 406.767 55.8986 405.517C55.8986 404.275 56.0618 403.213 56.3881 402.334C56.7183 401.451 57.1922 400.778 57.8097 400.314C58.4312 399.845 59.177 399.611 60.0472 399.611C60.9173 399.611 61.6611 399.845 62.2786 400.314C62.9002 400.778 63.3741 401.451 63.7004 402.334C64.0306 403.213 64.1957 404.275 64.1957 405.517C64.1957 406.767 64.0325 407.834 63.7062 408.716C63.3799 409.596 62.9079 410.267 62.2903 410.731C61.6728 411.192 60.925 411.422 60.0472 411.422ZM60.0472 410.188C60.9173 410.188 61.5932 409.783 62.0748 408.975C62.5565 408.166 62.7973 407.014 62.7973 405.517C62.7973 404.522 62.6866 403.674 62.4652 402.974C62.2477 402.275 61.9331 401.741 61.5212 401.374C61.1135 401.008 60.622 400.824 60.0472 400.824C59.1848 400.824 58.5109 401.234 58.0253 402.053C57.5398 402.869 57.297 404.024 57.297 405.517C57.297 406.512 57.4057 407.358 57.6232 408.054C57.8408 408.75 58.1536 409.28 58.5614 409.643C58.9732 410.005 59.4685 410.188 60.0472 410.188Z" fill="white"/>
</g>
<g opacity="0.7">
<path d="M38.3666 333.185V317.857H39.334V333.185H38.3666ZM41.6229 322.456C41.5521 321.85 41.265 321.378 40.7616 321.043C40.2582 320.707 39.6408 320.54 38.9093 320.54C38.3745 320.54 37.9064 320.628 37.5053 320.803C37.1082 320.979 36.7974 321.22 36.5733 321.528C36.3531 321.835 36.2429 322.184 36.2429 322.576C36.2429 322.903 36.3197 323.184 36.473 323.42C36.6303 323.651 36.8309 323.845 37.0747 324.001C37.3186 324.153 37.5741 324.278 37.8415 324.378C38.109 324.474 38.3548 324.552 38.5789 324.612L39.806 324.947C40.1206 325.031 40.4706 325.146 40.856 325.294C41.2454 325.442 41.617 325.643 41.9709 325.899C42.3288 326.151 42.6237 326.474 42.8557 326.868C43.0878 327.264 43.2038 327.749 43.2038 328.324C43.2038 328.986 43.0328 329.585 42.6906 330.12C42.3524 330.655 41.8568 331.08 41.2041 331.395C40.5552 331.711 39.7667 331.869 38.8386 331.869C37.9734 331.869 37.2242 331.727 36.591 331.443C35.9617 331.16 35.4662 330.765 35.1044 330.257C34.7466 329.751 34.544 329.162 34.4968 328.491H36.007C36.0463 328.954 36.1996 329.338 36.4671 329.642C36.7384 329.94 37.0806 330.164 37.4935 330.312C37.9104 330.455 38.3587 330.528 38.8386 330.528C39.3969 330.528 39.8984 330.435 40.3427 330.252C40.7872 330.064 41.1391 329.804 41.3987 329.473C41.6583 329.139 41.788 328.746 41.788 328.3C41.788 327.892 41.676 327.561 41.4518 327.306C41.2277 327.05 40.9327 326.842 40.567 326.683C40.2012 326.524 39.806 326.384 39.3812 326.264L37.8946 325.833C36.9508 325.557 36.2036 325.164 35.6531 324.653C35.1024 324.143 34.8272 323.474 34.8272 322.647C34.8272 321.961 35.01 321.363 35.3757 320.852C35.7455 320.336 36.2409 319.938 36.8623 319.654C37.4876 319.367 38.1857 319.222 38.9565 319.222C39.7352 319.222 40.4274 319.365 41.0329 319.648C41.6386 319.927 42.1184 320.31 42.4723 320.798C42.8303 321.285 43.019 321.837 43.0387 322.456H41.6229ZM45.1137 329.139V327.917L50.4228 319.391H51.2958V321.282H50.706L46.6945 327.725V327.821H53.8443V329.139H45.1137ZM50.8003 331.653V328.767V328.198V319.391H52.1926V331.653H50.8003ZM59.9956 331.82C59.1067 331.82 58.3497 331.575 57.7244 331.083C57.0991 330.589 56.6212 329.872 56.2909 328.934C55.9606 327.993 55.7953 326.855 55.7953 325.521C55.7953 324.197 55.9606 323.064 56.2909 322.126C56.6252 321.185 57.105 320.466 57.7302 319.971C58.3596 319.472 59.1146 319.222 59.9956 319.222C60.8765 319.222 61.6296 319.472 62.2548 319.971C62.8841 320.466 63.3639 321.185 63.6942 322.126C64.0286 323.064 64.1957 324.197 64.1957 325.521C64.1957 326.855 64.0304 327.993 63.7001 328.934C63.3698 329.872 62.892 330.589 62.2666 331.083C61.6414 331.575 60.8843 331.82 59.9956 331.82ZM59.9956 330.504C60.8765 330.504 61.5607 330.072 62.0484 329.21C62.5361 328.348 62.7799 327.118 62.7799 325.521C62.7799 324.46 62.6678 323.556 62.4436 322.809C62.2235 322.063 61.9049 321.494 61.4879 321.103C61.0751 320.712 60.5775 320.516 59.9956 320.516C59.1224 320.516 58.4401 320.953 57.9485 321.827C57.4569 322.697 57.2111 323.929 57.2111 325.521C57.2111 326.584 57.3214 327.485 57.5416 328.228C57.7618 328.97 58.0783 329.535 58.4913 329.923C58.9081 330.309 59.4096 330.504 59.9956 330.504Z" fill="white"/>
</g>
<g opacity="0.7">
<path d="M40.195 253.669V238.341H41.1406V253.669H40.195ZM43.3775 242.94C43.3084 242.333 43.0278 241.862 42.5358 241.527C42.0437 241.191 41.4404 241.024 40.7254 241.024C40.2027 241.024 39.7453 241.112 39.3533 241.287C38.965 241.463 38.6614 241.704 38.4424 242.011C38.227 242.319 38.1194 242.668 38.1194 243.06C38.1194 243.387 38.1944 243.668 38.3443 243.904C38.4981 244.135 38.6941 244.329 38.9324 244.485C39.1707 244.637 39.4205 244.762 39.6819 244.861C39.9433 244.957 40.1835 245.035 40.4026 245.095L41.6017 245.431C41.9092 245.515 42.2514 245.63 42.628 245.778C43.0085 245.926 43.3717 246.127 43.7177 246.382C44.0675 246.635 44.3558 246.958 44.5825 247.352C44.8093 247.748 44.9227 248.232 44.9227 248.808C44.9227 249.47 44.7554 250.069 44.421 250.603C44.0906 251.139 43.6062 251.564 42.9682 251.879C42.334 252.194 41.5633 252.353 40.6562 252.353C39.8106 252.353 39.0784 252.21 38.4596 251.927C37.8446 251.644 37.3603 251.249 37.0068 250.741C36.6569 250.235 36.459 249.646 36.4128 248.975H37.8888C37.9272 249.438 38.0772 249.821 38.3386 250.125C38.6037 250.424 38.9381 250.647 39.3417 250.795C39.7491 250.939 40.1873 251.011 40.6562 251.011C41.202 251.011 41.6922 250.919 42.1264 250.736C42.5607 250.548 42.9048 250.288 43.1585 249.957C43.4121 249.622 43.539 249.23 43.539 248.784C43.539 248.376 43.4294 248.045 43.2104 247.789C42.9912 247.534 42.703 247.326 42.3455 247.167C41.988 247.007 41.6017 246.867 41.1867 246.748L39.7338 246.317C38.8113 246.041 38.081 245.648 37.5429 245.137C37.0048 244.626 36.7357 243.957 36.7357 243.131C36.7357 242.445 36.9145 241.846 37.2719 241.336C37.6332 240.82 38.1175 240.421 38.7249 240.138C39.336 239.851 40.0182 239.706 40.7716 239.706C41.5326 239.706 42.209 239.848 42.801 240.132C43.393 240.411 43.8618 240.794 44.2078 241.281C44.5575 241.768 44.7421 242.321 44.7612 242.94H43.3775ZM50.9865 252.304C50.5023 252.296 50.0179 252.2 49.5335 252.017C49.0493 251.833 48.6073 251.524 48.2075 251.089C47.8078 250.65 47.4869 250.057 47.2447 249.311C47.0026 248.56 46.8815 247.618 46.8815 246.484C46.8815 245.398 46.9795 244.436 47.1755 243.598C47.3716 242.756 47.656 242.047 48.0288 241.472C48.4017 240.894 48.8514 240.455 49.3779 240.156C49.9083 239.856 50.506 239.706 51.1711 239.706C51.8321 239.706 52.4201 239.844 52.9353 240.12C53.454 240.391 53.8769 240.771 54.2036 241.258C54.5303 241.745 54.7417 242.305 54.8378 242.94H53.4311C53.3004 242.389 53.0467 241.932 52.67 241.568C52.2934 241.206 51.7937 241.024 51.1711 241.024C50.2562 241.024 49.5355 241.437 49.009 242.263C48.4862 243.089 48.2228 244.249 48.2191 245.742H48.3114C48.5265 245.403 48.7822 245.113 49.0782 244.874C49.3779 244.63 49.7085 244.442 50.0698 244.311C50.4311 244.179 50.8135 244.113 51.2171 244.113C51.8935 244.113 52.5124 244.288 53.0735 244.64C53.6347 244.988 54.0844 245.468 54.4227 246.083C54.761 246.694 54.9301 247.395 54.9301 248.185C54.9301 248.943 54.7667 249.638 54.4399 250.269C54.1133 250.895 53.654 251.394 53.062 251.765C52.474 252.132 51.7821 252.312 50.9865 252.304ZM50.9865 250.988C51.4708 250.988 51.9051 250.861 52.2895 250.61C52.6777 250.358 52.9833 250.021 53.2062 249.598C53.433 249.175 53.5464 248.704 53.5464 248.185C53.5464 247.678 53.4368 247.216 53.2177 246.802C53.0025 246.382 52.7046 246.049 52.324 245.802C51.9474 245.554 51.5169 245.431 51.0326 245.431C50.6674 245.431 50.3272 245.507 50.0121 245.658C49.6969 245.806 49.4202 246.01 49.1818 246.268C48.9475 246.528 48.763 246.825 48.6285 247.161C48.494 247.492 48.4267 247.841 48.4267 248.209C48.4267 248.696 48.5361 249.151 48.7553 249.574C48.9781 249.998 49.2818 250.339 49.6662 250.598C50.0545 250.858 50.4945 250.988 50.9865 250.988ZM61.0487 252.304C60.18 252.304 59.4401 252.059 58.829 251.567C58.2178 251.072 57.7508 250.356 57.4279 249.418C57.1051 248.477 56.9436 247.339 56.9436 246.005C56.9436 244.681 57.1051 243.548 57.4279 242.61C57.7546 241.669 58.2236 240.95 58.8347 240.455C59.4497 239.956 60.1876 239.706 61.0487 239.706C61.9096 239.706 62.6456 239.956 63.2568 240.455C63.8718 240.95 64.3407 241.669 64.6635 242.61C64.9903 243.548 65.1537 244.681 65.1537 246.005C65.1537 247.339 64.9921 248.477 64.6693 249.418C64.3464 250.356 63.8794 251.072 63.2684 251.567C62.6572 252.059 61.9173 252.304 61.0487 252.304ZM61.0487 250.988C61.9096 250.988 62.5784 250.556 63.055 249.694C63.5316 248.831 63.77 247.602 63.77 246.005C63.77 244.944 63.6604 244.04 63.4414 243.293C63.2261 242.547 62.9148 241.977 62.5072 241.586C62.1038 241.195 61.6175 241 61.0487 241C60.1954 241 59.5285 241.437 59.048 242.311C58.5676 243.181 58.3273 244.413 58.3273 246.005C58.3273 247.067 58.4349 247.969 58.6502 248.712C58.8654 249.454 59.1749 250.019 59.5785 250.407C59.9859 250.793 60.476 250.988 61.0487 250.988Z" fill="white"/>
</g>
<g opacity="0.7">
<path d="M40.2117 174.153V158.825H41.1614V174.153H40.2117ZM43.4084 163.424C43.3389 162.817 43.0571 162.346 42.5628 162.01C42.0687 161.675 41.4627 161.507 40.7446 161.507C40.2195 161.507 39.76 161.595 39.3663 161.771C38.9763 161.947 38.6714 162.188 38.4513 162.495C38.2351 162.802 38.127 163.152 38.127 163.544C38.127 163.87 38.2023 164.152 38.3528 164.388C38.5072 164.618 38.7042 164.813 38.9435 164.969C39.1829 165.12 39.4339 165.246 39.6964 165.345C39.9589 165.441 40.2001 165.519 40.4203 165.579L41.6247 165.915C41.9336 165.998 42.2773 166.114 42.6555 166.262C43.0378 166.41 43.4026 166.611 43.75 166.866C44.1013 167.118 44.3909 167.441 44.6188 167.836C44.8465 168.231 44.9604 168.716 44.9604 169.291C44.9604 169.954 44.7924 170.553 44.4566 171.087C44.1245 171.623 43.6381 172.048 42.9972 172.363C42.3602 172.678 41.5862 172.836 40.675 172.836C39.8257 172.836 39.0902 172.694 38.4686 172.41C37.851 172.128 37.3645 171.732 37.0093 171.225C36.658 170.719 36.4592 170.13 36.4128 169.459H37.8954C37.934 169.922 38.0846 170.305 38.347 170.609C38.6135 170.907 38.9493 171.131 39.3547 171.279C39.7639 171.423 40.204 171.495 40.675 171.495C41.2233 171.495 41.7155 171.402 42.1518 171.219C42.588 171.032 42.9335 170.772 43.1884 170.441C43.4431 170.106 43.5706 169.714 43.5706 169.268C43.5706 168.86 43.4605 168.529 43.2404 168.273C43.0204 168.018 42.7308 167.81 42.3718 167.65C42.0128 167.491 41.6247 167.351 41.2078 167.231L39.7484 166.801C38.8219 166.525 38.0884 166.132 37.5479 165.621C37.0074 165.11 36.7371 164.441 36.7371 163.615C36.7371 162.929 36.9167 162.33 37.2758 161.819C37.6386 161.304 38.125 160.905 38.735 160.621C39.3489 160.334 40.0341 160.19 40.7908 160.19C41.5552 160.19 42.2347 160.332 42.8293 160.616C43.4238 160.895 43.8949 161.278 44.2423 161.765C44.5936 162.252 44.7789 162.805 44.7982 163.424H43.4084ZM50.912 172.788C50.1168 172.788 49.4141 172.642 48.8042 172.35C48.1981 172.056 47.7251 171.65 47.3853 171.136C47.0456 170.617 46.8777 170.026 46.8816 169.364C46.8777 168.844 46.9761 168.365 47.1769 167.926C47.3777 167.483 47.6518 167.114 47.9992 166.819C48.3505 166.519 48.7424 166.329 49.1747 166.249V166.178C48.6073 166.027 48.1556 165.697 47.8197 165.19C47.4838 164.678 47.3178 164.097 47.3217 163.448C47.3178 162.825 47.4702 162.268 47.7792 161.777C48.088 161.286 48.5126 160.898 49.0532 160.616C49.5975 160.332 50.2172 160.19 50.912 160.19C51.5993 160.19 52.2131 160.332 52.7536 160.616C53.2941 160.898 53.7188 161.286 54.0276 161.777C54.3403 162.268 54.4987 162.825 54.5025 163.448C54.4987 164.097 54.3269 164.678 53.9871 165.19C53.6512 165.697 53.2053 166.027 52.6494 166.178V166.249C53.0779 166.329 53.464 166.519 53.8076 166.819C54.1512 167.114 54.4254 167.483 54.6299 167.926C54.8346 168.365 54.9387 168.844 54.9426 169.364C54.9387 170.026 54.765 170.617 54.4215 171.136C54.0817 171.65 53.6088 172.056 53.0026 172.35C52.4004 172.642 51.7035 172.788 50.912 172.788ZM50.912 171.471C51.4487 171.471 51.912 171.381 52.3019 171.201C52.6918 171.021 52.993 170.768 53.2053 170.441C53.4176 170.114 53.5257 169.73 53.5296 169.291C53.5257 168.828 53.41 168.419 53.1822 168.064C52.9544 167.708 52.6436 167.429 52.2498 167.226C51.8599 167.022 51.4139 166.92 50.912 166.92C50.4064 166.92 49.9546 167.022 49.557 167.226C49.1631 167.429 48.8524 167.708 48.6246 168.064C48.4007 168.419 48.2907 168.828 48.2946 169.291C48.2907 169.73 48.393 170.114 48.6014 170.441C48.8138 170.768 49.1169 171.021 49.5106 171.201C49.9045 171.381 50.3716 171.471 50.912 171.471ZM50.912 165.651C51.3368 165.651 51.7132 165.563 52.0413 165.387C52.3734 165.212 52.634 164.967 52.8232 164.651C53.0123 164.336 53.1089 163.966 53.1127 163.544C53.1089 163.128 53.0142 162.766 52.8289 162.46C52.6436 162.148 52.3868 161.909 52.0587 161.741C51.7306 161.569 51.3484 161.484 50.912 161.484C50.4681 161.484 50.0801 161.569 49.7481 161.741C49.4161 161.909 49.1593 162.148 48.9779 162.46C48.7965 162.766 48.7076 163.128 48.7115 163.544C48.7076 163.966 48.7983 164.336 48.9837 164.651C49.1729 164.967 49.4335 165.212 49.7655 165.387C50.0975 165.563 50.4797 165.651 50.912 165.651ZM61.0305 172.788C60.1579 172.788 59.4147 172.543 58.8009 172.051C58.1871 171.556 57.7179 170.84 57.3936 169.902C57.0694 168.96 56.9072 167.822 56.9072 166.489C56.9072 165.164 57.0694 164.032 57.3936 163.094C57.7218 162.153 58.1928 161.434 58.8067 160.939C59.4244 160.439 60.1656 160.19 61.0305 160.19C61.8952 160.19 62.6345 160.439 63.2483 160.939C63.8662 161.434 64.3371 162.153 64.6614 163.094C64.9897 164.032 65.1537 165.164 65.1537 166.489C65.1537 167.822 64.9915 168.96 64.6672 169.902C64.3429 170.84 63.8737 171.556 63.2599 172.051C62.6461 172.543 61.9029 172.788 61.0305 172.788ZM61.0305 171.471C61.8952 171.471 62.567 171.04 63.0457 170.177C63.5244 169.315 63.7639 168.086 63.7639 166.489C63.7639 165.428 63.6538 164.524 63.4337 163.777C63.2176 163.031 62.9049 162.461 62.4955 162.07C62.0903 161.679 61.6018 161.484 61.0305 161.484C60.1734 161.484 59.5036 161.921 59.0209 162.794C58.5384 163.665 58.2971 164.896 58.2971 166.489C58.2971 167.551 58.4051 168.453 58.6214 169.195C58.8375 169.938 59.1484 170.503 59.5537 170.89C59.963 171.277 60.4552 171.471 61.0305 171.471Z" fill="white"/>
</g>
<g opacity="0.7">
<path d="M188.739 530.347V518.085H195.743V519.402H190.154V523.545H195.219V524.863H190.154V530.347H188.739ZM201.014 530.539C200.17 530.539 199.441 530.344 198.829 529.952C198.221 529.557 197.751 529.006 197.42 528.299C197.093 527.589 196.929 526.763 196.929 525.821C196.929 524.879 197.093 524.048 197.42 523.329C197.751 522.607 198.212 522.045 198.8 521.641C199.394 521.234 200.086 521.031 200.877 521.031C201.333 521.031 201.783 521.111 202.229 521.27C202.674 521.43 203.079 521.69 203.444 522.049C203.808 522.404 204.099 522.875 204.317 523.462C204.533 524.048 204.642 524.771 204.642 525.629V526.228H197.889V525.006H203.272C203.272 524.488 203.173 524.024 202.976 523.618C202.782 523.21 202.505 522.889 202.143 522.654C201.786 522.417 201.364 522.3 200.877 522.3C200.341 522.3 199.877 522.44 199.485 522.719C199.098 522.995 198.799 523.354 198.59 523.797C198.381 524.24 198.276 524.715 198.276 525.222V526.036C198.276 526.731 198.39 527.32 198.619 527.802C198.85 528.281 199.172 528.646 199.582 528.898C199.993 529.146 200.47 529.269 201.014 529.269C201.368 529.269 201.687 529.217 201.972 529.114C202.262 529.006 202.51 528.846 202.719 528.635C202.929 528.419 203.09 528.151 203.205 527.833L204.505 528.216C204.367 528.679 204.138 529.086 203.815 529.437C203.491 529.784 203.091 530.056 202.617 530.251C202.141 530.443 201.607 530.539 201.014 530.539ZM206.871 530.347V518.085H208.218V522.612H208.332C208.431 522.451 208.568 522.248 208.742 522.001C208.921 521.75 209.176 521.526 209.507 521.33C209.841 521.13 210.293 521.031 210.864 521.031C211.602 521.031 212.253 521.224 212.815 521.612C213.378 521.998 213.817 522.547 214.132 523.258C214.448 523.969 214.606 524.806 214.606 525.773C214.606 526.747 214.448 527.591 214.132 528.305C213.817 529.016 213.38 529.567 212.821 529.958C212.261 530.345 211.618 530.539 210.887 530.539C210.325 530.539 209.874 530.441 209.536 530.245C209.196 530.045 208.936 529.82 208.754 529.569C208.571 529.313 208.431 529.102 208.332 528.935H208.172V530.347H206.871ZM208.195 525.749C208.195 526.444 208.292 527.056 208.486 527.587C208.68 528.114 208.963 528.527 209.335 528.826C209.708 529.122 210.164 529.269 210.705 529.269C211.268 529.269 211.737 529.114 212.114 528.802C212.494 528.487 212.779 528.064 212.969 527.533C213.163 526.999 213.26 526.403 213.26 525.749C213.26 525.103 213.165 524.519 212.975 524.001C212.789 523.477 212.505 523.065 212.125 522.761C211.749 522.454 211.275 522.3 210.705 522.3C210.157 522.3 209.697 522.446 209.325 522.737C208.952 523.024 208.67 523.428 208.481 523.946C208.29 524.462 208.195 525.062 208.195 525.749Z" fill="white"/>
</g>
<g opacity="0.7">
<path d="M291.248 518.085H292.951L296.957 528.244H297.095L301.1 518.085H302.803V530.324H301.468V521.025H301.353L297.67 530.324H296.381L292.698 521.025H292.583V530.324H291.248V518.085ZM308.082 530.539C307.521 530.539 307.013 530.43 306.557 530.21C306.101 529.988 305.738 529.666 305.47 529.248C305.2 528.826 305.067 528.316 305.067 527.718C305.067 527.193 305.167 526.766 305.365 526.439C305.565 526.109 305.831 525.849 306.166 525.662C306.499 525.475 306.867 525.336 307.27 525.245C307.677 525.149 308.086 525.073 308.496 525.017C309.033 524.946 309.469 524.892 309.802 524.856C310.14 524.816 310.385 524.751 310.538 524.658C310.696 524.567 310.775 524.408 310.775 524.18V524.133C310.775 523.543 310.62 523.085 310.308 522.758C310.002 522.432 309.536 522.268 308.91 522.268C308.262 522.268 307.754 522.416 307.386 522.71C307.017 523.005 306.758 523.32 306.609 523.654L305.32 523.176C305.55 522.619 305.856 522.185 306.241 521.874C306.627 521.559 307.05 521.34 307.506 521.216C307.967 521.088 308.42 521.025 308.865 521.025C309.148 521.025 309.474 521.061 309.842 521.132C310.215 521.2 310.573 521.342 310.919 521.557C311.268 521.772 311.557 522.097 311.788 522.531C312.018 522.965 312.133 523.547 312.133 524.276V530.324H310.775V529.081H310.706C310.613 529.28 310.46 529.494 310.245 529.72C310.03 529.947 309.745 530.141 309.388 530.3C309.031 530.459 308.595 530.539 308.082 530.539ZM308.289 529.272C308.826 529.272 309.279 529.162 309.647 528.943C310.019 528.724 310.3 528.441 310.487 528.095C310.679 527.749 310.775 527.383 310.775 527.001V525.711C310.718 525.782 310.591 525.848 310.395 525.908C310.203 525.963 309.98 526.013 309.727 526.057C309.478 526.096 309.234 526.132 308.996 526.164C308.763 526.192 308.573 526.216 308.427 526.236C308.074 526.284 307.744 526.361 307.438 526.47C307.135 526.573 306.888 526.73 306.7 526.941C306.517 527.149 306.424 527.432 306.424 527.791C306.424 528.28 306.599 528.651 306.948 528.901C307.301 529.149 307.748 529.272 308.289 529.272ZM314.611 530.324V521.145H315.923V522.531H316.016C316.177 522.076 316.469 521.709 316.89 521.426C317.313 521.143 317.788 521.002 318.317 521.002C318.417 521.002 318.542 521.003 318.692 521.007C318.842 521.012 318.955 521.017 319.031 521.025V522.459C318.985 522.448 318.88 522.43 318.715 522.406C318.554 522.378 318.382 522.364 318.202 522.364C317.773 522.364 317.39 522.458 317.052 522.645C316.719 522.828 316.453 523.083 316.258 523.41C316.066 523.732 315.97 524.101 315.97 524.515V530.324H314.611Z" fill="white"/>
</g>
<g opacity="0.7">
<path d="M395.296 530.048H393.757L398.209 518.085H399.724L404.177 530.048H402.637L399.015 519.978H398.92L395.296 530.048ZM395.865 525.375H402.068V526.66H395.865V525.375ZM405.875 533.413V521.076H407.225V522.502H407.392C407.495 522.345 407.637 522.147 407.818 521.905C408.003 521.66 408.268 521.442 408.611 521.251C408.958 521.056 409.428 520.959 410.02 520.959C410.785 520.959 411.46 521.148 412.045 521.526C412.629 521.903 413.085 522.439 413.412 523.132C413.74 523.826 413.904 524.643 413.904 525.585C413.904 526.536 413.74 527.359 413.412 528.056C413.085 528.75 412.631 529.288 412.05 529.669C411.47 530.046 410.802 530.236 410.043 530.236C409.46 530.236 408.992 530.14 408.641 529.949C408.289 529.754 408.019 529.535 407.83 529.289C407.64 529.04 407.495 528.833 407.392 528.67H407.273V533.413H405.875ZM407.25 525.562C407.25 526.24 407.351 526.838 407.552 527.356C407.753 527.87 408.047 528.272 408.433 528.564C408.82 528.853 409.294 528.997 409.855 528.997C410.439 528.997 410.926 528.845 411.316 528.541C411.712 528.234 412.008 527.821 412.205 527.303C412.406 526.782 412.506 526.201 412.506 525.562C412.506 524.932 412.408 524.363 412.211 523.857C412.017 523.346 411.723 522.944 411.328 522.647C410.937 522.347 410.447 522.197 409.855 522.197C409.286 522.197 408.809 522.34 408.422 522.624C408.034 522.904 407.743 523.298 407.545 523.804C407.348 524.306 407.25 524.892 407.25 525.562ZM416.035 530.048V521.076H417.385V522.431H417.48C417.645 521.987 417.946 521.627 418.379 521.351C418.814 521.074 419.304 520.936 419.848 520.936C419.951 520.936 420.079 520.937 420.233 520.941C420.387 520.946 420.504 520.951 420.582 520.959V522.36C420.535 522.349 420.427 522.332 420.257 522.309C420.091 522.281 419.915 522.268 419.729 522.268C419.288 522.268 418.893 522.359 418.546 522.542C418.202 522.721 417.93 522.97 417.729 523.29C417.531 523.605 417.433 523.966 417.433 524.37V530.048H416.035Z" fill="white"/>
</g>
<g opacity="0.7">
<path d="M495.308 518.085H497.033L501.089 528.015H501.229L505.285 518.085H507.009V530.048H505.658V520.959H505.541L501.811 530.048H500.506L496.776 520.959H496.66V530.048H495.308V518.085ZM512.354 530.259C511.787 530.259 511.272 530.152 510.81 529.937C510.347 529.72 509.981 529.406 509.708 528.997C509.437 528.584 509.3 528.086 509.3 527.502C509.3 526.988 509.401 526.571 509.604 526.251C509.806 525.928 510.076 525.675 510.413 525.492C510.752 525.309 511.125 525.173 511.533 525.084C511.944 524.99 512.358 524.916 512.774 524.861C513.318 524.792 513.759 524.739 514.097 524.703C514.439 524.665 514.687 524.601 514.842 524.51C515.002 524.421 515.081 524.266 515.081 524.043V523.997C515.081 523.42 514.924 522.972 514.609 522.653C514.299 522.334 513.827 522.174 513.194 522.174C512.537 522.174 512.022 522.319 511.649 522.606C511.277 522.894 511.014 523.202 510.862 523.529L509.558 523.062C509.791 522.517 510.101 522.093 510.489 521.788C510.882 521.481 511.31 521.267 511.772 521.145C512.238 521.021 512.697 520.959 513.146 520.959C513.435 520.959 513.764 520.994 514.137 521.064C514.515 521.13 514.878 521.269 515.227 521.478C515.58 521.689 515.874 522.007 516.107 522.431C516.34 522.855 516.457 523.424 516.457 524.137V530.048H515.081V528.833H515.012C514.918 529.029 514.763 529.237 514.545 529.459C514.328 529.68 514.038 529.87 513.678 530.025C513.316 530.181 512.875 530.259 512.354 530.259ZM512.565 529.021C513.108 529.021 513.566 528.913 513.939 528.699C514.317 528.485 514.599 528.208 514.791 527.87C514.984 527.531 515.081 527.174 515.081 526.8V525.539C515.023 525.608 514.895 525.674 514.697 525.732C514.502 525.786 514.277 525.835 514.021 525.878C513.769 525.916 513.521 525.951 513.281 525.982C513.044 526.01 512.852 526.033 512.704 526.053C512.347 526.099 512.012 526.175 511.701 526.281C511.394 526.382 511.146 526.536 510.955 526.742C510.77 526.945 510.676 527.221 510.676 527.572C510.676 528.051 510.853 528.413 511.206 528.658C511.564 528.9 512.017 529.021 512.565 529.021ZM519.532 533.413C519.299 533.413 519.091 533.393 518.908 533.355C518.726 533.32 518.599 533.284 518.53 533.25L518.88 532.035C519.213 532.12 519.509 532.151 519.765 532.128C520.022 532.105 520.249 531.99 520.447 531.784C520.649 531.581 520.833 531.252 521 530.796L521.257 530.095L517.947 521.076H519.439L521.91 528.226H522.003L524.474 521.076H525.965L522.166 531.357C521.995 531.82 521.783 532.204 521.53 532.508C521.279 532.816 520.985 533.043 520.651 533.192C520.321 533.339 519.948 533.413 519.532 533.413Z" fill="white"/>
</g>
<path d="M217.032 124.335V123.421L220.463 119.664C220.866 119.224 221.198 118.842 221.459 118.517C221.719 118.189 221.912 117.881 222.037 117.594C222.166 117.303 222.23 116.998 222.23 116.68C222.23 116.315 222.142 115.998 221.966 115.731C221.793 115.463 221.556 115.257 221.255 115.112C220.954 114.966 220.615 114.893 220.24 114.893C219.84 114.893 219.492 114.977 219.195 115.142C218.9 115.304 218.672 115.533 218.509 115.827C218.35 116.121 218.27 116.466 218.27 116.863H217.073C217.073 116.254 217.214 115.719 217.494 115.258C217.775 114.798 218.157 114.44 218.641 114.182C219.129 113.926 219.675 113.797 220.28 113.797C220.889 113.797 221.43 113.926 221.9 114.182C222.371 114.44 222.739 114.787 223.007 115.223C223.274 115.66 223.407 116.145 223.407 116.68C223.407 117.062 223.338 117.436 223.199 117.802C223.064 118.164 222.827 118.568 222.488 119.015C222.154 119.458 221.688 120 221.093 120.639L218.758 123.137V123.218H223.59V124.335H217.032ZM225.22 122.203V121.167L229.788 113.939H230.539V115.543H230.032L226.58 121.004V121.086H232.732V122.203H225.22ZM230.112 124.335V121.888V121.406V113.939H231.311V124.335H230.112ZM239.933 122.385V121.837C239.933 121.459 240.012 121.111 240.167 120.797C240.326 120.479 240.556 120.225 240.858 120.035C241.162 119.842 241.531 119.746 241.964 119.746C242.404 119.746 242.773 119.842 243.071 120.035C243.369 120.225 243.593 120.479 243.745 120.797C243.897 121.111 243.974 121.459 243.974 121.837V122.385C243.974 122.764 243.897 123.113 243.74 123.431C243.588 123.745 243.361 123.999 243.06 124.193C242.762 124.382 242.397 124.476 241.964 124.476C241.523 124.476 241.154 124.382 240.852 124.193C240.551 123.999 240.323 123.745 240.167 123.431C240.012 123.113 239.933 122.764 239.933 122.385ZM240.969 121.837V122.385C240.969 122.7 241.044 122.983 241.192 123.233C241.341 123.48 241.598 123.604 241.964 123.604C242.32 123.604 242.57 123.48 242.715 123.233C242.864 122.983 242.938 122.7 242.938 122.385V121.837C242.938 121.523 242.868 121.241 242.725 120.995C242.583 120.744 242.329 120.619 241.964 120.619C241.609 120.619 241.353 120.744 241.198 120.995C241.045 121.241 240.969 121.523 240.969 121.837ZM234.756 116.437V115.888C234.756 115.509 234.834 115.162 234.99 114.847C235.149 114.529 235.379 114.275 235.68 114.087C235.984 113.893 236.353 113.797 236.786 113.797C237.227 113.797 237.596 113.893 237.893 114.087C238.191 114.275 238.416 114.529 238.568 114.847C238.72 115.162 238.797 115.509 238.797 115.888V116.437C238.797 116.815 238.718 117.164 238.563 117.482C238.411 117.797 238.184 118.051 237.883 118.243C237.585 118.433 237.219 118.528 236.786 118.528C236.346 118.528 235.976 118.433 235.675 118.243C235.374 118.051 235.145 117.797 234.99 117.482C234.834 117.164 234.756 116.815 234.756 116.437ZM235.792 115.888V116.437C235.792 116.751 235.866 117.033 236.015 117.284C236.163 117.531 236.421 117.654 236.786 117.654C237.141 117.654 237.392 117.531 237.538 117.284C237.687 117.033 237.761 116.751 237.761 116.437V115.888C237.761 115.573 237.689 115.293 237.548 115.046C237.406 114.796 237.152 114.67 236.786 114.67C236.431 114.67 236.176 114.796 236.02 115.046C235.867 115.293 235.792 115.573 235.792 115.888ZM235.142 124.335L242.289 113.939H243.446L236.299 124.335H235.142Z" fill="#05C168"/>
<path d="M211.162 120.356L206.404 115.599L206.909 115.093L207.415 115.599L202.657 120.356C202.624 120.39 202.588 120.419 202.549 120.445C202.51 120.471 202.469 120.493 202.425 120.511C202.382 120.529 202.337 120.543 202.291 120.552C202.245 120.561 202.199 120.566 202.152 120.566C202.105 120.566 202.058 120.561 202.012 120.552C201.966 120.543 201.922 120.529 201.878 120.511C201.835 120.493 201.794 120.471 201.755 120.445C201.716 120.419 201.68 120.39 201.646 120.356C201.613 120.323 201.584 120.287 201.557 120.248C201.531 120.209 201.509 120.168 201.491 120.125C201.473 120.081 201.46 120.036 201.451 119.99C201.442 119.944 201.437 119.898 201.437 119.851C201.437 119.804 201.442 119.758 201.451 119.712C201.46 119.666 201.473 119.621 201.491 119.578C201.509 119.534 201.531 119.493 201.557 119.454C201.584 119.415 201.613 119.379 201.646 119.346L206.404 114.588C206.437 114.555 206.473 114.525 206.512 114.499C206.551 114.473 206.592 114.451 206.636 114.433C206.679 114.415 206.724 114.402 206.77 114.393C206.816 114.383 206.862 114.379 206.909 114.379C206.956 114.379 207.003 114.383 207.049 114.393C207.095 114.402 207.139 114.415 207.183 114.433C207.226 114.451 207.267 114.473 207.306 114.499C207.345 114.525 207.381 114.555 207.415 114.588L212.173 119.346C212.206 119.379 212.236 119.415 212.262 119.454C212.288 119.493 212.31 119.534 212.328 119.577C212.346 119.621 212.36 119.666 212.369 119.712C212.378 119.758 212.382 119.804 212.382 119.851C212.382 119.898 212.378 119.944 212.369 119.99C212.36 120.036 212.346 120.081 212.328 120.124C212.31 120.168 212.288 120.209 212.262 120.248C212.236 120.287 212.206 120.323 212.173 120.356C212.14 120.39 212.104 120.419 212.065 120.445C212.026 120.471 211.985 120.493 211.941 120.511C211.898 120.529 211.853 120.543 211.807 120.552C211.761 120.561 211.715 120.566 211.668 120.566C211.621 120.566 211.574 120.561 211.528 120.552C211.482 120.543 211.438 120.529 211.394 120.511C211.351 120.493 211.31 120.471 211.271 120.445C211.232 120.419 211.196 120.39 211.162 120.356ZM212.382 119.851C212.382 119.898 212.377 119.944 212.368 119.99C212.359 120.036 212.346 120.081 212.328 120.124C212.31 120.168 212.287 120.209 212.261 120.248C212.235 120.287 212.206 120.323 212.172 120.356C212.139 120.389 212.104 120.419 212.065 120.445C212.026 120.471 211.985 120.493 211.941 120.511C211.898 120.529 211.853 120.542 211.807 120.551C211.761 120.56 211.715 120.565 211.668 120.565C211.621 120.565 211.575 120.56 211.529 120.551C211.483 120.542 211.438 120.528 211.395 120.51C211.351 120.492 211.31 120.471 211.271 120.444C211.232 120.418 211.196 120.389 211.163 120.356C211.13 120.323 211.1 120.287 211.074 120.248C211.048 120.209 211.026 120.167 211.008 120.124C210.99 120.081 210.977 120.036 210.968 119.99C210.959 119.944 210.954 119.898 210.954 119.851C210.954 119.804 210.959 119.758 210.968 119.712C210.977 119.666 210.99 119.621 211.008 119.578C211.026 119.535 211.048 119.493 211.074 119.455C211.1 119.416 211.13 119.379 211.163 119.346C211.196 119.313 211.232 119.284 211.271 119.258C211.31 119.232 211.351 119.21 211.395 119.192C211.438 119.174 211.483 119.16 211.529 119.151C211.575 119.142 211.621 119.137 211.668 119.137C211.715 119.137 211.761 119.142 211.807 119.151C211.853 119.16 211.898 119.174 211.941 119.192C211.984 119.21 212.025 119.232 212.064 119.258C212.103 119.284 212.139 119.313 212.172 119.346C212.206 119.379 212.235 119.416 212.261 119.455C212.287 119.493 212.31 119.534 212.328 119.577C212.346 119.621 212.359 119.666 212.368 119.712C212.377 119.758 212.382 119.804 212.382 119.851ZM202.865 119.851C202.865 119.898 202.861 119.944 202.852 119.99C202.843 120.036 202.829 120.081 202.811 120.124C202.793 120.167 202.771 120.209 202.745 120.248C202.719 120.287 202.69 120.323 202.656 120.356C202.623 120.389 202.587 120.418 202.548 120.444C202.509 120.471 202.468 120.492 202.425 120.51C202.382 120.528 202.337 120.542 202.291 120.551C202.245 120.56 202.199 120.566 202.152 120.566C202.105 120.566 202.058 120.56 202.012 120.551C201.966 120.542 201.922 120.528 201.879 120.51C201.835 120.492 201.794 120.471 201.755 120.444C201.716 120.418 201.68 120.389 201.647 120.356C201.614 120.323 201.584 120.287 201.558 120.248C201.532 120.209 201.51 120.167 201.492 120.124C201.474 120.081 201.461 120.036 201.452 119.99C201.443 119.944 201.438 119.898 201.438 119.851C201.438 119.804 201.443 119.758 201.452 119.712C201.461 119.666 201.474 119.621 201.492 119.578C201.51 119.535 201.532 119.493 201.558 119.455C201.584 119.416 201.614 119.379 201.647 119.346C201.68 119.313 201.716 119.284 201.755 119.258C201.794 119.232 201.835 119.21 201.879 119.192C201.922 119.174 201.966 119.16 202.012 119.151C202.058 119.142 202.105 119.137 202.152 119.137C202.199 119.137 202.245 119.142 202.291 119.151C202.337 119.16 202.382 119.174 202.425 119.192C202.468 119.21 202.509 119.232 202.548 119.258C202.587 119.284 202.623 119.313 202.656 119.346C202.69 119.379 202.719 119.416 202.745 119.455C202.771 119.493 202.793 119.535 202.811 119.578C202.829 119.621 202.843 119.666 202.852 119.712C202.861 119.758 202.865 119.804 202.865 119.851Z" fill="#05C168"/>
<path d="M206.194 124.258V114.135C206.194 114.089 206.199 114.042 206.208 113.996C206.217 113.95 206.231 113.905 206.249 113.862C206.267 113.819 206.289 113.777 206.315 113.738C206.341 113.699 206.37 113.663 206.404 113.63C206.437 113.597 206.473 113.567 206.512 113.541C206.551 113.515 206.592 113.493 206.636 113.475C206.679 113.457 206.724 113.444 206.77 113.435C206.816 113.425 206.862 113.421 206.909 113.421C206.956 113.421 207.002 113.425 207.048 113.435C207.094 113.444 207.139 113.457 207.183 113.475C207.226 113.493 207.267 113.515 207.306 113.541C207.345 113.567 207.381 113.597 207.414 113.63C207.448 113.663 207.477 113.699 207.503 113.738C207.529 113.777 207.551 113.819 207.569 113.862C207.587 113.905 207.601 113.95 207.61 113.996C207.619 114.042 207.624 114.089 207.624 114.135V124.258C207.624 124.305 207.619 124.351 207.61 124.397C207.601 124.443 207.587 124.488 207.569 124.532C207.551 124.575 207.529 124.616 207.503 124.655C207.477 124.694 207.448 124.73 207.414 124.763C207.381 124.797 207.345 124.826 207.306 124.852C207.267 124.878 207.226 124.9 207.183 124.918C207.139 124.936 207.094 124.95 207.048 124.959C207.002 124.968 206.956 124.973 206.909 124.973C206.862 124.973 206.816 124.968 206.77 124.959C206.724 124.95 206.679 124.936 206.636 124.918C206.592 124.9 206.551 124.878 206.512 124.852C206.473 124.826 206.437 124.797 206.404 124.763C206.37 124.73 206.341 124.694 206.315 124.655C206.289 124.616 206.267 124.575 206.249 124.532C206.231 124.488 206.217 124.443 206.208 124.397C206.199 124.351 206.194 124.305 206.194 124.258ZM207.623 124.258C207.623 124.305 207.618 124.351 207.609 124.397C207.6 124.443 207.586 124.488 207.568 124.531C207.55 124.574 207.529 124.616 207.502 124.655C207.476 124.693 207.447 124.73 207.414 124.763C207.381 124.796 207.345 124.825 207.306 124.851C207.267 124.877 207.226 124.9 207.183 124.918C207.139 124.936 207.094 124.949 207.048 124.958C207.002 124.967 206.956 124.973 206.909 124.973C206.862 124.973 206.816 124.967 206.77 124.958C206.724 124.949 206.679 124.936 206.636 124.918C206.592 124.9 206.551 124.877 206.513 124.851C206.474 124.825 206.437 124.796 206.404 124.763C206.371 124.73 206.342 124.693 206.316 124.655C206.29 124.616 206.268 124.574 206.25 124.531C206.232 124.488 206.218 124.443 206.209 124.397C206.2 124.351 206.195 124.305 206.195 124.258C206.195 124.211 206.2 124.165 206.209 124.119C206.218 124.073 206.232 124.028 206.25 123.985C206.268 123.942 206.29 123.9 206.316 123.861C206.342 123.822 206.371 123.786 206.404 123.753C206.437 123.72 206.474 123.691 206.513 123.665C206.551 123.638 206.593 123.617 206.636 123.599C206.679 123.581 206.724 123.567 206.77 123.558C206.816 123.549 206.862 123.544 206.909 123.544C206.956 123.544 207.002 123.549 207.048 123.558C207.094 123.567 207.139 123.581 207.182 123.599C207.225 123.617 207.267 123.638 207.306 123.665C207.345 123.691 207.381 123.72 207.414 123.753C207.447 123.786 207.476 123.822 207.502 123.861C207.529 123.9 207.55 123.942 207.568 123.985C207.586 124.028 207.6 124.073 207.609 124.119C207.618 124.165 207.623 124.211 207.623 124.258ZM207.623 114.135C207.623 114.182 207.618 114.229 207.609 114.275C207.6 114.321 207.586 114.365 207.568 114.409C207.55 114.452 207.529 114.493 207.502 114.532C207.476 114.571 207.447 114.607 207.414 114.64C207.381 114.673 207.345 114.703 207.306 114.729C207.267 114.755 207.225 114.777 207.182 114.795C207.139 114.813 207.094 114.826 207.048 114.835C207.002 114.845 206.956 114.849 206.909 114.849C206.862 114.849 206.816 114.845 206.77 114.835C206.724 114.826 206.679 114.813 206.636 114.795C206.593 114.777 206.551 114.755 206.513 114.729C206.474 114.703 206.437 114.673 206.404 114.64C206.371 114.607 206.342 114.571 206.316 114.532C206.29 114.493 206.268 114.452 206.25 114.409C206.232 114.365 206.218 114.321 206.209 114.275C206.2 114.229 206.195 114.182 206.195 114.135C206.195 114.089 206.2 114.042 206.209 113.996C206.218 113.95 206.232 113.906 206.25 113.862C206.268 113.819 206.29 113.778 206.316 113.739C206.342 113.7 206.371 113.664 206.404 113.631C206.437 113.598 206.474 113.568 206.513 113.542C206.551 113.516 206.592 113.493 206.636 113.475C206.679 113.457 206.724 113.445 206.77 113.435C206.816 113.426 206.862 113.421 206.909 113.421C206.956 113.421 207.002 113.426 207.048 113.435C207.094 113.445 207.139 113.457 207.183 113.475C207.226 113.493 207.267 113.516 207.306 113.542C207.345 113.568 207.381 113.598 207.414 113.631C207.447 113.664 207.476 113.7 207.502 113.739C207.529 113.778 207.55 113.819 207.568 113.862C207.586 113.906 207.6 113.95 207.609 113.996C207.618 114.042 207.623 114.089 207.623 114.135Z" fill="#05C168"/>
<path d="M50.671 119.893C50.671 118.843 50.2878 117.958 49.5214 117.239C48.763 116.52 47.4752 115.868 45.6582 115.284C43.1379 114.533 41.2972 113.553 40.1358 112.345C38.9823 111.136 38.4056 109.603 38.4056 107.747C38.4056 105.858 38.9705 104.31 40.1002 103.101C41.2379 101.884 42.7943 101.162 44.7694 100.932V97.0455H47.4239V100.956C49.4148 101.225 50.9633 102.058 52.0693 103.457C53.1754 104.855 53.7284 106.771 53.7284 109.204H50.4577C50.4577 107.529 50.0587 106.202 49.2607 105.222C48.4707 104.235 47.4002 103.741 46.0492 103.741C44.643 103.741 43.5646 104.093 42.814 104.796C42.0714 105.491 41.7001 106.463 41.7001 107.711C41.7001 108.864 42.0911 109.785 42.8733 110.472C43.6633 111.16 44.963 111.784 46.7722 112.345C48.5813 112.906 49.9915 113.534 51.0028 114.229C52.0141 114.916 52.7606 115.718 53.2426 116.635C53.7245 117.551 53.9654 118.625 53.9654 119.858C53.9654 121.817 53.361 123.397 52.1523 124.598C50.9514 125.791 49.2686 126.498 47.1039 126.719V130.109H44.4731V126.719C42.2689 126.514 40.5387 125.728 39.2825 124.361C38.0343 122.994 37.4102 121.138 37.4102 118.791H40.7046C40.7046 120.435 41.1352 121.703 41.9963 122.595C42.8654 123.48 44.0939 123.923 45.6818 123.923C47.2303 123.923 48.447 123.563 49.3318 122.844C50.2246 122.125 50.671 121.142 50.671 119.893ZM70.9947 100.932V103.729H70.3903C67.8306 103.777 65.7923 104.559 64.2754 106.076C62.7586 107.585 61.8816 109.686 61.6446 112.38C63.0035 110.816 64.864 110.034 67.2262 110.034C69.4779 110.034 71.2752 110.8 72.6183 112.333C73.9613 113.858 74.6329 115.829 74.6329 118.246C74.6329 120.814 73.906 122.868 72.4524 124.409C71.0066 125.949 69.0631 126.719 66.6219 126.719C64.1411 126.719 62.1305 125.787 60.5899 123.923C59.0493 122.05 58.279 119.641 58.279 116.694V115.461C58.279 110.784 59.2943 107.209 61.3247 104.736C63.363 102.256 66.3888 100.988 70.4022 100.932H70.9947ZM66.6693 112.771C65.5474 112.771 64.5124 113.091 63.5644 113.731C62.6164 114.371 61.9567 115.173 61.5854 116.137V117.274C61.5854 119.289 62.0633 120.913 63.0193 122.145C63.9831 123.377 65.184 123.994 66.6219 123.994C68.0993 123.994 69.2606 123.48 70.106 122.453C70.9592 121.418 71.3858 120.067 71.3858 118.4C71.3858 116.717 70.9552 115.359 70.0941 114.324C69.233 113.289 68.0914 112.771 66.6693 112.771ZM94.2575 107.936C94.2575 109.208 93.9178 110.342 93.2383 111.337C92.5589 112.325 91.6385 113.099 90.4771 113.66C91.8281 114.213 92.8947 115.023 93.6768 116.089C94.4669 117.156 94.8619 118.361 94.8619 119.704C94.8619 121.845 94.1074 123.551 92.5984 124.823C91.0894 126.087 89.1025 126.719 86.6375 126.719C84.1489 126.719 82.154 126.083 80.653 124.811C79.1519 123.532 78.4014 121.829 78.4014 119.704C78.4014 118.369 78.7845 117.164 79.5509 116.089C80.3172 115.007 81.3759 114.189 82.7268 113.636C81.5734 113.075 80.6648 112.301 80.0012 111.314C79.3376 110.318 79.0058 109.192 79.0058 107.936C79.0058 105.787 79.7049 104.085 81.1033 102.829C82.5017 101.565 84.3464 100.932 86.6375 100.932C88.9128 100.932 90.7497 101.565 92.1481 102.829C93.5543 104.085 94.2575 105.787 94.2575 107.936ZM91.5792 119.609C91.5792 118.25 91.1171 117.144 90.1928 116.291C89.2763 115.438 88.0755 115.011 86.5902 115.011C85.1128 115.011 83.9277 115.434 83.035 116.279C82.1422 117.116 81.6958 118.226 81.6958 119.609C81.6958 120.984 82.1303 122.066 82.9994 122.856C83.8685 123.638 85.0812 124.029 86.6375 124.029C88.1781 124.029 89.3869 123.634 90.2638 122.844C91.1408 122.046 91.5792 120.968 91.5792 119.609ZM86.6375 103.634C85.3419 103.634 84.2951 104.025 83.4971 104.808C82.6992 105.59 82.3002 106.652 82.3002 107.995C82.3002 109.283 82.6913 110.326 83.4734 111.124C84.2635 111.914 85.3143 112.309 86.6257 112.309C87.9451 112.309 88.9998 111.914 89.7898 111.124C90.5799 110.326 90.9749 109.283 90.9749 107.995C90.9749 106.708 90.5641 105.661 89.7424 104.855C88.9286 104.041 87.8937 103.634 86.6375 103.634ZM99.2703 132.028L97.4098 130.725C98.5237 129.145 99.1044 127.517 99.1517 125.842V122.821H102.363V125.439C102.363 126.664 102.071 127.885 101.486 129.101C100.902 130.318 100.163 131.294 99.2703 132.028ZM119.748 118.377H123.339V121.067H119.748V126.719H116.442V121.067H104.662V119.123L116.252 100.932H119.748V118.377ZM108.395 118.377H116.442V105.412L116.051 106.135L108.395 118.377ZM127.854 113.956L129.169 100.932H142.43V103.978H131.966L131.184 111.148C132.448 110.405 133.886 110.034 135.498 110.034C137.86 110.034 139.732 110.788 141.115 112.297C142.505 113.798 143.2 115.833 143.2 118.4C143.2 120.976 142.477 123.006 141.031 124.491C139.594 125.977 137.583 126.719 135 126.719C132.716 126.719 130.852 126.087 129.406 124.823C127.961 123.551 127.135 121.794 126.93 119.55H130.046C130.244 121.027 130.769 122.145 131.623 122.903C132.476 123.654 133.602 124.029 135 124.029C136.532 124.029 137.734 123.535 138.603 122.548C139.471 121.552 139.906 120.182 139.906 118.436C139.906 116.793 139.436 115.473 138.495 114.478C137.555 113.482 136.303 112.985 134.739 112.985C133.301 112.985 132.176 113.301 131.362 113.933L130.485 114.644L127.854 113.956ZM159.732 100.932V103.729H159.128C156.568 103.777 154.529 104.559 153.012 106.076C151.496 107.585 150.619 109.686 150.382 112.38C151.741 110.816 153.601 110.034 155.963 110.034C158.215 110.034 160.013 110.8 161.356 112.333C162.699 113.858 163.371 115.829 163.371 118.246C163.371 120.814 162.643 122.868 161.189 124.409C159.744 125.949 157.801 126.719 155.36 126.719C152.878 126.719 150.867 125.787 149.327 123.923C147.786 122.05 147.016 119.641 147.016 116.694V115.461C147.016 110.784 148.031 107.209 150.062 104.736C152.1 102.256 155.126 100.988 159.14 100.932H159.732ZM155.407 112.771C154.285 112.771 153.25 113.091 152.302 113.731C151.354 114.371 150.694 115.173 150.322 116.137V117.274C150.322 119.289 150.8 120.913 151.756 122.145C152.72 123.377 153.921 123.994 155.36 123.994C156.837 123.994 157.998 123.48 158.843 122.453C159.696 121.418 160.123 120.067 160.123 118.4C160.123 116.717 159.692 115.359 158.831 114.324C157.971 113.289 156.829 112.771 155.407 112.771ZM183.528 115.675C183.528 119.404 182.869 122.177 181.549 123.994C180.237 125.811 178.183 126.719 175.386 126.719C172.629 126.719 170.587 125.835 169.26 124.065C167.932 122.287 167.245 119.633 167.198 116.101V111.847C167.198 108.157 167.854 105.416 169.165 103.623C170.484 101.829 172.546 100.932 175.351 100.932C178.14 100.932 180.19 101.798 181.501 103.528C182.821 105.258 183.497 107.928 183.528 111.539V115.675ZM180.245 111.325C180.245 108.647 179.854 106.696 179.073 105.471C178.29 104.247 177.05 103.634 175.351 103.634C173.668 103.634 172.44 104.247 171.665 105.471C170.899 106.688 170.504 108.56 170.48 111.088V116.149C170.48 118.835 170.887 120.822 171.701 122.109C172.515 123.389 173.744 124.029 175.386 124.029C177.014 124.029 178.219 123.425 179.001 122.216C179.791 121.007 180.206 119.103 180.245 116.504V111.325Z" fill="white"/>
<path d="M344.898 121.461C365.533 121.461 382.261 104.733 382.261 84.0984C382.261 63.4633 365.533 46.7353 344.898 46.7353C324.263 46.7353 307.535 63.4633 307.535 84.0984C307.535 104.733 324.263 121.461 344.898 121.461Z" stroke="#2D313A" stroke-width="9.58027"/>
<path d="M472.315 121.461C492.95 121.461 509.678 104.733 509.678 84.0984C509.678 63.4633 492.95 46.7353 472.315 46.7353C451.68 46.7353 434.952 63.4633 434.952 84.0984C434.952 104.733 451.68 121.461 472.315 121.461Z" stroke="#2D313A" stroke-width="9.58027"/>
<path d="M472.315 39.0711C478.419 39.0711 484.262 40.2516 489.844 42.6127C495.232 44.8916 500.002 48.1071 504.155 52.2593C508.307 56.4115 511.522 61.1815 513.801 66.5694C516.162 72.1516 517.343 77.9946 517.343 84.0984C517.343 90.2022 516.162 96.0452 513.801 101.627C511.522 107.015 508.307 111.785 504.155 115.937C500.002 120.09 495.232 123.305 489.844 125.584C484.262 127.945 478.419 129.126 472.315 129.126C466.212 129.126 460.369 127.945 454.786 125.584C449.399 123.305 444.628 120.09 440.476 115.937L451.315 105.099C454.058 107.841 457.205 109.964 460.758 111.467C464.431 113.02 468.284 113.797 472.315 113.797C476.347 113.797 480.2 113.02 483.873 111.467C487.425 109.964 490.573 107.841 493.316 105.099C496.059 102.356 498.181 99.2084 499.684 95.6561C501.237 91.9826 502.014 88.13 502.014 84.0984C502.014 80.0668 501.237 76.2142 499.684 72.5407C498.181 68.9884 496.059 65.8409 493.316 63.0981C490.573 60.3554 487.425 58.2327 483.873 56.7302C480.2 55.1764 476.347 54.3995 472.315 54.3995V39.0711Z" fill="#FFCB50"/>
<path d="M344.898 39.0711C351.001 39.0711 356.845 40.2516 362.427 42.6127C367.815 44.8916 372.585 48.1071 376.737 52.2593C380.889 56.4115 384.104 61.1815 386.383 66.5694C388.744 72.1516 389.925 77.9946 389.925 84.0984H374.597C374.597 80.0669 373.82 76.2143 372.266 72.5407C370.763 68.9884 368.641 65.8409 365.898 63.0981C363.155 60.3554 360.008 58.2327 356.455 56.7302C352.782 55.1764 348.929 54.3995 344.898 54.3995V39.0711Z" fill="#05C168"/>
</g>
</g>
<defs>
<linearGradient id="paint0_linear_1_1992" x1="306.097" y1="151.372" x2="306.097" y2="439.125" gradientUnits="userSpaceOnUse">
<stop stop-color="#460BF9"/>
<stop offset="1" stop-color="#5291FF" stop-opacity="0"/>
</linearGradient>
<clipPath id="clip0_1_1992">
<rect width="570.984" height="558.53" fill="white" transform="translate(0.0078125 0.75)"/>
</clipPath>
</defs>
</svg>
