<svg width="571" height="559" viewBox="0 0 571 559" fill="none" xmlns="http://www.w3.org/2000/svg">
<g clip-path="url(#clip0_1_2053)">
<mask id="mask0_1_2053" style="mask-type:luminance" maskUnits="userSpaceOnUse" x="0" y="0" width="571" height="559">
<path d="M570.992 0.280029H0.0078125V558.81H570.992V0.280029Z" fill="white"/>
</mask>
<g mask="url(#mask0_1_2053)">
<path d="M570.992 0.280029H0.0078125V558.81H570.992V0.280029Z" fill="#151A24"/>
<path fill-rule="evenodd" clip-rule="evenodd" d="M515.427 263.141V514.741C515.427 514.992 515.421 515.242 515.408 515.493C515.396 515.743 515.377 515.993 515.353 516.243C515.328 516.493 515.298 516.742 515.261 516.99C515.224 517.238 515.181 517.485 515.132 517.731C515.083 517.977 515.028 518.222 514.967 518.466C514.906 518.709 514.839 518.951 514.767 519.191C514.694 519.43 514.615 519.668 514.531 519.905C514.446 520.141 514.356 520.375 514.26 520.607C514.164 520.839 514.062 521.068 513.955 521.295C513.848 521.521 513.735 521.745 513.617 521.966C513.498 522.188 513.375 522.406 513.246 522.622C513.117 522.837 512.983 523.048 512.843 523.257C512.704 523.466 512.56 523.671 512.41 523.872C512.261 524.074 512.106 524.271 511.947 524.465C511.788 524.659 511.624 524.849 511.456 525.035C511.287 525.221 511.114 525.402 510.937 525.58C510.76 525.757 510.578 525.93 510.392 526.098C510.206 526.267 510.016 526.431 509.823 526.59C509.629 526.749 509.431 526.903 509.229 527.052C509.028 527.202 508.823 527.346 508.614 527.485C508.406 527.625 508.194 527.76 507.979 527.889C507.763 528.018 507.545 528.141 507.324 528.26C507.103 528.378 506.879 528.49 506.652 528.598C506.425 528.705 506.196 528.807 505.964 528.902C505.732 528.998 505.498 529.089 505.262 529.173C505.026 529.258 504.788 529.336 504.548 529.409C504.308 529.482 504.066 529.549 503.823 529.609C503.579 529.671 503.335 529.726 503.089 529.775C502.843 529.824 502.596 529.866 502.347 529.904C502.099 529.94 501.85 529.971 501.601 529.995C501.351 530.02 501.101 530.038 500.85 530.051C500.6 530.063 500.349 530.069 500.098 530.069H168.621C168.37 530.069 168.119 530.063 167.869 530.051C167.618 530.038 167.368 530.02 167.119 529.995C166.869 529.971 166.62 529.94 166.371 529.904C166.123 529.866 165.877 529.824 165.631 529.775C165.384 529.726 165.139 529.671 164.896 529.609C164.653 529.549 164.411 529.482 164.171 529.409C163.931 529.336 163.693 529.258 163.457 529.173C163.221 529.089 162.987 528.998 162.755 528.902C162.523 528.807 162.294 528.705 162.067 528.598C161.84 528.49 161.616 528.378 161.395 528.26C161.174 528.141 160.955 528.018 160.74 527.889C160.525 527.76 160.313 527.625 160.105 527.485C159.896 527.346 159.691 527.202 159.49 527.052C159.288 526.903 159.09 526.749 158.897 526.59C158.703 526.431 158.513 526.267 158.327 526.098C158.141 525.93 157.959 525.757 157.782 525.58C157.605 525.402 157.432 525.221 157.263 525.035C157.095 524.849 156.931 524.659 156.772 524.465C156.613 524.271 156.459 524.074 156.309 523.872C156.16 523.671 156.015 523.466 155.876 523.257C155.736 523.048 155.602 522.837 155.473 522.622C155.344 522.406 155.22 522.188 155.102 521.966C154.984 521.745 154.871 521.521 154.764 521.295C154.657 521.068 154.555 520.839 154.459 520.607C154.363 520.375 154.273 520.141 154.188 519.905C154.104 519.668 154.025 519.43 153.952 519.191C153.88 518.951 153.813 518.709 153.752 518.466C153.691 518.222 153.636 517.977 153.586 517.731C153.538 517.485 153.495 517.238 153.458 516.99C153.422 516.742 153.391 516.493 153.366 516.243C153.342 515.993 153.323 515.743 153.31 515.493C153.298 515.242 153.292 514.992 153.292 514.741V199.55C153.292 199.299 153.298 199.048 153.31 198.798C153.323 198.547 153.342 198.297 153.366 198.047C153.391 197.798 153.422 197.549 153.458 197.301C153.495 197.052 153.538 196.805 153.586 196.559C153.636 196.313 153.691 196.069 153.752 195.825C153.813 195.582 153.88 195.34 153.952 195.1C154.025 194.86 154.104 194.622 154.188 194.386C154.273 194.15 154.363 193.916 154.459 193.684C154.555 193.452 154.657 193.223 154.764 192.996C154.871 192.769 154.984 192.545 155.102 192.324C155.22 192.103 155.344 191.885 155.473 191.669C155.602 191.454 155.736 191.242 155.876 191.034C156.015 190.825 156.16 190.62 156.309 190.419C156.459 190.217 156.613 190.019 156.772 189.826C156.931 189.632 157.095 189.442 157.263 189.256C157.432 189.07 157.605 188.888 157.782 188.711C157.959 188.534 158.141 188.361 158.327 188.192C158.513 188.024 158.703 187.86 158.897 187.701C159.09 187.542 159.288 187.387 159.49 187.238C159.691 187.088 159.896 186.944 160.105 186.805C160.313 186.665 160.525 186.531 160.74 186.402C160.955 186.273 161.174 186.15 161.395 186.031C161.616 185.913 161.84 185.8 162.067 185.693C162.294 185.586 162.523 185.484 162.755 185.388C162.987 185.292 163.221 185.202 163.457 185.117C163.693 185.033 163.931 184.954 164.171 184.881C164.411 184.809 164.653 184.742 164.896 184.681C165.139 184.62 165.384 184.565 165.631 184.516C165.877 184.467 166.123 184.424 166.371 184.387C166.62 184.35 166.869 184.32 167.119 184.295C167.368 184.271 167.618 184.252 167.869 184.24C168.119 184.227 168.37 184.221 168.621 184.221H500.098C500.349 184.221 500.6 184.227 500.85 184.24C501.101 184.252 501.351 184.271 501.601 184.295C501.85 184.32 502.099 184.35 502.347 184.387C502.596 184.424 502.843 184.467 503.089 184.516C503.335 184.565 503.579 184.62 503.823 184.681C504.066 184.742 504.308 184.809 504.548 184.881C504.788 184.954 505.026 185.033 505.262 185.117C505.498 185.202 505.732 185.292 505.964 185.388C506.196 185.484 506.425 185.586 506.652 185.693C506.879 185.8 507.103 185.913 507.324 186.031C507.545 186.15 507.763 186.273 507.979 186.402C508.194 186.531 508.406 186.665 508.614 186.805C508.823 186.944 509.028 187.088 509.229 187.238C509.431 187.387 509.629 187.542 509.823 187.701C510.016 187.86 510.206 188.024 510.392 188.192C510.578 188.361 510.76 188.534 510.937 188.711C511.114 188.888 511.287 189.07 511.456 189.256C511.624 189.442 511.788 189.632 511.947 189.826C512.106 190.019 512.261 190.217 512.41 190.419C512.56 190.62 512.704 190.825 512.843 191.034C512.983 191.242 513.117 191.454 513.246 191.669C513.375 191.885 513.498 192.103 513.617 192.324C513.735 192.545 513.848 192.769 513.955 192.996C514.062 193.223 514.164 193.452 514.26 193.684C514.356 193.916 514.446 194.15 514.531 194.386C514.615 194.622 514.694 194.86 514.767 195.1C514.839 195.34 514.906 195.582 514.967 195.825C515.028 196.069 515.083 196.313 515.132 196.559C515.181 196.805 515.224 197.052 515.261 197.301C515.298 197.549 515.328 197.798 515.353 198.047C515.377 198.297 515.396 198.547 515.408 198.798C515.421 199.048 515.427 199.299 515.427 199.55V226.013L544.167 244.577L515.427 263.141Z" fill="#460BF9"/>
<path fill-rule="evenodd" clip-rule="evenodd" d="M65.1536 110.535V132.488C65.1536 132.739 65.1598 132.989 65.1721 133.24C65.1844 133.49 65.2028 133.741 65.2274 133.99C65.252 134.24 65.2827 134.489 65.3196 134.737C65.3563 134.985 65.3992 135.232 65.4481 135.478C65.4971 135.724 65.5521 135.969 65.613 136.213C65.6739 136.456 65.7408 136.698 65.8137 136.938C65.8865 137.177 65.9652 137.415 66.0497 137.652C66.1342 137.888 66.2244 138.122 66.3204 138.354C66.4164 138.586 66.518 138.815 66.6253 139.042C66.7326 139.268 66.8453 139.492 66.9636 139.713C67.0818 139.935 67.2054 140.153 67.3344 140.368C67.4634 140.584 67.5976 140.795 67.7369 141.004C67.8763 141.213 68.0207 141.418 68.1702 141.619C68.3196 141.821 68.4739 142.018 68.633 142.212C68.7921 142.406 68.956 142.596 69.1245 142.782C69.2929 142.968 69.4659 143.149 69.6432 143.327C69.8206 143.504 70.0022 143.677 70.1882 143.845C70.374 144.014 70.5639 144.178 70.7578 144.337C70.9517 144.496 71.1494 144.65 71.3509 144.799C71.5524 144.949 71.7575 145.093 71.9661 145.232C72.1747 145.372 72.3865 145.507 72.6017 145.636C72.8168 145.765 73.035 145.888 73.2563 146.006C73.4775 146.125 73.7015 146.237 73.9283 146.345C74.1551 146.452 74.3844 146.554 74.6162 146.649C74.8479 146.745 75.0819 146.836 75.3181 146.92C75.5543 147.005 75.7924 147.083 76.0324 147.156C76.2725 147.229 76.5142 147.296 76.7575 147.357C77.0009 147.418 77.2456 147.473 77.4917 147.522C77.7377 147.571 77.9848 147.613 78.2329 147.65C78.481 147.687 78.7299 147.718 78.9796 147.742C79.2293 147.767 79.4794 147.785 79.7299 147.798C79.9805 147.81 80.2312 147.816 80.4821 147.816H411.96C412.211 147.816 412.461 147.81 412.712 147.798C412.962 147.785 413.212 147.767 413.462 147.742C413.711 147.718 413.961 147.687 414.209 147.65C414.457 147.613 414.704 147.571 414.95 147.522C415.196 147.473 415.441 147.418 415.684 147.356C415.928 147.296 416.169 147.229 416.41 147.156C416.649 147.083 416.887 147.005 417.123 146.92C417.36 146.836 417.594 146.745 417.826 146.649C418.057 146.554 418.287 146.452 418.513 146.345C418.74 146.237 418.964 146.125 419.185 146.006C419.407 145.888 419.625 145.765 419.84 145.636C420.055 145.507 420.267 145.372 420.475 145.232C420.684 145.093 420.889 144.949 421.091 144.799C421.292 144.65 421.49 144.496 421.684 144.337C421.878 144.178 422.068 144.014 422.254 143.845C422.439 143.677 422.621 143.504 422.799 143.327C422.976 143.149 423.148 142.968 423.317 142.782C423.486 142.596 423.649 142.406 423.808 142.212C423.967 142.018 424.122 141.821 424.271 141.619C424.421 141.418 424.565 141.213 424.704 141.004C424.844 140.795 424.979 140.584 425.108 140.368C425.237 140.153 425.36 139.935 425.478 139.713C425.596 139.492 425.709 139.268 425.816 139.042C425.924 138.815 426.025 138.586 426.121 138.354C426.217 138.122 426.307 137.888 426.392 137.652C426.477 137.415 426.555 137.177 426.628 136.938C426.701 136.698 426.767 136.456 426.828 136.213C426.889 135.969 426.945 135.724 426.994 135.478C427.042 135.232 427.085 134.985 427.122 134.737C427.159 134.489 427.189 134.24 427.214 133.99C427.238 133.741 427.257 133.49 427.27 133.24C427.282 132.989 427.288 132.739 427.288 132.488V53.9295C427.288 53.6786 427.282 53.4279 427.27 53.1774C427.257 52.9268 427.238 52.6767 427.214 52.427C427.189 52.1774 427.159 51.9285 427.122 51.6804C427.085 51.4322 427.042 51.1851 426.994 50.9391C426.945 50.693 426.889 50.4483 426.828 50.205C426.767 49.9617 426.701 49.7199 426.628 49.4799C426.555 49.2398 426.477 49.0017 426.392 48.7656C426.307 48.5293 426.217 48.2953 426.121 48.0636C426.025 47.8318 425.924 47.6025 425.816 47.3758C425.709 47.149 425.596 46.925 425.478 46.7037C425.36 46.4825 425.237 46.2643 425.108 46.0491C424.979 45.834 424.844 45.6221 424.704 45.4135C424.565 45.2049 424.421 44.9999 424.271 44.7984C424.122 44.5969 423.967 44.3992 423.808 44.2053C423.649 44.0113 423.486 43.8214 423.317 43.6356C423.148 43.4497 422.976 43.2681 422.799 43.0907C422.621 42.9133 422.439 42.7404 422.254 42.5719C422.068 42.4034 421.878 42.2396 421.684 42.0805C421.49 41.9213 421.292 41.767 421.091 41.6176C420.889 41.4682 420.684 41.3238 420.475 41.1844C420.267 41.045 420.055 40.9108 419.84 40.7819C419.625 40.6529 419.407 40.5293 419.185 40.411C418.964 40.2928 418.74 40.18 418.513 40.0728C418.287 39.9655 418.057 39.8639 417.826 39.7679C417.594 39.6719 417.36 39.5816 417.123 39.4971C416.887 39.4126 416.649 39.3339 416.41 39.2611C416.169 39.1883 415.928 39.1214 415.684 39.0604C415.441 38.9995 415.196 38.9445 414.95 38.8956C414.704 38.8467 414.457 38.8038 414.209 38.767C413.961 38.7302 413.711 38.6995 413.462 38.6749C413.212 38.6503 412.962 38.6318 412.712 38.6195C412.461 38.6072 412.211 38.6011 411.96 38.6011H80.4821C80.2312 38.6011 79.9805 38.6072 79.7299 38.6195C79.4794 38.6318 79.2293 38.6503 78.9796 38.6749C78.7299 38.6995 78.481 38.7302 78.2329 38.767C77.9848 38.8038 77.7377 38.8467 77.4917 38.8956C77.2456 38.9445 77.0009 38.9995 76.7575 39.0604C76.5142 39.1214 76.2725 39.1883 76.0324 39.2611C75.7924 39.3339 75.5543 39.4126 75.3181 39.4971C75.0819 39.5816 74.8479 39.6719 74.6162 39.7679C74.3844 39.8639 74.1551 39.9655 73.9283 40.0728C73.7015 40.18 73.4775 40.2928 73.2563 40.411C73.0351 40.5293 72.8169 40.6529 72.6017 40.7819C72.3865 40.9108 72.1747 41.045 71.9661 41.1844C71.7575 41.3238 71.5524 41.4682 71.3509 41.6176C71.1494 41.767 70.9517 41.9213 70.7578 42.0805C70.5639 42.2396 70.374 42.4034 70.1882 42.5719C70.0022 42.7404 69.8206 42.9133 69.6432 43.0907C69.4659 43.2681 69.2929 43.4497 69.1245 43.6356C68.956 43.8214 68.7921 44.0113 68.633 44.2053C68.4739 44.3992 68.3196 44.5969 68.1702 44.7984C68.0207 44.9999 67.8763 45.2049 67.7369 45.4135C67.5976 45.6221 67.4634 45.834 67.3344 46.0491C67.2054 46.2643 67.0818 46.4825 66.9636 46.7037C66.8453 46.925 66.7326 47.149 66.6253 47.3758C66.518 47.6025 66.4164 47.8318 66.3204 48.0636C66.2244 48.2953 66.1342 48.5293 66.0497 48.7656C65.9652 49.0017 65.8865 49.2398 65.8137 49.4799C65.7408 49.7199 65.6739 49.9617 65.613 50.205C65.5521 50.4483 65.4971 50.693 65.4481 50.9391C65.3992 51.1851 65.3563 51.4322 65.3196 51.6804C65.2827 51.9285 65.252 52.1774 65.2274 52.427C65.2028 52.6767 65.1844 52.9268 65.1721 53.1774C65.1598 53.4279 65.1536 53.6786 65.1536 53.9295V75.8822L38.3289 93.2086L65.1536 110.535Z" fill="#21252F"/>
<path d="M101.179 81.2228V66.9721H99.2075V73.1086H91.925V66.9721H89.9538V81.2228H91.925V74.9357H99.2075V81.2228H101.179ZM106.294 81.2228V71.5826H104.421V81.2228H106.294ZM104.001 67.9217C104.001 68.6683 104.604 69.2708 105.35 69.2708C106.11 69.2708 106.719 68.6683 106.719 67.9217C106.719 67.162 106.11 66.553 105.35 66.553C104.604 66.553 104.001 67.162 104.001 67.9217ZM109.254 79.9589C109.254 80.7577 109.856 81.2228 110.596 81.2228C110.819 81.2228 110.983 81.1704 111.042 81.1311C111.022 82.0414 110.36 82.9649 109.372 83.1744V84.1567C110.616 84.0061 112.351 82.9649 112.351 80.4827C112.351 79.3039 111.585 78.708 110.721 78.708C109.876 78.708 109.254 79.2908 109.254 79.9589ZM124.415 72.9186C126.065 72.9186 126.766 74.0582 127.008 75.0274L128.717 74.2873C128.318 72.7745 126.988 71.1635 124.415 71.1635C121.658 71.1635 119.542 73.2919 119.542 76.3961C119.542 79.4218 121.618 81.6419 124.434 81.6419C126.949 81.6419 128.337 80.0178 128.803 78.5901L127.132 77.8435C126.91 78.6294 126.242 79.8933 124.434 79.8933C122.863 79.8933 121.474 78.6752 121.474 76.3961C121.474 74.0778 122.882 72.9186 124.415 72.9186ZM130.224 78.7145C130.224 80.2797 131.494 81.6419 133.465 81.6419C135.194 81.6419 136.157 80.7185 136.583 80.0374C136.583 80.6334 136.642 81.0001 136.681 81.2489H138.534C138.495 81.0001 138.417 80.4958 138.417 79.6379V74.7327C138.417 72.8139 137.283 71.1635 134.389 71.1635C132.3 71.1635 130.63 72.4537 130.427 74.3201L132.234 74.7524C132.359 73.6128 133.099 72.7745 134.428 72.7745C135.895 72.7745 136.524 73.567 136.524 74.5297C136.524 74.8702 136.36 75.178 135.777 75.2567L133.164 75.6495C131.494 75.8918 130.224 76.8677 130.224 78.6163V78.7145ZM133.727 80.057C132.758 80.057 132.156 79.3497 132.156 78.6098C132.156 77.7191 132.758 77.241 133.564 77.1166L136.524 76.6647V77.1166C136.524 79.2908 135.273 80.057 133.727 80.057ZM143.197 75.5645C143.197 74.0778 143.963 72.8793 145.45 72.8793C147.14 72.8793 147.703 73.9796 147.703 75.3417V81.2228H149.596V75.0143C149.596 72.8335 148.45 71.1635 146.138 71.1635C145.011 71.1635 143.859 71.6285 143.158 72.8335V71.5826H141.305V81.2228H143.197V75.5645ZM160.068 85.4141L166.368 71.5826H164.331L161.436 78.3216L158.417 71.5826H156.243L160.408 80.2667L157.998 85.4141H160.068ZM172.275 79.9522C170.664 79.9522 169.256 78.7145 169.256 76.3961C169.256 74.0974 170.664 72.8597 172.275 72.8597C173.886 72.8597 175.294 74.0974 175.294 76.3961C175.294 78.7145 173.886 79.9522 172.275 79.9522ZM172.275 71.1635C169.38 71.1635 167.324 73.3705 167.324 76.3961C167.324 79.4349 169.38 81.6419 172.275 81.6419C175.176 81.6419 177.226 79.4349 177.226 76.3961C177.226 73.3705 175.176 71.1635 172.275 71.1635ZM185.825 80.057C185.825 80.4631 185.864 81.0066 185.903 81.2228H187.718C187.679 80.8822 187.619 80.2011 187.619 79.4349V71.5826H185.726V77.3916C185.726 78.8586 184.961 79.8606 183.434 79.8606C181.843 79.8606 181.241 78.6948 181.241 77.372V71.5826H179.348V77.6535C179.348 79.9522 180.717 81.6419 182.969 81.6419C184.096 81.6419 185.301 81.1835 185.825 80.175V80.057ZM194.889 78.7931C195.053 79.9326 196.179 81.6419 198.831 81.6419C201.228 81.6419 202.374 80.0178 202.374 78.6098C202.374 77.1427 201.451 76.0425 199.696 75.6495L198.131 75.2959C197.383 75.1322 197.023 74.6999 197.023 74.0974C197.023 73.4164 197.665 72.7745 198.628 72.7745C200.161 72.7745 200.56 73.9141 200.645 74.4314L202.315 73.7896C202.112 72.899 201.287 71.1635 198.628 71.1635C196.742 71.1635 195.19 72.5781 195.19 74.2677C195.19 75.6692 196.094 76.7236 197.607 77.0576L199.257 77.4309C200.062 77.6143 200.501 78.0923 200.501 78.7145C200.501 79.4153 199.918 80.0374 198.851 80.0374C197.482 80.0374 196.722 79.2056 196.598 78.171L194.889 78.7931ZM206.906 75.4662C206.945 74.0189 207.712 72.8793 209.159 72.8793C210.848 72.8793 211.412 73.9796 211.412 75.3417V81.2228H213.305V75.0143C213.305 72.8335 212.158 71.1635 209.846 71.1635C208.74 71.1635 207.613 71.5499 206.906 72.5781V66.553H205.013V81.2228H206.906V75.4662ZM220.476 79.9522C218.864 79.9522 217.457 78.7145 217.457 76.3961C217.457 74.0974 218.864 72.8597 220.476 72.8597C222.087 72.8597 223.494 74.0974 223.494 76.3961C223.494 78.7145 222.087 79.9522 220.476 79.9522ZM220.476 71.1635C217.581 71.1635 215.525 73.3705 215.525 76.3961C215.525 79.4349 217.581 81.6419 220.476 81.6419C223.377 81.6419 225.427 79.4349 225.427 76.3961C225.427 73.3705 223.377 71.1635 220.476 71.1635ZM233.102 71.5826L230.588 78.8389L228.413 71.5826H226.344L229.519 81.2228H231.511L234.026 73.8879L236.599 81.2228H238.551L241.694 71.5826H239.703L237.569 78.8389L235.054 71.5826H233.102ZM250.476 81.2228V75.4204C250.476 73.973 251.381 72.971 252.73 72.971C254.177 72.971 254.78 73.9337 254.78 75.178V81.2228H256.672V75.3941C256.672 74.0123 257.582 72.971 258.905 72.971C260.332 72.971 260.962 73.9141 260.962 75.178V81.2228H262.828V74.975C262.828 72.3161 261.177 71.1635 259.488 71.1635C258.263 71.1635 257.013 71.6088 256.253 72.9972C255.729 71.7529 254.563 71.1635 253.351 71.1635C252.226 71.1635 251.02 71.6678 250.418 72.7352V71.5826H248.603V81.2228H250.476ZM267.02 75.3549C267.098 74.0843 268.061 72.8335 269.652 72.8335C271.361 72.8335 272.271 73.9468 272.311 75.3549H267.02ZM272.592 77.9221C272.226 79.0682 271.447 79.9785 269.874 79.9785C268.244 79.9785 266.999 78.708 266.954 76.8873H274.243C274.263 76.7695 274.282 76.5271 274.282 76.2848C274.282 73.2264 272.612 71.1635 269.633 71.1635C267.197 71.1635 265.002 73.246 265.002 76.3241C265.002 79.7427 267.281 81.6419 269.874 81.6419C272.128 81.6419 273.68 80.2993 274.223 78.5181L272.592 77.9221ZM283.608 75.4662C283.647 74.0189 284.413 72.8793 285.861 72.8793C287.551 72.8793 288.114 73.9796 288.114 75.3417V81.2228H290.006V75.0143C290.006 72.8335 288.861 71.1635 286.549 71.1635C285.441 71.1635 284.316 71.5499 283.608 72.5781V66.553H281.716V81.2228H283.608V75.4662ZM297.177 79.9522C295.567 79.9522 294.159 78.7145 294.159 76.3961C294.159 74.0974 295.567 72.8597 297.177 72.8597C298.789 72.8597 300.197 74.0974 300.197 76.3961C300.197 78.7145 298.789 79.9522 297.177 79.9522ZM297.177 71.1635C294.283 71.1635 292.226 73.3705 292.226 76.3961C292.226 79.4349 294.283 81.6419 297.177 81.6419C300.079 81.6419 302.128 79.4349 302.128 76.3961C302.128 73.3705 300.079 71.1635 297.177 71.1635ZM309.804 71.5826L307.289 78.8389L305.116 71.5826H303.045L306.222 81.2228H308.213L310.728 73.8879L313.302 81.2228H315.253L318.397 71.5826H316.406L314.27 78.8389L311.756 71.5826H309.804ZM327.84 68.6487H326.112V70.155C326.112 70.967 325.673 71.5826 324.625 71.5826H324.101V73.2985H325.954V78.4918C325.954 80.2208 326.995 81.2228 328.646 81.2228C329.294 81.2228 329.772 81.1049 329.936 81.0459V79.4349C329.772 79.4742 329.431 79.5135 329.19 79.5135C328.207 79.5135 327.84 79.0812 327.84 78.2168V73.2985H329.936V71.5826H327.84V68.6487ZM336.576 79.9522C334.966 79.9522 333.557 78.7145 333.557 76.3961C333.557 74.0974 334.966 72.8597 336.576 72.8597C338.188 72.8597 339.596 74.0974 339.596 76.3961C339.596 78.7145 338.188 79.9522 336.576 79.9522ZM336.576 71.1635C333.682 71.1635 331.625 73.3705 331.625 76.3961C331.625 79.4349 333.682 81.6419 336.576 81.6419C339.478 81.6419 341.527 79.4349 341.527 76.3961C341.527 73.3705 339.478 71.1635 336.576 71.1635ZM350.651 81.2228V71.5826H348.778V81.2228H350.651ZM348.358 67.9217C348.358 68.6683 348.961 69.2708 349.708 69.2708C350.467 69.2708 351.076 68.6683 351.076 67.9217C351.076 67.162 350.467 66.553 349.708 66.553C348.961 66.553 348.358 67.162 348.358 67.9217ZM355.699 75.5645C355.699 74.0778 356.466 72.8793 357.953 72.8793C359.643 72.8793 360.206 73.9796 360.206 75.3417V81.2228H362.098V75.0143C362.098 72.8335 360.952 71.1635 358.641 71.1635C357.514 71.1635 356.361 71.6285 355.66 72.8335V71.5826H353.807V81.2228H355.699V75.5645ZM373.415 71.5826H371.384L368.608 79.0223L365.851 71.5826H363.716L367.638 81.2228H369.551L373.415 71.5826ZM377.056 81.2228V71.5826H375.183V81.2228H377.056ZM374.764 67.9217C374.764 68.6683 375.367 69.2708 376.113 69.2708C376.873 69.2708 377.482 68.6683 377.482 67.9217C377.482 67.162 376.873 66.553 376.113 66.553C375.367 66.553 374.764 67.162 374.764 67.9217ZM382.747 68.6487H381.018V70.155C381.018 70.967 380.579 71.5826 379.531 71.5826H379.007V73.2985H380.861V78.4918C380.861 80.2208 381.902 81.2228 383.553 81.2228C384.201 81.2228 384.679 81.1049 384.843 81.0459V79.4349C384.679 79.4742 384.339 79.5135 384.096 79.5135C383.114 79.5135 382.747 79.0812 382.747 78.2168V73.2985H384.843V71.5826H382.747V68.6487ZM388.569 75.3549C388.648 74.0843 389.611 72.8335 391.202 72.8335C392.911 72.8335 393.821 73.9468 393.86 75.3549H388.569ZM394.142 77.9221C393.776 79.0682 392.996 79.9785 391.424 79.9785C389.794 79.9785 388.549 78.708 388.504 76.8873H395.793C395.813 76.7695 395.832 76.5271 395.832 76.2848C395.832 73.2264 394.162 71.1635 391.182 71.1635C388.747 71.1635 386.552 73.246 386.552 76.3241C386.552 79.7427 388.831 81.6419 391.424 81.6419C393.677 81.6419 395.229 80.2993 395.773 78.5181L394.142 77.9221ZM91.6238 115.712V109.909C91.6238 108.462 92.5275 107.46 93.8766 107.46C95.324 107.46 95.9265 108.423 95.9265 109.667V115.712H97.8191V109.883C97.8191 108.501 98.7295 107.46 100.052 107.46C101.48 107.46 102.109 108.403 102.109 109.667V115.712H103.975V109.464C103.975 106.805 102.325 105.652 100.635 105.652C99.4105 105.652 98.1596 106.098 97.4 107.486C96.8761 106.242 95.7103 105.652 94.4988 105.652C93.3723 105.652 92.1673 106.157 91.5648 107.224V106.072H89.7507V115.712H91.6238ZM109.352 119.903L115.652 106.072H113.615L110.721 112.811L107.702 106.072H105.527L109.692 114.756L107.282 119.903H109.352ZM124.978 103.138H123.249V104.644C123.249 105.456 122.81 106.072 121.762 106.072H121.238V107.787H123.092V112.981C123.092 114.71 124.133 115.712 125.783 115.712C126.432 115.712 126.91 115.594 127.074 115.535V113.924C126.91 113.963 126.569 114.002 126.327 114.002C125.345 114.002 124.978 113.57 124.978 112.706V107.787H127.074V106.072H124.978V103.138ZM130.8 109.844C130.879 108.573 131.841 107.323 133.433 107.323C135.142 107.323 136.052 108.436 136.092 109.844H130.8ZM136.373 112.411C136.006 113.557 135.227 114.467 133.655 114.467C132.025 114.467 130.78 113.197 130.734 111.376H138.024C138.043 111.258 138.063 111.016 138.063 110.774C138.063 107.715 136.393 105.652 133.413 105.652C130.977 105.652 128.783 107.735 128.783 110.813C128.783 114.232 131.062 116.131 133.655 116.131C135.908 116.131 137.46 114.788 138.004 113.007L136.373 112.411ZM139.864 113.203C139.864 114.769 141.134 116.131 143.106 116.131C144.835 116.131 145.797 115.207 146.223 114.526C146.223 115.122 146.282 115.489 146.321 115.738H148.175C148.135 115.489 148.057 114.985 148.057 114.127V109.222C148.057 107.303 146.924 105.652 144.029 105.652C141.94 105.652 140.27 106.943 140.067 108.809L141.874 109.241C141.999 108.102 142.739 107.263 144.068 107.263C145.535 107.263 146.164 108.056 146.164 109.019C146.164 109.359 146 109.667 145.417 109.746L142.804 110.139C141.134 110.381 139.864 111.357 139.864 113.105V113.203ZM143.368 114.546C142.398 114.546 141.796 113.839 141.796 113.099C141.796 112.208 142.398 111.73 143.204 111.606L146.164 111.154V111.606C146.164 113.78 144.913 114.546 143.368 114.546ZM152.818 115.712V109.909C152.818 108.462 153.721 107.46 155.071 107.46C156.518 107.46 157.12 108.423 157.12 109.667V115.712H159.013V109.883C159.013 108.501 159.923 107.46 161.246 107.46C162.674 107.46 163.303 108.403 163.303 109.667V115.712H165.169V109.464C165.169 106.805 163.519 105.652 161.829 105.652C160.605 105.652 159.354 106.098 158.594 107.486C158.07 106.242 156.904 105.652 155.693 105.652C154.566 105.652 153.361 106.157 152.759 107.224V106.072H150.945V115.712H152.818ZM175.693 103.138H173.965V104.644C173.965 105.456 173.526 106.072 172.478 106.072H171.954V107.787H173.807V112.981C173.807 114.71 174.849 115.712 176.499 115.712C177.147 115.712 177.625 115.594 177.789 115.535V113.924C177.625 113.963 177.285 114.002 177.043 114.002C176.06 114.002 175.693 113.57 175.693 112.706V107.787H177.789V106.072H175.693V103.138ZM184.43 114.441C182.819 114.441 181.411 113.203 181.411 110.885C181.411 108.586 182.819 107.349 184.43 107.349C186.041 107.349 187.449 108.586 187.449 110.885C187.449 113.203 186.041 114.441 184.43 114.441ZM184.43 105.652C181.535 105.652 179.479 107.859 179.479 110.885C179.479 113.924 181.535 116.131 184.43 116.131C187.331 116.131 189.381 113.924 189.381 110.885C189.381 107.859 187.331 105.652 184.43 105.652ZM203.01 114.546C203.01 114.952 203.049 115.496 203.088 115.712H204.902C204.863 115.371 204.804 114.69 204.804 113.924V106.072H202.911V111.881C202.911 113.348 202.145 114.35 200.619 114.35C199.027 114.35 198.425 113.184 198.425 111.861V106.072H196.533V112.143C196.533 114.441 197.901 116.131 200.154 116.131C201.281 116.131 202.486 115.672 203.01 114.664V114.546ZM207.043 113.282C207.207 114.422 208.334 116.131 210.986 116.131C213.383 116.131 214.529 114.507 214.529 113.099C214.529 111.632 213.606 110.532 211.851 110.139L210.285 109.785C209.539 109.621 209.179 109.189 209.179 108.586C209.179 107.905 209.821 107.263 210.783 107.263C212.315 107.263 212.715 108.403 212.8 108.92L214.47 108.279C214.267 107.388 213.442 105.652 210.783 105.652C208.897 105.652 207.345 107.067 207.345 108.757C207.345 110.158 208.248 111.213 209.761 111.547L211.412 111.92C212.217 112.103 212.656 112.581 212.656 113.203C212.656 113.904 212.073 114.526 211.006 114.526C209.637 114.526 208.878 113.695 208.753 112.66L207.043 113.282ZM218.4 109.844C218.478 108.573 219.441 107.323 221.032 107.323C222.741 107.323 223.652 108.436 223.691 109.844H218.4ZM223.972 112.411C223.607 113.557 222.827 114.467 221.255 114.467C219.624 114.467 218.38 113.197 218.334 111.376H225.623C225.643 111.258 225.662 111.016 225.662 110.774C225.662 107.715 223.993 105.652 221.013 105.652C218.577 105.652 216.382 107.735 216.382 110.813C216.382 114.232 218.661 116.131 221.255 116.131C223.508 116.131 225.06 114.788 225.603 113.007L223.972 112.411ZM235.27 115.712V109.844H241.347V107.997H235.27V103.295H241.969V101.461H233.299V115.712H235.27ZM248.139 114.441C246.527 114.441 245.12 113.203 245.12 110.885C245.12 108.586 246.527 107.349 248.139 107.349C249.75 107.349 251.157 108.586 251.157 110.885C251.157 113.203 249.75 114.441 248.139 114.441ZM248.139 105.652C245.244 105.652 243.188 107.859 243.188 110.885C243.188 113.924 245.244 116.131 248.139 116.131C251.04 116.131 253.09 113.924 253.09 110.885C253.09 107.859 251.04 105.652 248.139 105.652ZM257.203 115.712V101.042H255.31V115.712H257.203ZM262.212 115.712V106.072H260.339V115.712H262.212ZM259.921 102.411C259.921 103.157 260.523 103.76 261.269 103.76C262.029 103.76 262.638 103.157 262.638 102.411C262.638 101.651 262.029 101.042 261.269 101.042C260.523 101.042 259.921 101.651 259.921 102.411ZM269.514 114.441C267.904 114.441 266.495 113.203 266.495 110.885C266.495 108.586 267.904 107.349 269.514 107.349C271.126 107.349 272.534 108.586 272.534 110.885C272.534 113.203 271.126 114.441 269.514 114.441ZM269.514 105.652C266.62 105.652 264.563 107.859 264.563 110.885C264.563 113.924 266.62 116.131 269.514 116.131C272.416 116.131 274.465 113.924 274.465 110.885C274.465 107.859 272.416 105.652 269.514 105.652ZM280.792 111.527C280.772 111.331 280.772 111.245 280.772 111.147C280.772 110.361 281.035 109.634 281.656 109.215L282.58 108.593C283.752 107.807 284.637 106.7 284.637 105.089C284.637 103.033 283.045 101.042 280.229 101.042C277.132 101.042 275.782 103.315 275.782 105.168C275.782 105.528 275.821 105.855 275.899 106.137L277.852 106.379C277.773 106.157 277.714 105.731 277.714 105.391C277.714 104.12 278.48 102.817 280.229 102.817C281.84 102.817 282.626 103.924 282.626 105.109C282.626 105.895 282.24 106.615 281.559 107.08L280.674 107.683C279.483 108.488 279.004 109.497 279.004 110.826C279.004 111.088 279.004 111.285 279.024 111.527H280.792ZM278.578 114.408C278.578 115.129 279.162 115.712 279.889 115.712C280.609 115.712 281.217 115.129 281.217 114.408C281.217 113.682 280.609 113.079 279.889 113.079C279.162 113.079 278.578 113.682 278.578 114.408Z" fill="white"/>
<path d="M183.569 226.843V212.592H181.598V218.729H174.315V212.592H172.344V226.843H174.315V220.556H181.598V226.843H183.569ZM186.208 224.335C186.208 225.9 187.479 227.262 189.45 227.262C191.179 227.262 192.142 226.339 192.568 225.658C192.568 226.254 192.626 226.62 192.666 226.869H194.519C194.48 226.62 194.401 226.116 194.401 225.258V220.353C194.401 218.434 193.268 216.784 190.374 216.784C188.284 216.784 186.614 218.074 186.411 219.94L188.219 220.373C188.343 219.233 189.083 218.395 190.413 218.395C191.88 218.395 192.509 219.187 192.509 220.15C192.509 220.49 192.345 220.798 191.762 220.877L189.149 221.27C187.479 221.512 186.208 222.488 186.208 224.237V224.335ZM189.712 225.677C188.743 225.677 188.14 224.97 188.14 224.23C188.14 223.339 188.743 222.861 189.548 222.737L192.509 222.285V222.737C192.509 224.911 191.258 225.677 189.712 225.677ZM199.162 230.615V225.697C199.686 226.561 200.813 227.262 202.299 227.262C205.135 227.262 206.805 225.009 206.805 221.997C206.805 219.05 205.259 216.784 202.358 216.784C200.793 216.784 199.647 217.55 199.123 218.519V217.203H197.289V230.615H199.162ZM204.88 222.108C204.88 224.125 203.773 225.572 202.018 225.572C200.289 225.572 199.143 224.125 199.143 222.108C199.143 219.973 200.289 218.454 202.018 218.454C203.793 218.454 204.88 219.973 204.88 221.997V222.108ZM210.898 230.615V225.697C211.422 226.561 212.549 227.262 214.035 227.262C216.871 227.262 218.541 225.009 218.541 221.997C218.541 219.05 216.995 216.784 214.094 216.784C212.529 216.784 211.383 217.55 210.859 218.519V217.203H209.025V230.615H210.898ZM216.616 222.108C216.616 224.125 215.509 225.572 213.754 225.572C212.025 225.572 210.879 224.125 210.879 222.108C210.879 219.973 212.025 218.454 213.754 218.454C215.528 218.454 216.616 219.973 216.616 221.997V222.108ZM223.178 231.034L229.478 217.203H227.441L224.546 223.942L221.527 217.203H219.353L223.518 225.887L221.108 231.034H223.178ZM238.804 214.269H237.075V215.775C237.075 216.587 236.636 217.203 235.588 217.203H235.064V218.919H236.917V224.112C236.917 225.841 237.959 226.843 239.609 226.843C240.257 226.843 240.736 226.725 240.899 226.666V225.055C240.736 225.094 240.395 225.134 240.153 225.134C239.17 225.134 238.804 224.701 238.804 223.837V218.919H240.899V217.203H238.804V214.269ZM247.54 225.572C245.929 225.572 244.521 224.335 244.521 222.016C244.521 219.718 245.929 218.48 247.54 218.48C249.151 218.48 250.559 219.718 250.559 222.016C250.559 224.335 249.151 225.572 247.54 225.572ZM247.54 216.784C244.645 216.784 242.589 218.991 242.589 222.016C242.589 225.055 244.645 227.262 247.54 227.262C250.441 227.262 252.491 225.055 252.491 222.016C252.491 218.991 250.441 216.784 247.54 216.784ZM261.633 221.086C261.673 219.639 262.439 218.5 263.886 218.5C265.576 218.5 266.139 219.6 266.139 220.962V226.843H268.032V220.635C268.032 218.454 266.885 216.784 264.574 216.784C263.467 216.784 262.341 217.17 261.633 218.198V212.173H259.741V226.843H261.633V221.086ZM272.289 220.975C272.367 219.705 273.33 218.454 274.921 218.454C276.631 218.454 277.541 219.567 277.58 220.975H272.289ZM277.862 223.542C277.496 224.688 276.716 225.599 275.144 225.599C273.513 225.599 272.269 224.328 272.224 222.508H279.512C279.532 222.39 279.552 222.147 279.552 221.905C279.552 218.847 277.882 216.784 274.902 216.784C272.466 216.784 270.271 218.866 270.271 221.944C270.271 225.363 272.55 227.262 275.144 227.262C277.397 227.262 278.949 225.92 279.492 224.138L277.862 223.542ZM283.847 226.843V212.173H281.955V226.843H283.847ZM288.858 230.615V225.697C289.382 226.561 290.508 227.262 291.994 227.262C294.83 227.262 296.5 225.009 296.5 221.997C296.5 219.05 294.955 216.784 292.054 216.784C290.488 216.784 289.343 217.55 288.819 218.519V217.203H286.985V230.615H288.858ZM294.575 222.108C294.575 224.125 293.468 225.572 291.713 225.572C289.984 225.572 288.838 224.125 288.838 222.108C288.838 219.973 289.984 218.454 291.713 218.454C293.488 218.454 294.575 219.973 294.575 221.997V222.108ZM301.419 212.592H299.042L299.566 222.698H300.915L301.419 212.592ZM298.924 225.546C298.924 226.267 299.506 226.843 300.233 226.843C300.954 226.843 301.556 226.267 301.556 225.546C301.556 224.832 300.954 224.23 300.233 224.23C299.506 224.23 298.924 224.832 298.924 225.546ZM321.465 226.843V212.592H319.494V218.729H312.212V212.592H310.24V226.843H312.212V220.556H319.494V226.843H321.465ZM325.938 220.975C326.017 219.705 326.98 218.454 328.571 218.454C330.28 218.454 331.19 219.567 331.229 220.975H325.938ZM331.511 223.542C331.145 224.688 330.365 225.599 328.793 225.599C327.163 225.599 325.918 224.328 325.873 222.508H333.162C333.182 222.39 333.201 222.147 333.201 221.905C333.201 218.847 331.531 216.784 328.552 216.784C326.115 216.784 323.921 218.866 323.921 221.944C323.921 225.363 326.2 227.262 328.793 227.262C331.046 227.262 332.598 225.92 333.142 224.138L331.511 223.542ZM340.981 216.849C340.877 216.83 340.614 216.784 340.353 216.784C339.37 216.784 338.159 217.15 337.458 218.637V217.203H335.605V226.843H337.497V222.016C337.497 219.665 338.565 218.801 340.156 218.801C340.418 218.801 340.7 218.82 340.981 218.86V216.849ZM344.38 220.975C344.459 219.705 345.422 218.454 347.013 218.454C348.722 218.454 349.632 219.567 349.671 220.975H344.38ZM349.953 223.542C349.587 224.688 348.807 225.599 347.235 225.599C345.605 225.599 344.36 224.328 344.315 222.508H351.604C351.624 222.39 351.643 222.147 351.643 221.905C351.643 218.847 349.973 216.784 346.994 216.784C344.558 216.784 342.363 218.866 342.363 221.944C342.363 225.363 344.642 227.262 347.235 227.262C349.488 227.262 351.04 225.92 351.584 224.138L349.953 223.542ZM353.241 214.682C353.241 214.78 353.26 214.963 353.287 215.068L354.105 218.879H354.793L355.638 215.048C355.657 214.943 355.677 214.799 355.677 214.682C355.677 213.941 355.173 213.431 354.472 213.431C353.745 213.431 353.241 213.941 353.241 214.682ZM357.334 224.413C357.498 225.553 358.624 227.262 361.277 227.262C363.674 227.262 364.82 225.638 364.82 224.23C364.82 222.763 363.896 221.663 362.141 221.27L360.576 220.916C359.829 220.752 359.469 220.32 359.469 219.718C359.469 219.037 360.111 218.395 361.074 218.395C362.606 218.395 363.005 219.534 363.091 220.052L364.76 219.41C364.557 218.519 363.732 216.784 361.074 216.784C359.188 216.784 357.636 218.198 357.636 219.888C357.636 221.289 358.539 222.344 360.052 222.678L361.702 223.051C362.508 223.235 362.947 223.713 362.947 224.335C362.947 225.036 362.363 225.658 361.296 225.658C359.927 225.658 359.168 224.826 359.044 223.791L357.334 224.413ZM381.16 230.615V217.203H379.332V218.696C378.927 217.655 377.905 216.784 376.235 216.784C373.399 216.784 371.683 219.128 371.683 221.984C371.683 224.924 373.498 227.262 376.274 227.262C377.701 227.262 378.789 226.62 379.293 225.638V230.615H381.16ZM373.615 221.984C373.615 219.908 374.702 218.454 376.457 218.454C378.167 218.454 379.313 219.908 379.313 221.984C379.313 224.06 378.167 225.599 376.457 225.599C374.722 225.599 373.615 224.06 373.615 221.984ZM390.603 225.677C390.603 226.083 390.642 226.627 390.682 226.843H392.496C392.457 226.502 392.398 225.821 392.398 225.055V217.203H390.505V223.012C390.505 224.479 389.739 225.481 388.213 225.481C386.622 225.481 386.019 224.315 386.019 222.992V217.203H384.126V223.274C384.126 225.572 385.495 227.262 387.748 227.262C388.874 227.262 390.079 226.804 390.603 225.795V225.677ZM397.414 226.843V217.203H395.541V226.843H397.414ZM395.122 213.542C395.122 214.289 395.725 214.891 396.471 214.891C397.231 214.891 397.84 214.289 397.84 213.542C397.84 212.782 397.231 212.173 396.471 212.173C395.725 212.173 395.122 212.782 395.122 213.542ZM404.637 218.539C406.288 218.539 406.989 219.678 407.231 220.648L408.941 219.908C408.541 218.395 407.212 216.784 404.637 216.784C401.88 216.784 399.765 218.912 399.765 222.016C399.765 225.042 401.841 227.262 404.657 227.262C407.172 227.262 408.56 225.638 409.026 224.21L407.355 223.464C407.133 224.25 406.465 225.514 404.657 225.514C403.085 225.514 401.697 224.295 401.697 222.016C401.697 219.698 403.105 218.539 404.637 218.539ZM419.721 217.203H417.107L412.922 221.473V212.173H411.049V226.843H412.922V223.942L414.271 222.599L417.428 226.843H419.805L415.601 221.276L419.721 217.203ZM177.596 251.692L175.082 258.948L172.907 251.692H170.838L174.014 261.332H176.005L178.52 253.997L181.094 261.332H183.045L186.189 251.692H184.198L182.063 258.948L179.548 251.692H177.596ZM187.466 258.824C187.466 260.389 188.736 261.751 190.708 261.751C192.437 261.751 193.399 260.828 193.825 260.147C193.825 260.743 193.884 261.109 193.923 261.358H195.777C195.737 261.109 195.659 260.605 195.659 259.747V254.842C195.659 252.923 194.526 251.273 191.631 251.273C189.542 251.273 187.872 252.563 187.669 254.429L189.476 254.862C189.601 253.722 190.341 252.884 191.67 252.884C193.137 252.884 193.766 253.676 193.766 254.639C193.766 254.979 193.602 255.287 193.019 255.366L190.406 255.759C188.736 256.001 187.466 256.977 187.466 258.726V258.824ZM190.97 260.166C190 260.166 189.398 259.459 189.398 258.719C189.398 257.828 190 257.35 190.806 257.226L193.766 256.774V257.226C193.766 259.4 192.515 260.166 190.97 260.166ZM200.439 261.332V246.662H198.547V261.332H200.439ZM212.247 251.692H209.634L205.449 255.962V246.662H203.576V261.332H205.449V258.431L206.799 257.088L209.955 261.332H212.332L208.128 255.765L212.247 251.692ZM216.589 248.758H214.86V250.264C214.86 251.076 214.422 251.692 213.374 251.692H212.85V253.408H214.703V258.601C214.703 260.33 215.745 261.332 217.395 261.332C218.043 261.332 218.521 261.214 218.685 261.155V259.544C218.521 259.583 218.181 259.623 217.938 259.623C216.956 259.623 216.589 259.19 216.589 258.326V253.408H218.685V251.692H216.589V248.758ZM223.073 255.575C223.112 254.128 223.878 252.989 225.326 252.989C227.015 252.989 227.579 254.089 227.579 255.451V261.332H229.471V255.124C229.471 252.943 228.325 251.273 226.013 251.273C224.907 251.273 223.78 251.659 223.073 252.687V246.662H221.18V261.332H223.073V255.575ZM237.874 251.338C237.769 251.319 237.507 251.273 237.245 251.273C236.263 251.273 235.051 251.639 234.35 253.126V251.692H232.497V261.332H234.39V256.505C234.39 254.154 235.457 253.29 237.048 253.29C237.31 253.29 237.592 253.309 237.874 253.349V251.338ZM244.187 260.061C242.576 260.061 241.168 258.824 241.168 256.505C241.168 254.207 242.576 252.969 244.187 252.969C245.798 252.969 247.206 254.207 247.206 256.505C247.206 258.824 245.798 260.061 244.187 260.061ZM244.187 251.273C241.292 251.273 239.236 253.48 239.236 256.505C239.236 259.544 241.292 261.751 244.187 261.751C247.088 261.751 249.138 259.544 249.138 256.505C249.138 253.48 247.088 251.273 244.187 251.273ZM257.737 260.166C257.737 260.572 257.776 261.116 257.815 261.332H259.629C259.59 260.991 259.531 260.31 259.531 259.544V251.692H257.639V257.501C257.639 258.968 256.872 259.97 255.346 259.97C253.755 259.97 253.153 258.804 253.153 257.481V251.692H251.26V257.763C251.26 260.061 252.629 261.751 254.881 261.751C256.008 261.751 257.213 261.293 257.737 260.284V260.166ZM261.974 261.849C262.216 263.997 264.024 265.523 266.44 265.523C270.081 265.523 271.287 263.107 271.287 260.566V251.692H269.414V253.028C268.936 251.842 267.927 251.273 266.44 251.273C263.782 251.273 261.994 253.382 261.994 256.06C261.994 258.87 263.867 260.828 266.44 260.828C267.888 260.828 268.936 260.127 269.394 259.236V260.625C269.394 262.792 268.471 263.88 266.44 263.88C264.973 263.88 263.945 262.812 263.801 261.411L261.974 261.849ZM266.722 259.236C265.013 259.236 263.926 257.999 263.926 256.06C263.926 254.141 265.052 252.884 266.722 252.884C268.353 252.884 269.479 254.141 269.479 256.06C269.479 257.979 268.353 259.236 266.722 259.236ZM276.303 255.575C276.342 254.128 277.109 252.989 278.556 252.989C280.246 252.989 280.809 254.089 280.809 255.451V261.332H282.702V255.124C282.702 252.943 281.556 251.273 279.244 251.273C278.137 251.273 277.011 251.659 276.303 252.687V246.662H274.411V261.332H276.303V255.575ZM293.174 265.523L299.474 251.692H297.437L294.542 258.431L291.523 251.692H289.349L293.514 260.376L291.104 265.523H293.174ZM305.381 260.061C303.77 260.061 302.362 258.824 302.362 256.505C302.362 254.207 303.77 252.969 305.381 252.969C306.992 252.969 308.4 254.207 308.4 256.505C308.4 258.824 306.992 260.061 305.381 260.061ZM305.381 251.273C302.486 251.273 300.43 253.48 300.43 256.505C300.43 259.544 302.486 261.751 305.381 261.751C308.282 261.751 310.332 259.544 310.332 256.505C310.332 253.48 308.282 251.273 305.381 251.273ZM318.931 260.166C318.931 260.572 318.971 261.116 319.01 261.332H320.823C320.784 260.991 320.726 260.31 320.726 259.544V251.692H318.833V257.501C318.833 258.968 318.066 259.97 316.54 259.97C314.949 259.97 314.346 258.804 314.346 257.481V251.692H312.454V257.763C312.454 260.061 313.822 261.751 316.075 261.751C317.202 261.751 318.407 261.293 318.931 260.284V260.166ZM323.063 249.171C323.063 249.269 323.082 249.452 323.109 249.557L323.927 253.368H324.615L325.46 249.537C325.479 249.432 325.499 249.288 325.499 249.171C325.499 248.43 324.996 247.92 324.294 247.92C323.567 247.92 323.063 248.43 323.063 249.171ZM329.952 261.332V246.662H328.06V261.332H329.952ZM334.982 261.332V246.662H333.09V261.332H334.982ZM345.041 255.674C345.041 254.187 345.808 252.989 347.295 252.989C348.985 252.989 349.548 254.089 349.548 255.451V261.332H351.44V255.124C351.44 252.943 350.294 251.273 347.982 251.273C346.856 251.273 345.703 251.738 345.002 252.943V251.692H343.149V261.332H345.041V255.674ZM355.697 255.464C355.775 254.194 356.738 252.943 358.33 252.943C360.039 252.943 360.949 254.056 360.989 255.464H355.697ZM361.27 258.031C360.903 259.177 360.125 260.088 358.552 260.088C356.922 260.088 355.677 258.817 355.631 256.997H362.92C362.94 256.879 362.96 256.636 362.96 256.394C362.96 253.336 361.289 251.273 358.31 251.273C355.874 251.273 353.68 253.355 353.68 256.433C353.68 259.852 355.959 261.751 358.552 261.751C360.805 261.751 362.358 260.409 362.901 258.627L361.27 258.031ZM366.594 255.464C366.673 254.194 367.635 252.943 369.228 252.943C370.937 252.943 371.847 254.056 371.886 255.464H366.594ZM372.168 258.031C371.801 259.177 371.022 260.088 369.45 260.088C367.819 260.088 366.575 258.817 366.529 256.997H373.819C373.838 256.879 373.858 256.636 373.858 256.394C373.858 253.336 372.187 251.273 369.208 251.273C366.771 251.273 364.577 253.355 364.577 256.433C364.577 259.852 366.857 261.751 369.45 261.751C371.702 261.751 373.255 260.409 373.798 258.627L372.168 258.031ZM377.387 256.407C377.387 254.377 378.514 252.943 380.249 252.943C381.978 252.943 383.026 254.338 383.026 256.368C383.026 258.392 381.959 259.924 380.23 259.924C378.415 259.924 377.387 258.431 377.387 256.407ZM383.045 260.029C383.045 260.612 383.105 261.116 383.144 261.332H384.978C384.958 261.175 384.873 260.468 384.873 259.538V246.662H382.999V252.903C382.679 252.124 381.756 251.273 380.046 251.273C377.309 251.273 375.455 253.624 375.455 256.407C375.455 259.479 377.211 261.751 380.046 261.751C381.553 261.751 382.581 260.952 383.045 260.022V260.029ZM395.561 248.758H393.832V250.264C393.832 251.076 393.393 251.692 392.345 251.692H391.821V253.408H393.675V258.601C393.675 260.33 394.716 261.332 396.367 261.332C397.014 261.332 397.492 261.214 397.656 261.155V259.544C397.492 259.583 397.152 259.623 396.91 259.623C395.928 259.623 395.561 259.19 395.561 258.326V253.408H397.656V251.692H395.561V248.758ZM404.297 260.061C402.686 260.061 401.279 258.824 401.279 256.505C401.279 254.207 402.686 252.969 404.297 252.969C405.909 252.969 407.316 254.207 407.316 256.505C407.316 258.824 405.909 260.061 404.297 260.061ZM404.297 251.273C401.402 251.273 399.346 253.48 399.346 256.505C399.346 259.544 401.402 261.751 404.297 261.751C407.198 261.751 409.248 259.544 409.248 256.505C409.248 253.48 407.198 251.273 404.297 251.273ZM419.033 248.758H417.303V250.264C417.303 251.076 416.865 251.692 415.817 251.692H415.293V253.408H417.146V258.601C417.146 260.33 418.188 261.332 419.838 261.332C420.486 261.332 420.964 261.214 421.128 261.155V259.544C420.964 259.583 420.624 259.623 420.382 259.623C419.4 259.623 419.033 259.19 419.033 258.326V253.408H421.128V251.692H419.033V248.758ZM423.021 258.824C423.021 260.389 424.291 261.751 426.263 261.751C427.991 261.751 428.954 260.828 429.38 260.147C429.38 260.743 429.439 261.109 429.478 261.358H431.332C431.293 261.109 431.214 260.605 431.214 259.747V254.842C431.214 252.923 430.081 251.273 427.186 251.273C425.097 251.273 423.427 252.563 423.224 254.429L425.032 254.862C425.155 253.722 425.896 252.884 427.226 252.884C428.692 252.884 429.321 253.676 429.321 254.639C429.321 254.979 429.157 255.287 428.575 255.366L425.961 255.759C424.291 256.001 423.021 256.977 423.021 258.726V258.824ZM426.524 260.166C425.555 260.166 424.952 259.459 424.952 258.719C424.952 257.828 425.555 257.35 426.361 257.226L429.321 256.774V257.226C429.321 259.4 428.07 260.166 426.524 260.166ZM442.773 251.692H440.16L435.974 255.962V246.662H434.101V261.332H435.974V258.431L437.324 257.088L440.481 261.332H442.858L438.653 255.765L442.773 251.692ZM445.811 255.464C445.89 254.194 446.853 252.943 448.444 252.943C450.153 252.943 451.063 254.056 451.103 255.464H445.811ZM451.384 258.031C451.018 259.177 450.238 260.088 448.666 260.088C447.036 260.088 445.791 258.817 445.746 256.997H453.035C453.055 256.879 453.074 256.636 453.074 256.394C453.074 253.336 451.404 251.273 448.424 251.273C445.989 251.273 443.794 253.355 443.794 256.433C443.794 259.852 446.073 261.751 448.666 261.751C450.92 261.751 452.472 260.409 453.015 258.627L451.384 258.031ZM455.282 260.088C455.282 260.795 455.884 261.332 456.67 261.332C457.449 261.332 458.078 260.795 458.078 260.088C458.078 259.38 457.449 258.817 456.67 258.817C455.884 258.817 455.282 259.38 455.282 260.088Z" fill="white"/>
<path d="M174.034 295.813C174.073 294.365 174.839 293.226 176.287 293.226C177.976 293.226 178.54 294.326 178.54 295.688V301.569H180.432V295.361C180.432 293.18 179.286 291.51 176.974 291.51C175.868 291.51 174.741 291.896 174.034 292.925V286.899H172.141V301.569H174.034V295.813ZM170.537 303.975H181.853V305.412H170.537V303.975ZM170.537 303.975H181.853V305.412H170.537V303.975ZM185.992 288.995H184.263V290.501C184.263 291.313 183.825 291.929 182.777 291.929H182.253V293.645H184.106V298.838C184.106 300.567 185.147 301.569 186.798 301.569C187.446 301.569 187.924 301.451 188.088 301.392V299.781C187.924 299.821 187.584 299.86 187.341 299.86C186.359 299.86 185.992 299.428 185.992 298.563V293.645H188.088V291.929H185.992V288.995ZM181.853 303.975H188.979V305.412H181.853V303.975ZM181.853 303.975H188.979V305.412H181.853V303.975ZM193.118 288.995H191.389V290.501C191.389 291.313 190.95 291.929 189.902 291.929H189.378V293.645H191.232V298.838C191.232 300.567 192.273 301.569 193.923 301.569C194.572 301.569 195.05 301.451 195.213 301.392V299.781C195.05 299.821 194.709 299.86 194.467 299.86C193.484 299.86 193.118 299.428 193.118 298.563V293.645H195.213V291.929H193.118V288.995ZM188.979 303.975H196.104V305.412H188.979V303.975ZM188.979 303.975H196.104V305.412H188.979V303.975ZM199.582 305.341V300.423C200.105 301.288 201.232 301.988 202.718 301.988C205.554 301.988 207.224 299.735 207.224 296.723C207.224 293.776 205.679 291.51 202.777 291.51C201.212 291.51 200.066 292.276 199.542 293.245V291.929H197.708V305.341H199.582ZM205.299 296.834C205.299 298.851 204.192 300.299 202.437 300.299C200.708 300.299 199.562 298.851 199.562 296.834C199.562 294.699 200.708 293.18 202.437 293.18C204.212 293.18 205.299 294.699 205.299 296.723V296.834ZM196.104 303.975H207.84V305.412H196.104V303.975ZM196.104 303.975H207.84V305.412H196.104V303.975ZM208.541 299.14C208.704 300.279 209.831 301.988 212.483 301.988C214.88 301.988 216.026 300.364 216.026 298.956C216.026 297.489 215.103 296.389 213.348 295.996L211.782 295.642C211.036 295.479 210.676 295.046 210.676 294.444C210.676 293.763 211.317 293.121 212.28 293.121C213.813 293.121 214.212 294.26 214.297 294.778L215.967 294.136C215.764 293.245 214.939 291.51 212.28 291.51C210.394 291.51 208.842 292.925 208.842 294.614C208.842 296.016 209.746 297.07 211.258 297.404L212.909 297.777C213.714 297.961 214.153 298.439 214.153 299.061C214.153 299.762 213.57 300.384 212.503 300.384C211.134 300.384 210.374 299.552 210.25 298.517L208.541 299.14ZM207.84 303.975H217.061V305.412H207.84V303.975ZM207.84 303.975H217.061V305.412H207.84V303.975ZM218.587 300.115C218.587 300.941 219.189 301.569 219.975 301.569C220.761 301.569 221.383 300.941 221.383 300.115C221.383 299.29 220.761 298.635 219.975 298.635C219.189 298.635 218.587 299.29 218.587 300.115ZM218.567 293.409C218.567 294.234 219.17 294.863 219.956 294.863C220.741 294.863 221.364 294.234 221.364 293.409C221.364 292.584 220.741 291.929 219.956 291.929C219.17 291.929 218.567 292.584 218.567 293.409ZM217.061 303.975H222.929V305.412H217.061V303.975ZM217.061 303.975H222.929V305.412H217.061V303.975ZM231.659 287.319H229.825L222.929 301.569H224.756L231.659 287.319ZM222.929 303.975H231.731V305.412H222.929V303.975ZM222.929 303.975H231.731V305.412H222.929V303.975ZM240.46 287.319H238.627L231.731 301.569H233.558L240.46 287.319ZM231.731 303.975H240.533V305.412H231.731V303.975ZM231.731 303.975H240.533V305.412H231.731V303.975ZM247.009 293.645V291.929H244.671V290.364C244.671 289.002 245.536 288.674 246.204 288.674C246.689 288.674 246.924 288.753 247.029 288.799V287.102C246.951 287.043 246.545 286.899 245.903 286.899C244.154 286.899 242.72 288.072 242.72 290.259V291.929H240.932V293.645H242.72V301.569H244.671V293.645H247.009ZM240.533 303.975H247.239V305.412H240.533V303.975ZM240.533 303.975H247.239V305.412H240.533V303.975ZM252.989 300.299C251.378 300.299 249.97 299.061 249.97 296.743C249.97 294.444 251.378 293.206 252.989 293.206C254.6 293.206 256.008 294.444 256.008 296.743C256.008 299.061 254.6 300.299 252.989 300.299ZM252.989 291.51C250.094 291.51 248.038 293.717 248.038 296.743C248.038 299.781 250.094 301.988 252.989 301.988C255.89 301.988 257.94 299.781 257.94 296.743C257.94 293.717 255.89 291.51 252.989 291.51ZM247.239 303.975H258.555V305.412H247.239V303.975ZM247.239 303.975H258.555V305.412H247.239V303.975ZM262.053 301.569V286.899H260.16V301.569H262.053ZM258.555 303.975H263.585V305.412H258.555V303.975ZM258.555 303.975H263.585V305.412H258.555V303.975ZM267.063 301.569V291.929H265.19V301.569H267.063ZM264.77 288.268C264.77 289.015 265.373 289.617 266.12 289.617C266.879 289.617 267.488 289.015 267.488 288.268C267.488 287.508 266.879 286.899 266.12 286.899C265.373 286.899 264.77 287.508 264.77 288.268ZM263.585 303.975H268.615V305.412H263.585V303.975ZM263.585 303.975H268.615V305.412H263.585V303.975ZM274.365 300.299C272.753 300.299 271.346 299.061 271.346 296.743C271.346 294.444 272.753 293.206 274.365 293.206C275.976 293.206 277.384 294.444 277.384 296.743C277.384 299.061 275.976 300.299 274.365 300.299ZM274.365 291.51C271.47 291.51 269.414 293.717 269.414 296.743C269.414 299.781 271.47 301.988 274.365 301.988C277.266 301.988 279.316 299.781 279.316 296.743C279.316 293.717 277.266 291.51 274.365 291.51ZM268.615 303.975H279.932V305.412H268.615V303.975ZM268.615 303.975H279.932V305.412H268.615V303.975ZM281.339 300.325C281.339 301.032 281.942 301.569 282.727 301.569C283.507 301.569 284.136 301.032 284.136 300.325C284.136 299.618 283.507 299.054 282.727 299.054C281.942 299.054 281.339 299.618 281.339 300.325ZM279.932 303.975H285.38V305.412H279.932V303.975ZM279.932 303.975H285.38V305.412H279.932V303.975ZM288.877 301.569V286.899H286.985V301.569H288.877ZM285.38 303.975H290.41V305.412H285.38V303.975ZM285.38 303.975H290.41V305.412H285.38V303.975ZM291.412 299.061C291.412 300.626 292.682 301.988 294.654 301.988C296.382 301.988 297.345 301.065 297.771 300.384C297.771 300.98 297.83 301.347 297.869 301.595H299.723C299.684 301.347 299.605 300.842 299.605 299.984V295.079C299.605 293.16 298.472 291.51 295.577 291.51C293.488 291.51 291.818 292.8 291.615 294.667L293.423 295.099C293.546 293.959 294.287 293.121 295.617 293.121C297.083 293.121 297.712 293.913 297.712 294.876C297.712 295.217 297.548 295.524 296.966 295.603L294.352 295.996C292.682 296.238 291.412 297.214 291.412 298.963V299.061ZM294.915 300.403C293.946 300.403 293.344 299.696 293.344 298.956C293.344 298.066 293.946 297.587 294.752 297.463L297.712 297.011V297.463C297.712 299.637 296.461 300.403 294.915 300.403ZM290.41 303.975H300.888V305.412H290.41V303.975ZM290.41 303.975H300.888V305.412H290.41V303.975ZM309.618 287.319H307.785L300.888 301.569H302.716L309.618 287.319ZM300.888 303.975H309.69V305.412H300.888V303.975ZM300.888 303.975H309.69V305.412H300.888V303.975ZM315.362 293.265C317.012 293.265 317.713 294.405 317.955 295.374L319.664 294.634C319.265 293.121 317.935 291.51 315.362 291.51C312.604 291.51 310.489 293.638 310.489 296.743C310.489 299.768 312.565 301.988 315.381 301.988C317.896 301.988 319.285 300.364 319.749 298.937L318.08 298.19C317.856 298.976 317.189 300.24 315.381 300.24C313.81 300.24 312.421 299.022 312.421 296.743C312.421 294.424 313.829 293.265 315.362 293.265ZM309.69 303.975H320.169V305.412H309.69V303.975ZM309.69 303.975H320.169V305.412H309.69V303.975ZM328.152 300.403C328.152 300.809 328.192 301.353 328.231 301.569H330.044C330.005 301.229 329.947 300.548 329.947 299.781V291.929H328.054V297.738C328.054 299.205 327.287 300.207 325.761 300.207C324.17 300.207 323.567 299.041 323.567 297.718V291.929H321.675V298C321.675 300.299 323.043 301.988 325.296 301.988C326.423 301.988 327.628 301.53 328.152 300.521V300.403ZM320.169 303.975H331.485V305.412H320.169V303.975ZM320.169 303.975H331.485V305.412H320.169V303.975ZM332.186 299.14C332.349 300.279 333.476 301.988 336.129 301.988C338.526 301.988 339.672 300.364 339.672 298.956C339.672 297.489 338.748 296.389 336.993 295.996L335.428 295.642C334.681 295.479 334.321 295.046 334.321 294.444C334.321 293.763 334.963 293.121 335.926 293.121C337.458 293.121 337.857 294.26 337.942 294.778L339.612 294.136C339.409 293.245 338.584 291.51 335.926 291.51C334.039 291.51 332.487 292.925 332.487 294.614C332.487 296.016 333.391 297.07 334.903 297.404L336.554 297.777C337.36 297.961 337.799 298.439 337.799 299.061C337.799 299.762 337.215 300.384 336.148 300.384C334.779 300.384 334.02 299.552 333.896 298.517L332.186 299.14ZM331.485 303.975H340.706V305.412H331.485V303.975ZM331.485 303.975H340.706V305.412H331.485V303.975ZM344.845 288.995H343.117V290.501C343.117 291.313 342.678 291.929 341.63 291.929H341.106V293.645H342.96V298.838C342.96 300.567 344 301.569 345.651 301.569C346.299 301.569 346.777 301.451 346.941 301.392V299.781C346.777 299.821 346.436 299.86 346.195 299.86C345.212 299.86 344.845 299.428 344.845 298.563V293.645H346.941V291.929H344.845V288.995ZM340.706 303.975H347.831V305.412H340.706V303.975ZM340.706 303.975H347.831V305.412H340.706V303.975ZM353.581 300.299C351.971 300.299 350.562 299.061 350.562 296.743C350.562 294.444 351.971 293.206 353.581 293.206C355.193 293.206 356.601 294.444 356.601 296.743C356.601 299.061 355.193 300.299 353.581 300.299ZM353.581 291.51C350.687 291.51 348.63 293.717 348.63 296.743C348.63 299.781 350.687 301.988 353.581 301.988C356.483 301.988 358.532 299.781 358.532 296.743C358.532 293.717 356.483 291.51 353.581 291.51ZM347.831 303.975H359.148V305.412H347.831V303.975ZM347.831 303.975H359.148V305.412H347.831V303.975ZM362.626 301.569V295.767C362.626 294.319 363.529 293.317 364.878 293.317C366.326 293.317 366.928 294.28 366.928 295.524V301.569H368.821V295.741C368.821 294.359 369.732 293.317 371.055 293.317C372.482 293.317 373.111 294.261 373.111 295.524V301.569H374.977V295.321C374.977 292.663 373.327 291.51 371.637 291.51C370.413 291.51 369.162 291.955 368.402 293.344C367.878 292.099 366.713 291.51 365.501 291.51C364.374 291.51 363.169 292.014 362.566 293.082V291.929H360.753V301.569H362.626ZM359.148 303.975H376.332V305.412H359.148V303.975ZM359.148 303.975H376.332V305.412H359.148V303.975ZM379.168 295.701C379.247 294.431 380.21 293.18 381.802 293.18C383.511 293.18 384.421 294.293 384.46 295.701H379.168ZM384.742 298.269C384.375 299.415 383.596 300.325 382.024 300.325C380.393 300.325 379.149 299.054 379.103 297.234H386.392C386.412 297.116 386.432 296.874 386.432 296.631C386.432 293.573 384.761 291.51 381.782 291.51C379.345 291.51 377.152 293.592 377.152 296.671C377.152 300.089 379.431 301.988 382.024 301.988C384.276 301.988 385.829 300.646 386.373 298.864L384.742 298.269ZM376.332 303.975H387.231V305.412H376.332V303.975ZM376.332 303.975H387.231V305.412H376.332V303.975ZM394.212 291.575C394.107 291.556 393.845 291.51 393.583 291.51C392.601 291.51 391.389 291.877 390.688 293.363V291.929H388.835V301.569H390.728V296.743C390.728 294.391 391.795 293.527 393.386 293.527C393.649 293.527 393.93 293.547 394.212 293.586V291.575ZM387.231 303.975H394.774V305.412H387.231V303.975ZM387.231 303.975H394.774V305.412H387.231V303.975ZM401.127 296.54V294.896H395.679V296.54H401.127ZM394.774 303.975H401.9V305.412H394.774V303.975ZM394.774 303.975H401.9V305.412H394.774V303.975ZM402.601 299.14C402.764 300.279 403.891 301.988 406.544 301.988C408.941 301.988 410.087 300.364 410.087 298.956C410.087 297.489 409.163 296.389 407.408 295.996L405.843 295.642C405.096 295.479 404.736 295.046 404.736 294.444C404.736 293.763 405.378 293.121 406.341 293.121C407.873 293.121 408.272 294.26 408.357 294.778L410.027 294.136C409.824 293.245 408.999 291.51 406.341 291.51C404.454 291.51 402.902 292.925 402.902 294.614C402.902 296.016 403.806 297.07 405.318 297.404L406.969 297.777C407.775 297.961 408.214 298.439 408.214 299.061C408.214 299.762 407.63 300.384 406.563 300.384C405.194 300.384 404.435 299.552 404.311 298.517L402.601 299.14ZM401.9 303.975H411.121V305.412H401.9V303.975ZM401.9 303.975H411.121V305.412H401.9V303.975ZM419.105 300.403C419.105 300.809 419.144 301.353 419.183 301.569H420.998C420.958 301.229 420.899 300.548 420.899 299.781V291.929H419.006V297.738C419.006 299.205 418.24 300.207 416.714 300.207C415.123 300.207 414.52 299.041 414.52 297.718V291.929H412.627V298C412.627 300.299 413.996 301.988 416.25 301.988C417.375 301.988 418.58 301.53 419.105 300.521V300.403ZM411.121 303.975H422.438V305.412H411.121V303.975ZM411.121 303.975H422.438V305.412H411.121V303.975ZM428.109 293.265C429.76 293.265 430.461 294.405 430.702 295.374L432.412 294.634C432.013 293.121 430.683 291.51 428.109 291.51C425.352 291.51 423.236 293.638 423.236 296.743C423.236 299.768 425.313 301.988 428.129 301.988C430.644 301.988 432.032 300.364 432.498 298.937L430.827 298.19C430.605 298.976 429.937 300.24 428.129 300.24C426.557 300.24 425.169 299.022 425.169 296.743C425.169 294.424 426.577 293.265 428.109 293.265ZM422.438 303.975H432.916V305.412H422.438V303.975ZM422.438 303.975H432.916V305.412H422.438V303.975ZM438.588 293.265C440.239 293.265 440.939 294.405 441.181 295.374L442.89 294.634C442.491 293.121 441.161 291.51 438.588 291.51C435.831 291.51 433.715 293.638 433.715 296.743C433.715 299.768 435.791 301.988 438.607 301.988C441.122 301.988 442.511 300.364 442.976 298.937L441.306 298.19C441.083 298.976 440.415 300.24 438.607 300.24C437.036 300.24 435.648 299.022 435.648 296.743C435.648 294.424 437.055 293.265 438.588 293.265ZM432.916 303.975H443.394V305.412H432.916V303.975ZM432.916 303.975H443.394V305.412H432.916V303.975ZM446.23 295.701C446.309 294.431 447.271 293.18 448.864 293.18C450.573 293.18 451.483 294.293 451.522 295.701H446.23ZM451.804 298.269C451.437 299.415 450.658 300.325 449.086 300.325C447.455 300.325 446.211 299.054 446.165 297.234H453.454C453.474 297.116 453.494 296.874 453.494 296.631C453.494 293.573 451.823 291.51 448.844 291.51C446.407 291.51 444.213 293.592 444.213 296.671C444.213 300.089 446.493 301.988 449.086 301.988C451.338 301.988 452.891 300.646 453.434 298.864L451.804 298.269ZM443.394 303.975H454.293V305.412H443.394V303.975ZM443.394 303.975H454.293V305.412H443.394V303.975ZM454.993 299.14C455.157 300.279 456.284 301.988 458.935 301.988C461.332 301.988 462.478 300.364 462.478 298.956C462.478 297.489 461.556 296.389 459.801 295.996L458.235 295.642C457.488 295.479 457.128 295.046 457.128 294.444C457.128 293.763 457.77 293.121 458.732 293.121C460.265 293.121 460.665 294.26 460.75 294.778L462.42 294.136C462.217 293.245 461.392 291.51 458.732 291.51C456.847 291.51 455.294 292.925 455.294 294.614C455.294 296.016 456.198 297.07 457.711 297.404L459.362 297.777C460.167 297.961 460.605 298.439 460.605 299.061C460.605 299.762 460.023 300.384 458.956 300.384C457.587 300.384 456.827 299.552 456.702 298.517L454.993 299.14ZM454.293 303.975H463.513V305.412H454.293V303.975ZM454.293 303.975H463.513V305.412H454.293V303.975ZM464.214 299.14C464.378 300.279 465.505 301.988 468.156 301.988C470.553 301.988 471.699 300.364 471.699 298.956C471.699 297.489 470.777 296.389 469.022 295.996L467.456 295.642C466.709 295.479 466.349 295.046 466.349 294.444C466.349 293.763 466.991 293.121 467.953 293.121C469.486 293.121 469.886 294.26 469.971 294.778L471.641 294.136C471.438 293.245 470.613 291.51 467.953 291.51C466.068 291.51 464.515 292.925 464.515 294.614C464.515 296.016 465.419 297.07 466.932 297.404L468.583 297.777C469.388 297.961 469.826 298.439 469.826 299.061C469.826 299.762 469.244 300.384 468.177 300.384C466.808 300.384 466.048 299.552 465.923 298.517L464.214 299.14ZM463.513 303.975H472.735V305.412H463.513V303.975ZM463.513 303.975H472.735V305.412H463.513V303.975Z" fill="#FFC276"/>
<mask id="mask1_1_2053" style="mask-type:luminance" maskUnits="userSpaceOnUse" x="170" y="324" width="325" height="186">
<path d="M482.854 324.093H182.033C175.684 324.093 170.537 329.24 170.537 335.59V498.454C170.537 504.804 175.684 509.951 182.033 509.951H482.854C489.203 509.951 494.35 504.804 494.35 498.454V335.59C494.35 329.24 489.203 324.093 482.854 324.093Z" fill="white"/>
</mask>
<g mask="url(#mask1_1_2053)">
<path d="M494.35 324.093H170.537V509.951H494.35V324.093Z" fill="#9686FF"/>
<mask id="mask2_1_2053" style="mask-type:luminance" maskUnits="userSpaceOnUse" x="170" y="324" width="325" height="186">
<path d="M494.35 324.093H170.537V509.951H494.35V324.093Z" fill="white"/>
</mask>
<g mask="url(#mask2_1_2053)">
<g filter="url(#filter0_f_1_2053)">
<path d="M386.168 594.675C447.056 650.529 520.402 669.671 549.99 637.43C579.579 605.188 554.205 533.772 493.317 477.918C432.429 422.064 359.083 402.922 329.495 435.163C299.906 467.405 325.279 538.82 386.168 594.675Z" fill="#FD79FF"/>
</g>
<g filter="url(#filter1_f_1_2053)">
<path d="M397.501 582.325C445.942 626.761 504.123 642.176 527.453 616.755C550.782 591.334 530.425 534.703 481.984 490.267C433.543 445.831 375.362 430.417 352.032 455.838C328.703 481.259 349.06 537.889 397.501 582.325Z" fill="#FF7CCA"/>
</g>
<g filter="url(#filter2_f_1_2053)">
<path d="M399.969 558.575C436.417 592.009 478.57 605.377 494.121 588.432C509.671 571.488 492.73 530.647 456.282 497.212C419.834 463.777 377.681 450.409 362.13 467.354C346.58 484.299 363.521 525.14 399.969 558.575Z" fill="#FCA76A"/>
</g>
<g filter="url(#filter3_f_1_2053)">
<path d="M482.854 357.624C506.663 357.624 525.965 344.328 525.965 327.925C525.965 311.523 506.663 298.227 482.854 298.227C459.044 298.227 439.742 311.523 439.742 327.925C439.742 344.328 459.044 357.624 482.854 357.624Z" fill="white"/>
</g>
<g filter="url(#filter4_f_1_2053)">
<path d="M516.385 457.259C537.02 457.259 553.748 440.531 553.748 419.896C553.748 399.261 537.02 382.533 516.385 382.533C495.75 382.533 479.021 399.261 479.021 419.896C479.021 440.531 495.75 457.259 516.385 457.259Z" fill="#FD90FF"/>
</g>
<g filter="url(#filter5_f_1_2053)">
<path d="M279.345 467.829C227.025 528.993 199.277 580.366 140.69 541.006C93.4153 485.042 139.183 453.852 191.503 392.688C243.823 331.524 305.901 298.761 330.158 319.51C354.415 340.26 331.666 406.665 279.345 467.829Z" fill="#352CFF"/>
</g>
<g filter="url(#filter6_f_1_2053)">
<path d="M210.807 490.982C242.951 454.427 263.372 419.837 256.418 413.722C249.465 407.608 217.77 432.285 185.627 468.841C153.483 505.396 133.062 539.987 140.016 546.101C146.969 552.215 178.664 527.538 210.807 490.982Z" fill="#D3CCFF"/>
</g>
</g>
<path d="M227.06 355.708C227.06 352.534 229.634 349.96 232.808 349.96H432.078C435.253 349.96 437.826 352.534 437.826 355.708V375.827H227.06V355.708Z" fill="white" fill-opacity="0.4"/>
<path d="M227.06 479.294C227.06 482.468 229.634 485.042 232.808 485.042H432.078C435.253 485.042 437.826 482.468 437.826 479.294V375.827H227.06V479.294Z" fill="white"/>
<path d="M227.06 479.294C227.06 482.468 229.634 485.042 232.808 485.042H269.214V375.827H227.06V479.294Z" fill="#F4F4F4"/>
<path d="M240.473 367.205C242.589 367.205 244.305 365.489 244.305 363.372C244.305 361.256 242.589 359.54 240.473 359.54C238.356 359.54 236.641 361.256 236.641 363.372C236.641 365.489 238.356 367.205 240.473 367.205Z" fill="#FF4D4D"/>
<path d="M254.106 367.205C256.223 367.205 257.938 365.489 257.938 363.372C257.938 361.256 256.223 359.54 254.106 359.54C251.99 359.54 250.274 361.256 250.274 363.372C250.274 365.489 251.99 367.205 254.106 367.205Z" fill="#FFCF4C"/>
<path d="M267.74 367.205C269.856 367.205 271.572 365.489 271.572 363.372C271.572 361.256 269.856 359.54 267.74 359.54C265.623 359.54 263.907 361.256 263.907 363.372C263.907 365.489 265.623 367.205 267.74 367.205Z" fill="#38C120"/>
<path d="M248.137 406.484C253.428 406.484 257.717 402.194 257.717 396.903C257.717 391.612 253.428 387.323 248.137 387.323C242.846 387.323 238.557 391.612 238.557 396.903C238.557 402.194 242.846 406.484 248.137 406.484Z" fill="#DFDFDF"/>
<path d="M253.885 417.022H242.389C241.331 417.022 240.473 417.88 240.473 418.938C240.473 419.996 241.331 420.854 242.389 420.854H253.885C254.943 420.854 255.801 419.996 255.801 418.938C255.801 417.88 254.943 417.022 253.885 417.022Z" fill="#DFDFDF"/>
<path d="M253.885 428.518H242.389C241.331 428.518 240.473 429.376 240.473 430.434C240.473 431.492 241.331 432.35 242.389 432.35H253.885C254.943 432.35 255.801 431.492 255.801 430.434C255.801 429.376 254.943 428.518 253.885 428.518Z" fill="#DFDFDF"/>
<path d="M253.885 440.015H242.389C241.331 440.015 240.473 440.872 240.473 441.931C240.473 442.989 241.331 443.847 242.389 443.847H253.885C254.943 443.847 255.801 442.989 255.801 441.931C255.801 440.872 254.943 440.015 253.885 440.015Z" fill="#DFDFDF"/>
<path d="M253.885 451.511H242.389C241.331 451.511 240.473 452.369 240.473 453.427C240.473 454.485 241.331 455.343 242.389 455.343H253.885C254.943 455.343 255.801 454.485 255.801 453.427C255.801 452.369 254.943 451.511 253.885 451.511Z" fill="#DFDFDF"/>
<path d="M305.618 441.931H295.08C292.964 441.931 291.248 443.646 291.248 445.763V460.133C291.248 462.25 292.964 463.965 295.08 463.965H305.618C307.735 463.965 309.451 462.25 309.451 460.133V445.763C309.451 443.646 307.735 441.931 305.618 441.931Z" fill="#F4F4F4"/>
<path d="M341.065 417.022H330.527C328.411 417.022 326.695 418.738 326.695 420.854V460.133C326.695 462.25 328.411 463.965 330.527 463.965H341.065C343.182 463.965 344.898 462.25 344.898 460.133V420.854C344.898 418.738 343.182 417.022 341.065 417.022Z" fill="#F4F4F4"/>
<path d="M376.513 430.434H365.974C363.858 430.434 362.142 432.15 362.142 434.266V460.133C362.142 462.25 363.858 463.965 365.974 463.965H376.513C378.629 463.965 380.345 462.25 380.345 460.133V434.266C380.345 432.15 378.629 430.434 376.513 430.434Z" fill="#F4F4F4"/>
<path d="M411.96 402.652H401.421C399.305 402.652 397.589 404.367 397.589 406.484V460.133C397.589 462.25 399.305 463.965 401.421 463.965H411.96C414.076 463.965 415.792 462.25 415.792 460.133V406.484C415.792 404.367 414.076 402.652 411.96 402.652Z" fill="#F4F4F4"/>
<path d="M296.996 387.323H285.5C284.442 387.323 283.584 388.181 283.584 389.239C283.584 390.297 284.442 391.155 285.5 391.155H296.996C298.054 391.155 298.912 390.297 298.912 389.239C298.912 388.181 298.054 387.323 296.996 387.323Z" fill="#F4F4F4"/>
<path d="M403.337 405.526H262.507C260.391 405.526 258.675 407.241 258.675 409.358V440.015C258.675 442.131 260.391 443.847 262.507 443.847H403.337C405.454 443.847 407.169 442.131 407.169 440.015V409.358C407.169 407.241 405.454 405.526 403.337 405.526Z" fill="#0B33F9"/>
<path d="M281.862 421.106H278.889V429.27H277.247V421.106H274.3V419.77H281.862V421.106ZM286.045 429.27C285.035 429.27 284.217 428.956 283.591 428.327C282.965 427.699 282.652 426.863 282.652 425.821V425.625C282.652 424.926 282.788 424.302 283.058 423.752C283.332 423.202 283.715 422.774 284.207 422.468C284.702 422.16 285.253 422.005 285.861 422.005C286.825 422.005 287.57 422.318 288.097 422.944C288.624 423.567 288.887 424.45 288.887 425.594V426.245H284.255C284.304 426.786 284.499 427.214 284.84 427.528C285.183 427.843 285.616 428 286.137 428C286.864 428 287.458 427.713 287.918 427.14L288.774 427.948C288.491 428.367 288.113 428.693 287.638 428.926C287.164 429.156 286.633 429.27 286.045 429.27ZM285.853 423.285C285.416 423.285 285.064 423.443 284.796 423.761C284.528 424.075 284.357 424.514 284.281 425.079H287.315V424.957C287.28 424.407 287.138 423.99 286.888 423.708C286.64 423.426 286.295 423.285 285.853 423.285ZM294.423 429.27C294.353 429.11 294.292 428.85 294.24 428.489C293.733 429.01 293.113 429.27 292.38 429.27C291.667 429.27 291.085 429.067 290.634 428.659C290.185 428.252 289.961 427.748 289.961 427.149C289.961 426.392 290.242 425.811 290.804 425.407C291.366 425.002 292.167 424.8 293.209 424.8H294.187V424.363C294.187 424.017 294.084 423.74 293.877 423.534C293.674 423.324 293.362 423.219 292.943 423.219C292.579 423.219 292.281 423.305 292.048 423.477C291.818 423.646 291.703 423.862 291.703 424.127H290.114C290.114 423.749 290.242 423.395 290.498 423.066C290.757 422.735 291.108 422.475 291.55 422.289C291.993 422.1 292.488 422.005 293.035 422.005C293.864 422.005 294.525 422.215 295.017 422.634C295.512 423.053 295.765 423.644 295.777 424.407V427.625C295.777 428.265 295.867 428.776 296.047 429.157V429.27H294.423ZM292.672 427.991C292.987 427.991 293.282 427.916 293.559 427.764C293.838 427.61 294.048 427.403 294.187 427.144V425.804H293.327C292.739 425.804 292.297 425.907 292 426.114C291.703 426.318 291.555 426.609 291.555 426.987C291.555 427.293 291.655 427.537 291.856 427.72C292.06 427.901 292.332 427.991 292.672 427.991ZM298.951 422.005L298.994 422.883C299.492 422.298 300.173 422.005 301.038 422.005C301.987 422.005 302.636 422.371 302.985 423.101C303.5 422.371 304.225 422.005 305.159 422.005C305.939 422.005 306.52 422.224 306.901 422.66C307.286 423.094 307.482 423.734 307.491 424.581V429.27H305.897V424.625C305.897 424.171 305.798 423.839 305.6 423.63C305.405 423.417 305.081 423.311 304.627 423.311C304.266 423.311 303.97 423.41 303.74 423.608C303.51 423.803 303.35 424.057 303.26 424.372L303.264 429.27H301.675V424.573C301.652 423.731 301.225 423.311 300.396 423.311C299.758 423.311 299.307 423.573 299.043 424.097V429.27H297.449V422.005H298.951ZM314.843 419.77L317.594 427.053L320.34 419.77H322.479V429.27H320.829V426.14L320.995 421.949L318.179 429.27H316.991L314.184 421.957L314.345 426.14V429.27H312.695V419.77H314.843ZM328.513 429.27C328.443 429.11 328.382 428.85 328.33 428.489C327.823 429.01 327.203 429.27 326.47 429.27C325.757 429.27 325.174 429.067 324.723 428.659C324.275 428.252 324.051 427.748 324.051 427.149C324.051 426.392 324.332 425.811 324.894 425.407C325.455 425.002 326.257 424.8 327.299 424.8H328.277V424.363C328.277 424.017 328.174 423.74 327.967 423.534C327.764 423.324 327.452 423.219 327.033 423.219C326.669 423.219 326.371 423.305 326.138 423.477C325.908 423.646 325.793 423.862 325.793 424.127H324.204C324.204 423.749 324.332 423.395 324.588 423.066C324.847 422.735 325.198 422.475 325.64 422.289C326.083 422.1 326.577 422.005 327.125 422.005C327.954 422.005 328.615 422.215 329.107 422.634C329.602 423.053 329.855 423.644 329.866 424.407V427.625C329.866 428.265 329.957 428.776 330.137 429.157V429.27H328.513ZM326.762 427.991C327.077 427.991 327.372 427.916 327.649 427.764C327.928 427.61 328.138 427.403 328.277 427.144V425.804H327.417C326.829 425.804 326.387 425.907 326.09 426.114C325.793 426.318 325.645 426.609 325.645 426.987C325.645 427.293 325.745 427.537 325.946 427.72C326.15 427.901 326.422 427.991 326.762 427.991ZM333.019 422.005L333.067 422.962C333.591 422.324 334.278 422.005 335.128 422.005C336.603 422.005 337.354 422.855 337.38 424.555V429.27H335.791V424.642C335.791 424.191 335.694 423.857 335.499 423.638C335.304 423.42 334.986 423.311 334.547 423.311C333.904 423.311 333.425 423.603 333.11 424.188V429.27H331.521V422.005H333.019ZM343.323 429.27C343.253 429.11 343.192 428.85 343.139 428.489C342.633 429.01 342.013 429.27 341.279 429.27C340.566 429.27 339.984 429.067 339.533 428.659C339.085 428.252 338.861 427.748 338.861 427.149C338.861 426.392 339.141 425.811 339.703 425.407C340.265 425.002 341.067 424.8 342.109 424.8H343.087V424.363C343.087 424.017 342.983 423.74 342.777 423.534C342.573 423.324 342.262 423.219 341.842 423.219C341.479 423.219 341.18 423.305 340.947 423.477C340.717 423.646 340.603 423.862 340.603 424.127H339.013C339.013 423.749 339.141 423.395 339.397 423.066C339.657 422.735 340.007 422.475 340.45 422.289C340.892 422.1 341.387 422.005 341.934 422.005C342.764 422.005 343.424 422.215 343.916 422.634C344.411 423.053 344.664 423.644 344.676 424.407V427.625C344.676 428.265 344.766 428.776 344.947 429.157V429.27H343.323ZM341.572 427.991C341.886 427.991 342.182 427.916 342.458 427.764C342.738 427.61 342.947 427.403 343.087 427.144V425.804H342.227C341.639 425.804 341.196 425.907 340.899 426.114C340.603 426.318 340.454 426.609 340.454 426.987C340.454 427.293 340.554 427.537 340.755 427.72C340.959 427.901 341.231 427.991 341.572 427.991ZM346.073 425.586C346.073 424.497 346.332 423.628 346.85 422.979C347.368 422.33 348.055 422.005 348.911 422.005C349.717 422.005 350.352 422.283 350.815 422.839L350.889 422.005H352.321V429.004C352.321 429.95 352.031 430.697 351.452 431.244C350.876 431.791 350.096 432.065 349.112 432.065C348.594 432.065 348.086 431.953 347.588 431.728C347.093 431.504 346.718 431.21 346.462 430.847L347.213 429.851C347.702 430.489 348.304 430.807 349.02 430.807C349.55 430.807 349.968 430.656 350.273 430.353C350.579 430.051 350.732 429.605 350.732 429.017V428.511C350.272 429.017 349.661 429.27 348.898 429.27C348.068 429.27 347.39 428.944 346.863 428.292C346.337 427.64 346.073 426.738 346.073 425.586ZM347.658 425.721C347.658 426.422 347.803 426.974 348.095 427.376C348.386 427.774 348.789 427.974 349.304 427.974C349.944 427.974 350.42 427.703 350.732 427.162V424.101C350.429 423.574 349.957 423.311 349.317 423.311C348.793 423.311 348.386 423.515 348.095 423.922C347.803 424.33 347.658 424.929 347.658 425.721ZM357.019 429.27C356.009 429.27 355.191 428.956 354.565 428.327C353.939 427.699 353.626 426.863 353.626 425.821V425.625C353.626 424.926 353.762 424.302 354.032 423.752C354.306 423.202 354.689 422.774 355.181 422.468C355.675 422.16 356.227 422.005 356.835 422.005C357.799 422.005 358.544 422.318 359.071 422.944C359.598 423.567 359.861 424.45 359.861 425.594V426.245H355.229C355.278 426.786 355.473 427.214 355.814 427.528C356.157 427.843 356.589 428 357.11 428C357.838 428 358.432 427.713 358.892 427.14L359.747 427.948C359.465 428.367 359.087 428.693 358.612 428.926C358.138 429.156 357.607 429.27 357.019 429.27ZM356.827 423.285C356.39 423.285 356.038 423.443 355.77 423.761C355.502 424.075 355.331 424.514 355.255 425.079H358.289V424.957C358.254 424.407 358.112 423.99 357.861 423.708C357.614 423.426 357.269 423.285 356.827 423.285ZM362.66 422.005L362.703 422.883C363.201 422.298 363.882 422.005 364.747 422.005C365.695 422.005 366.345 422.371 366.694 423.101C367.209 422.371 367.934 422.005 368.868 422.005C369.648 422.005 370.229 422.224 370.61 422.66C370.994 423.094 371.191 423.734 371.199 424.581V429.27H369.606V424.625C369.606 424.171 369.507 423.839 369.309 423.63C369.114 423.417 368.789 423.311 368.335 423.311C367.974 423.311 367.679 423.41 367.449 423.608C367.219 423.803 367.059 424.057 366.969 424.372L366.973 429.27H365.384V424.573C365.361 423.731 364.934 423.311 364.105 423.311C363.467 423.311 363.016 423.573 362.751 424.097V429.27H361.158V422.005H362.66ZM376.02 429.27C375.009 429.27 374.191 428.956 373.565 428.327C372.94 427.699 372.628 426.863 372.628 425.821V425.625C372.628 424.926 372.763 424.302 373.033 423.752C373.307 423.202 373.69 422.774 374.181 422.468C374.676 422.16 375.228 422.005 375.836 422.005C376.8 422.005 377.545 422.318 378.072 422.944C378.598 423.567 378.861 424.45 378.861 425.594V426.245H374.229C374.279 426.786 374.474 427.214 374.815 427.528C375.158 427.843 375.59 428 376.111 428C376.839 428 377.433 427.713 377.893 427.14L378.748 427.948C378.466 428.367 378.088 428.693 377.613 428.926C377.139 429.156 376.607 429.27 376.02 429.27ZM375.827 423.285C375.391 423.285 375.039 423.443 374.771 423.761C374.503 424.075 374.332 424.514 374.256 425.079H377.29V424.957C377.255 424.407 377.112 423.99 376.862 423.708C376.615 423.426 376.27 423.285 375.827 423.285ZM381.639 422.005L381.687 422.962C382.21 422.324 382.897 422.005 383.747 422.005C385.223 422.005 385.974 422.855 386.001 424.555V429.27H384.411V424.642C384.411 424.191 384.314 423.857 384.118 423.638C383.923 423.42 383.606 423.311 383.167 423.311C382.524 423.311 382.045 423.603 381.731 424.188V429.27H380.141V422.005H381.639ZM389.702 420.329V422.005H390.952V423.184H389.702V427.179C389.702 427.453 389.755 427.651 389.86 427.773C389.968 427.892 390.16 427.952 390.436 427.952C390.62 427.952 390.805 427.93 390.991 427.886V429.118C390.63 429.22 390.281 429.27 389.943 429.27C388.72 429.27 388.109 428.591 388.109 427.232V423.184H386.943V422.005H388.109V420.329H389.702Z" fill="white"/>
<g filter="url(#filter7_d_1_2053)">
<path d="M394.623 448.535C394.354 448.19 394.019 447.49 393.435 446.618C393.099 446.139 392.275 445.229 392.026 444.76C391.847 444.475 391.795 444.127 391.883 443.802C392.033 443.183 392.62 442.773 393.253 442.844C393.742 442.942 394.192 443.182 394.546 443.534C394.793 443.767 395.021 444.02 395.226 444.29C395.379 444.482 395.418 444.559 395.59 444.779C395.763 444.999 395.878 445.22 395.791 444.894C395.724 444.415 395.609 443.61 395.447 442.892C395.322 442.346 395.293 442.259 395.178 441.847C395.063 441.436 394.996 441.091 394.872 440.621C394.758 440.16 394.668 439.693 394.603 439.223C394.483 438.621 394.571 437.995 394.853 437.45C395.187 437.135 395.678 437.052 396.098 437.239C396.52 437.551 396.835 437.986 396.999 438.485C397.25 439.098 397.417 439.743 397.497 440.401C397.65 441.359 397.947 442.758 397.957 443.045C397.957 442.691 397.889 441.943 397.957 441.608C398.023 441.258 398.266 440.968 398.598 440.842C398.884 440.754 399.186 440.734 399.48 440.784C399.777 440.846 400.04 441.017 400.217 441.263C400.439 441.822 400.563 442.415 400.582 443.016C400.607 442.49 400.697 441.969 400.85 441.464C401.01 441.239 401.244 441.076 401.511 441.004C401.828 440.947 402.152 440.947 402.469 441.004C402.729 441.091 402.956 441.255 403.12 441.474C403.323 441.982 403.446 442.518 403.484 443.064C403.484 443.198 403.551 442.691 403.762 442.355C403.872 442.03 404.146 441.788 404.483 441.72C404.819 441.653 405.166 441.769 405.393 442.027C405.62 442.284 405.692 442.643 405.582 442.968C405.582 443.591 405.582 443.562 405.582 443.984C405.582 444.405 405.582 444.779 405.582 445.134C405.547 445.694 405.471 446.251 405.353 446.8C405.186 447.286 404.954 447.747 404.663 448.17C404.198 448.688 403.813 449.272 403.523 449.905C403.451 450.219 403.418 450.54 403.427 450.863C403.426 451.16 403.465 451.456 403.542 451.744C403.15 451.785 402.755 451.785 402.364 451.744C401.99 451.686 401.53 450.939 401.405 450.709C401.344 450.586 401.218 450.508 401.08 450.508C400.942 450.508 400.816 450.586 400.754 450.709C400.543 451.073 400.074 451.734 399.748 451.773C399.106 451.849 397.784 451.773 396.74 451.773C396.74 451.773 396.912 450.815 396.519 450.47C396.127 450.125 395.724 449.722 395.427 449.454L394.623 448.535Z" fill="white"/>
<path d="M395.157 449.691L394.352 448.771C394.348 448.766 394.343 448.761 394.339 448.755C394.243 448.631 394.081 448.375 393.855 447.986C393.573 447.502 393.333 447.112 393.136 446.818C393.057 446.705 392.88 446.479 392.604 446.14C392.12 445.544 391.821 445.14 391.709 444.928L392.026 444.76L391.722 444.951C391.479 444.564 391.417 444.15 391.536 443.708L391.883 443.802L391.534 443.717C391.63 443.32 391.846 443.004 392.181 442.77C392.516 442.535 392.887 442.441 393.293 442.487C393.303 442.488 393.313 442.49 393.323 442.492C393.894 442.606 394.386 442.869 394.799 443.279L394.546 443.534L394.792 443.272C395.055 443.519 395.295 443.786 395.512 444.073L395.226 444.29L395.507 444.066C395.563 444.136 395.626 444.221 395.697 444.32C395.761 444.411 395.82 444.49 395.873 444.558C395.902 444.595 395.941 444.647 395.989 444.713C396.019 444.755 396.039 444.781 396.048 444.793C396.021 444.759 395.976 444.733 395.912 444.714C395.693 444.649 395.548 444.725 395.478 444.942C395.464 444.984 395.459 445.025 395.463 445.062C395.462 445.055 395.456 445.029 395.444 444.986C395.441 444.972 395.438 444.958 395.436 444.944C395.32 444.116 395.207 443.458 395.096 442.971C395.026 442.663 394.952 442.371 394.875 442.096C394.857 442.032 394.843 441.982 394.832 441.944C394.79 441.793 394.736 441.578 394.67 441.299C394.611 441.051 394.562 440.856 394.525 440.713C394.407 440.236 394.314 439.755 394.248 439.271L394.604 439.222L394.251 439.293C394.11 438.591 394.204 437.921 394.533 437.285C394.552 437.249 394.577 437.216 394.607 437.188C394.827 436.981 395.086 436.853 395.384 436.802C395.681 436.752 395.968 436.788 396.244 436.911C396.268 436.922 396.291 436.935 396.311 436.95C396.805 437.315 397.148 437.789 397.34 438.373L396.999 438.485L397.331 438.349C397.596 438.995 397.77 439.665 397.853 440.358L397.497 440.401L397.852 440.344C397.896 440.62 397.977 441.075 398.097 441.711C398.239 442.466 398.311 442.907 398.316 443.033L397.957 443.045H397.597C397.597 442.979 397.593 442.849 397.585 442.655C397.561 442.094 397.567 441.722 397.604 441.537C397.7 441.033 397.989 440.689 398.471 440.506C398.478 440.503 398.486 440.5 398.493 440.498C398.837 440.393 399.186 440.37 399.54 440.43C399.544 440.431 399.549 440.431 399.553 440.432C399.952 440.516 400.271 440.723 400.509 441.053C400.526 441.077 400.541 441.103 400.551 441.13C400.791 441.733 400.92 442.357 400.941 443.005L400.582 443.016L400.223 442.999C400.25 442.441 400.344 441.895 400.506 441.36C400.517 441.323 400.534 441.288 400.557 441.256C400.772 440.953 401.059 440.754 401.418 440.657C401.427 440.655 401.437 440.653 401.446 440.651C401.809 440.585 402.171 440.585 402.534 440.651C402.55 440.654 402.567 440.658 402.583 440.664C402.919 440.776 403.194 440.974 403.408 441.258C403.427 441.283 403.442 441.311 403.454 441.341C403.672 441.886 403.802 442.453 403.843 443.039C403.843 443.047 403.844 443.056 403.844 443.064C403.844 443.027 403.835 442.986 403.816 442.944C403.771 442.837 403.692 442.769 403.58 442.739C403.444 442.703 403.327 442.735 403.229 442.837C403.197 442.87 403.173 442.907 403.157 442.948L403.153 442.957C403.155 442.95 403.159 442.936 403.165 442.914C403.249 442.591 403.347 442.341 403.458 442.164L403.762 442.355L403.422 442.241C403.584 441.759 403.914 441.468 404.412 441.368C404.91 441.268 405.327 441.408 405.662 441.789C405.998 442.17 406.085 442.602 405.923 443.083L405.583 442.968H405.942V443.617V443.984V445.133C405.942 445.141 405.942 445.148 405.941 445.156C405.905 445.735 405.826 446.309 405.704 446.876C405.701 446.89 405.697 446.904 405.692 446.917C405.514 447.436 405.27 447.922 404.959 448.374C404.95 448.387 404.94 448.399 404.93 448.411C404.486 448.904 404.126 449.452 403.849 450.054L403.523 449.904L403.873 449.985C403.807 450.271 403.778 450.56 403.786 450.853C403.786 450.857 403.786 450.86 403.786 450.864C403.785 451.131 403.82 451.393 403.889 451.651C403.895 451.673 403.899 451.697 403.9 451.72C403.902 451.744 403.901 451.767 403.898 451.79C403.895 451.814 403.89 451.837 403.882 451.859C403.875 451.881 403.865 451.903 403.853 451.923C403.841 451.944 403.828 451.963 403.812 451.981C403.797 451.998 403.78 452.014 403.761 452.029C403.742 452.043 403.722 452.055 403.701 452.066C403.68 452.076 403.658 452.085 403.635 452.091C403.617 452.096 403.599 452.099 403.58 452.101C403.162 452.145 402.744 452.145 402.326 452.101C402.32 452.101 402.315 452.1 402.309 452.099C401.902 452.036 401.496 451.63 401.09 450.88C401.088 450.877 401.086 450.873 401.084 450.87C401.083 450.868 401.082 450.867 401.08 450.867C401.078 450.867 401.076 450.868 401.076 450.87C401.072 450.876 401.069 450.883 401.065 450.889C400.613 451.669 400.188 452.083 399.79 452.129C399.49 452.165 398.843 452.172 397.848 452.149C397.342 452.138 396.972 452.132 396.74 452.132C396.716 452.132 396.693 452.13 396.67 452.125C396.647 452.12 396.624 452.114 396.602 452.105C396.581 452.095 396.56 452.084 396.54 452.071C396.521 452.058 396.503 452.043 396.486 452.027C396.469 452.01 396.454 451.992 396.441 451.972C396.428 451.953 396.417 451.932 396.408 451.91C396.399 451.888 396.392 451.866 396.388 451.843C396.383 451.82 396.381 451.796 396.381 451.773C396.381 451.751 396.383 451.73 396.386 451.709C396.411 451.573 396.421 451.423 396.418 451.258C396.412 450.987 396.367 450.814 396.283 450.74C396.125 450.601 395.895 450.389 395.593 450.102C395.402 449.919 395.266 449.793 395.187 449.721C395.176 449.711 395.166 449.701 395.157 449.691ZM395.698 449.218L395.427 449.454L395.668 449.188C395.752 449.263 395.892 449.394 396.088 449.581C396.384 449.861 396.606 450.068 396.757 450.2C397 450.413 397.126 450.761 397.136 451.243C397.141 451.455 397.127 451.653 397.094 451.836L396.74 451.773V451.413C396.978 451.413 397.353 451.419 397.865 451.431C398.825 451.453 399.439 451.448 399.706 451.416C399.758 451.41 399.863 451.314 400.021 451.129C400.175 450.95 400.315 450.75 400.443 450.529L400.754 450.709L400.433 450.549C400.566 450.282 400.782 450.148 401.08 450.148C401.378 450.148 401.594 450.282 401.727 450.549L401.406 450.709L401.721 450.538C401.822 450.723 401.938 450.899 402.072 451.068C402.234 451.271 402.35 451.378 402.418 451.389L402.364 451.744L402.401 451.387C402.769 451.425 403.137 451.425 403.504 451.387L403.542 451.744L403.195 451.837C403.109 451.518 403.067 451.192 403.068 450.861L403.427 450.862L403.068 450.872C403.059 450.518 403.093 450.169 403.173 449.824C403.178 449.8 403.186 449.777 403.196 449.754C403.504 449.086 403.904 448.478 404.396 447.93L404.663 448.17L404.367 447.967C404.641 447.569 404.856 447.141 405.013 446.684L405.353 446.8L405.001 446.725C405.116 446.193 405.19 445.655 405.224 445.111L405.583 445.133H405.223V443.984V443.617V442.968C405.223 442.929 405.23 442.891 405.242 442.854C405.316 442.634 405.276 442.438 405.123 442.264C404.97 442.091 404.781 442.027 404.554 442.072C404.327 442.118 404.177 442.251 404.103 442.47C404.094 442.497 404.082 442.522 404.066 442.546C403.994 442.661 403.925 442.844 403.86 443.096C403.845 443.153 403.833 443.192 403.825 443.213C403.806 443.259 403.78 443.3 403.747 443.335C403.649 443.437 403.531 443.47 403.394 443.433C403.281 443.403 403.202 443.334 403.156 443.227C403.135 443.179 403.125 443.125 403.125 443.064H403.484L403.126 443.089C403.09 442.578 402.977 442.083 402.787 441.607L403.12 441.474L402.833 441.69C402.71 441.525 402.55 441.41 402.355 441.345L402.469 441.004L402.404 441.358C402.128 441.307 401.852 441.307 401.576 441.358L401.511 441.004L401.604 441.351C401.412 441.403 401.258 441.51 401.143 441.672L400.85 441.464L401.194 441.568C401.049 442.046 400.965 442.535 400.94 443.034C400.939 443.056 400.936 443.078 400.931 443.1C400.926 443.122 400.919 443.143 400.909 443.163C400.9 443.184 400.889 443.203 400.877 443.221C400.864 443.24 400.849 443.257 400.833 443.272C400.818 443.288 400.8 443.302 400.782 443.315C400.763 443.327 400.743 443.338 400.723 443.347C400.702 443.355 400.681 443.362 400.659 443.367C400.637 443.372 400.615 443.375 400.593 443.375C400.569 443.376 400.546 443.374 400.523 443.371C400.499 443.367 400.477 443.361 400.455 443.352C400.433 443.344 400.412 443.334 400.392 443.321C400.372 443.309 400.353 443.294 400.336 443.278C400.319 443.262 400.303 443.244 400.289 443.225C400.276 443.206 400.264 443.186 400.254 443.164C400.245 443.143 400.237 443.12 400.232 443.097C400.226 443.074 400.223 443.051 400.223 443.028C400.205 442.464 400.092 441.92 399.884 441.396L400.218 441.263L399.926 441.473C399.797 441.294 399.623 441.181 399.406 441.136L399.48 440.784L399.42 441.138C399.178 441.097 398.939 441.113 398.704 441.185L398.599 440.842L398.727 441.177C398.495 441.266 398.356 441.433 398.309 441.678C398.283 441.806 398.281 442.121 398.303 442.624C398.312 442.828 398.316 442.969 398.316 443.045C398.316 443.068 398.314 443.091 398.309 443.114C398.305 443.136 398.298 443.158 398.29 443.18C398.281 443.201 398.27 443.221 398.258 443.241C398.245 443.26 398.231 443.278 398.215 443.295C398.199 443.311 398.181 443.326 398.162 443.339C398.143 443.353 398.123 443.364 398.102 443.373C398.081 443.383 398.059 443.39 398.037 443.395C398.014 443.4 397.992 443.403 397.969 443.404C397.945 443.405 397.922 443.403 397.898 443.399C397.875 443.396 397.852 443.39 397.83 443.381C397.808 443.373 397.787 443.363 397.767 443.35C397.747 443.338 397.728 443.323 397.711 443.307C397.694 443.291 397.678 443.274 397.665 443.254C397.651 443.235 397.639 443.215 397.629 443.193C397.62 443.172 397.612 443.15 397.607 443.127C397.601 443.104 397.598 443.081 397.598 443.057C397.595 442.967 397.526 442.563 397.391 441.844C397.27 441.202 397.187 440.739 397.142 440.458C397.141 440.453 397.141 440.449 397.14 440.444C397.064 439.815 396.906 439.207 396.666 438.621C396.663 438.613 396.66 438.605 396.657 438.597C396.513 438.159 396.256 437.802 395.885 437.528L396.098 437.239L395.952 437.567C395.635 437.426 395.351 437.474 395.099 437.712L394.853 437.45L395.172 437.615C394.92 438.102 394.848 438.614 394.956 439.152C394.957 439.159 394.958 439.166 394.959 439.173C395.023 439.632 395.109 440.084 395.219 440.529C395.259 440.678 395.308 440.879 395.369 441.133C395.433 441.403 395.485 441.609 395.524 441.751C395.535 441.788 395.549 441.838 395.567 441.902C395.647 442.188 395.724 442.492 395.797 442.812C395.912 443.319 396.029 443.996 396.147 444.844L395.791 444.894L396.139 444.802C396.16 444.882 396.173 444.944 396.177 444.988C396.184 445.052 396.178 445.11 396.161 445.164C396.087 445.391 395.936 445.471 395.707 445.403C395.617 445.376 395.517 445.286 395.407 445.134C395.364 445.075 395.331 445.03 395.307 445C395.248 444.924 395.182 444.836 395.111 444.737C395.049 444.649 394.994 444.575 394.946 444.515C394.944 444.512 394.942 444.51 394.94 444.508C394.746 444.252 394.533 444.015 394.3 443.795C394.297 443.793 394.295 443.791 394.293 443.789C393.982 443.48 393.612 443.282 393.182 443.196L393.253 442.844L393.213 443.201C392.986 443.175 392.78 443.228 392.593 443.359C392.406 443.489 392.286 443.665 392.232 443.887C392.231 443.89 392.23 443.893 392.23 443.896C392.165 444.135 392.199 444.359 392.33 444.568C392.335 444.576 392.34 444.584 392.344 444.591C392.434 444.762 392.707 445.127 393.162 445.687C393.448 446.039 393.638 446.283 393.733 446.418C393.938 446.725 394.186 447.127 394.476 447.625C394.686 447.986 394.83 448.215 394.906 448.314L394.623 448.534L394.893 448.298L395.698 449.218Z" fill="black"/>
<path d="M402.747 449.057V445.751C402.747 445.553 402.586 445.392 402.388 445.392C402.189 445.392 402.028 445.553 402.028 445.751V449.057C402.028 449.255 402.189 449.416 402.388 449.416C402.586 449.416 402.747 449.255 402.747 449.057Z" fill="black"/>
<path d="M400.85 449.056L400.831 445.748C400.83 445.55 400.668 445.391 400.469 445.392C400.271 445.393 400.111 445.554 400.112 445.752L400.131 449.06C400.133 449.258 400.294 449.417 400.493 449.416C400.691 449.415 400.851 449.254 400.85 449.056Z" fill="black"/>
<path d="M398.196 445.755L398.215 449.057C398.216 449.256 398.378 449.417 398.577 449.416C398.775 449.415 398.935 449.252 398.934 449.053L398.915 445.751C398.913 445.552 398.752 445.391 398.553 445.392C398.355 445.393 398.195 445.556 398.196 445.755Z" fill="black"/>
</g>
</g>
</g>
</g>
<defs>
<filter id="filter0_f_1_2053" x="277.86" y="380.225" width="323.766" height="312.143" filterUnits="userSpaceOnUse" color-interpolation-filters="sRGB">
<feFlood flood-opacity="0" result="BackgroundImageFix"/>
<feBlend mode="normal" in="SourceGraphic" in2="BackgroundImageFix" result="shape"/>
<feGaussianBlur stdDeviation="19.6396" result="effect1_foregroundBlur_1_2053"/>
</filter>
<filter id="filter1_f_1_2053" x="303.089" y="404.307" width="273.307" height="263.979" filterUnits="userSpaceOnUse" color-interpolation-filters="sRGB">
<feFlood flood-opacity="0" result="BackgroundImageFix"/>
<feBlend mode="normal" in="SourceGraphic" in2="BackgroundImageFix" result="shape"/>
<feGaussianBlur stdDeviation="19.6396" result="effect1_foregroundBlur_1_2053"/>
</filter>
<filter id="filter2_f_1_2053" x="326.657" y="430.31" width="202.936" height="195.167" filterUnits="userSpaceOnUse" color-interpolation-filters="sRGB">
<feFlood flood-opacity="0" result="BackgroundImageFix"/>
<feBlend mode="normal" in="SourceGraphic" in2="BackgroundImageFix" result="shape"/>
<feGaussianBlur stdDeviation="14.8494" result="effect1_foregroundBlur_1_2053"/>
</filter>
<filter id="filter3_f_1_2053" x="390.883" y="249.367" width="183.941" height="157.117" filterUnits="userSpaceOnUse" color-interpolation-filters="sRGB">
<feFlood flood-opacity="0" result="BackgroundImageFix"/>
<feBlend mode="normal" in="SourceGraphic" in2="BackgroundImageFix" result="shape"/>
<feGaussianBlur stdDeviation="24.4297" result="effect1_foregroundBlur_1_2053"/>
</filter>
<filter id="filter4_f_1_2053" x="430.162" y="333.674" width="172.445" height="172.445" filterUnits="userSpaceOnUse" color-interpolation-filters="sRGB">
<feFlood flood-opacity="0" result="BackgroundImageFix"/>
<feBlend mode="normal" in="SourceGraphic" in2="BackgroundImageFix" result="shape"/>
<feGaussianBlur stdDeviation="24.4297" result="effect1_foregroundBlur_1_2053"/>
</filter>
<filter id="filter5_f_1_2053" x="62.4827" y="254.84" width="335.827" height="358.388" filterUnits="userSpaceOnUse" color-interpolation-filters="sRGB">
<feFlood flood-opacity="0" result="BackgroundImageFix"/>
<feBlend mode="normal" in="SourceGraphic" in2="BackgroundImageFix" result="shape"/>
<feGaussianBlur stdDeviation="29.2198" result="effect1_foregroundBlur_1_2053"/>
</filter>
<filter id="filter6_f_1_2053" x="89.7978" y="363.933" width="216.839" height="231.957" filterUnits="userSpaceOnUse" color-interpolation-filters="sRGB">
<feFlood flood-opacity="0" result="BackgroundImageFix"/>
<feBlend mode="normal" in="SourceGraphic" in2="BackgroundImageFix" result="shape"/>
<feGaussianBlur stdDeviation="24.4297" result="effect1_foregroundBlur_1_2053"/>
</filter>
<filter id="filter7_d_1_2053" x="390.711" y="436.78" width="16.058" height="17.1065" filterUnits="userSpaceOnUse" color-interpolation-filters="sRGB">
<feFlood flood-opacity="0" result="BackgroundImageFix"/>
<feColorMatrix in="SourceAlpha" type="matrix" values="0 0 0 0 0 0 0 0 0 0 0 0 0 0 0 0 0 0 127 0" result="hardAlpha"/>
<feOffset dy="0.958027"/>
<feGaussianBlur stdDeviation="0.383211"/>
<feColorMatrix type="matrix" values="0 0 0 0 0 0 0 0 0 0 0 0 0 0 0 0 0 0 0.5 0"/>
<feBlend mode="normal" in2="BackgroundImageFix" result="effect1_dropShadow_1_2053"/>
<feBlend mode="normal" in="SourceGraphic" in2="effect1_dropShadow_1_2053" result="shape"/>
</filter>
<clipPath id="clip0_1_2053">
<rect width="570.984" height="558.53" fill="white" transform="translate(0.0078125 0.280029)"/>
</clipPath>
</defs>
</svg>
