<svg width="571" height="559" viewBox="0 0 571 559" fill="none" xmlns="http://www.w3.org/2000/svg">
<path d="M570.992 0.220001H0.0078125V558.75H570.992V0.220001Z" fill="#151A24"/>
<mask id="mask0_1_1810" style="mask-type:luminance" maskUnits="userSpaceOnUse" x="0" y="0" width="571" height="559">
<path d="M570.992 0.220001H0.0078125V558.75H570.992V0.220001Z" fill="white"/>
</mask>
<g mask="url(#mask0_1_1810)">
<path d="M-7.74231 -52.3311C-61.1228 -32.4707 -73.1244 90.11 -43.7473 315.411C-16.8779 256.481 25.7547 235.807 84.1506 253.388C171.745 279.76 234.619 298.318 297.494 219.202C344.318 160.281 406.047 158.514 458.483 157.013C476.454 156.498 493.335 156.015 508.15 153.273C566.187 142.528 616.164 68.7841 567.799 -16.6801C535.556 -73.6565 343.709 -85.5402 -7.74231 -52.3311Z" fill="#21252F"/>
</g>
<path d="M470.399 234.937H100.601C94.2513 234.937 89.1042 240.084 89.1042 246.433V518.513C89.1042 524.862 94.2513 530.009 100.601 530.009H470.399C476.748 530.009 481.896 524.862 481.896 518.513V246.433C481.896 240.084 476.748 234.937 470.399 234.937Z" fill="#460BF9"/>
<mask id="mask1_1_1810" style="mask-type:luminance" maskUnits="userSpaceOnUse" x="119" y="479" width="17" height="16">
<path d="M135.09 479.234H119.761V494.562H135.09V479.234Z" fill="white"/>
</mask>
<g mask="url(#mask1_1_1810)">
<path d="M124.576 493.604C130.361 493.604 133.525 488.811 133.525 484.662C133.525 484.528 133.525 484.392 133.519 484.258C134.136 483.812 134.667 483.26 135.09 482.627C134.514 482.881 133.904 483.048 133.28 483.123C133.938 482.73 134.43 482.112 134.666 481.383C134.048 481.749 133.372 482.006 132.667 482.142C132.193 481.638 131.565 481.303 130.882 481.191C130.199 481.079 129.497 481.195 128.887 481.522C128.276 481.848 127.79 482.367 127.504 482.998C127.219 483.629 127.149 484.336 127.306 485.011C126.055 484.948 124.832 484.623 123.715 484.057C122.598 483.491 121.613 482.697 120.823 481.726C120.422 482.418 120.299 483.238 120.48 484.018C120.662 484.797 121.133 485.479 121.798 485.924C121.299 485.907 120.812 485.773 120.374 485.533V485.576C120.375 486.302 120.627 487.005 121.086 487.567C121.546 488.128 122.185 488.514 122.896 488.659C122.626 488.733 122.347 488.77 122.067 488.769C121.87 488.77 121.673 488.751 121.479 488.715C121.68 489.339 122.071 489.885 122.598 490.277C123.125 490.668 123.761 490.884 124.417 490.896C123.303 491.771 121.926 492.246 120.508 492.244C120.259 492.245 120.009 492.231 119.761 492.201C121.2 493.118 122.87 493.605 124.576 493.604Z" fill="white"/>
</g>
<mask id="mask2_1_1810" style="mask-type:luminance" maskUnits="userSpaceOnUse" x="203" y="479" width="16" height="16">
<path d="M218.438 479.234H203.11V494.562H218.438V479.234Z" fill="white"/>
</mask>
<g mask="url(#mask2_1_1810)">
<path d="M203.11 480.332C203.11 479.725 203.614 479.234 204.235 479.234H217.312C217.934 479.234 218.438 479.725 218.438 480.332V493.464C218.438 494.071 217.934 494.562 217.312 494.562H204.235C203.614 494.562 203.11 494.071 203.11 493.464V480.332ZM207.845 492.066V485.144H205.545V492.066H207.845ZM206.696 484.198C207.497 484.198 207.997 483.667 207.997 483.003C207.982 482.323 207.498 481.807 206.711 481.807C205.923 481.807 205.409 482.324 205.409 483.003C205.409 483.667 205.908 484.198 206.68 484.198H206.696ZM211.398 492.066V488.2C211.398 487.993 211.413 487.786 211.474 487.638C211.64 487.226 212.018 486.797 212.654 486.797C213.487 486.797 213.819 487.432 213.819 488.363V492.066H216.12V488.095C216.12 485.969 214.985 484.98 213.472 484.98C212.251 484.98 211.704 485.651 211.398 486.123V486.147H211.382C211.387 486.139 211.392 486.131 211.398 486.123V485.144H209.098C209.117 485.577 209.117 487.884 209.098 492.066H211.398Z" fill="white"/>
</g>
<mask id="mask3_1_1810" style="mask-type:luminance" maskUnits="userSpaceOnUse" x="200" y="298" width="23" height="23">
<path d="M222.27 320.201V298.167H200.235V320.201H222.27Z" fill="white"/>
</mask>
<g mask="url(#mask3_1_1810)">
<path fill-rule="evenodd" clip-rule="evenodd" d="M211.954 303.078L217.41 308.534C217.562 308.686 217.656 308.887 217.676 309.101C217.678 309.129 217.679 309.156 217.679 309.184C217.679 309.423 217.586 309.653 217.419 309.824L217.411 309.832C217.239 310.005 217.005 310.102 216.761 310.102C216.518 310.102 216.284 310.005 216.112 309.833L212.175 305.895V314.692C212.175 315.199 211.764 315.61 211.256 315.61C210.749 315.61 210.338 315.199 210.338 314.692V305.888L206.393 309.833C206.221 310.005 205.988 310.102 205.744 310.102C205.501 310.102 205.267 310.005 205.095 309.833C204.923 309.661 204.826 309.427 204.826 309.184C204.826 308.94 204.923 308.707 205.095 308.534L210.603 303.026C210.776 302.854 211.009 302.757 211.253 302.757C211.496 302.757 211.73 302.854 211.902 303.026L211.954 303.078Z" fill="#05C168"/>
</g>
<path d="M228.612 303.565V304.743H228.358C227.28 304.763 226.422 305.092 225.783 305.731C225.144 306.366 224.775 307.251 224.675 308.385C225.247 307.727 226.031 307.398 227.025 307.398C227.973 307.398 228.73 307.72 229.296 308.366C229.861 309.008 230.144 309.838 230.144 310.855C230.144 311.937 229.838 312.801 229.226 313.45C228.617 314.099 227.799 314.423 226.771 314.423C225.726 314.423 224.88 314.031 224.231 313.246C223.582 312.457 223.258 311.443 223.258 310.202V309.683C223.258 307.714 223.686 306.208 224.54 305.167C225.399 304.123 226.673 303.589 228.363 303.565H228.612ZM226.791 308.55C226.318 308.55 225.883 308.685 225.483 308.954C225.084 309.224 224.807 309.561 224.65 309.967V310.446C224.65 311.294 224.851 311.978 225.254 312.497C225.66 313.016 226.165 313.275 226.771 313.275C227.393 313.275 227.882 313.059 228.238 312.627C228.597 312.191 228.777 311.622 228.777 310.92C228.777 310.212 228.595 309.64 228.233 309.204C227.87 308.768 227.39 308.55 226.791 308.55ZM238.631 309.773C238.631 311.343 238.354 312.51 237.798 313.275C237.246 314.041 236.381 314.423 235.203 314.423C234.043 314.423 233.183 314.051 232.624 313.305C232.065 312.557 231.776 311.439 231.756 309.952V308.161C231.756 306.607 232.032 305.453 232.584 304.698C233.139 303.943 234.008 303.565 235.189 303.565C236.363 303.565 237.226 303.93 237.778 304.658C238.334 305.387 238.618 306.511 238.631 308.031V309.773ZM237.249 307.941C237.249 306.814 237.085 305.992 236.755 305.476C236.426 304.961 235.904 304.703 235.189 304.703C234.48 304.703 233.963 304.961 233.637 305.476C233.314 305.989 233.148 306.777 233.138 307.842V309.972C233.138 311.103 233.309 311.94 233.652 312.482C233.994 313.021 234.512 313.29 235.203 313.29C235.889 313.29 236.396 313.036 236.725 312.527C237.058 312.018 237.233 311.216 237.249 310.122V307.941ZM240.303 305.836C240.303 305.177 240.511 304.635 240.927 304.209C241.343 303.78 241.878 303.565 242.533 303.565C243.195 303.565 243.733 303.782 244.145 304.214C244.558 304.643 244.764 305.199 244.764 305.881V306.42C244.764 307.082 244.554 307.624 244.135 308.046C243.719 308.465 243.19 308.675 242.548 308.675C241.9 308.675 241.362 308.465 240.937 308.046C240.514 307.624 240.303 307.063 240.303 306.365V305.836ZM241.336 306.42C241.336 306.815 241.446 307.141 241.665 307.398C241.885 307.65 242.179 307.777 242.548 307.777C242.901 307.777 243.185 307.654 243.402 307.408C243.621 307.158 243.731 306.819 243.731 306.39V305.836C243.731 305.443 243.623 305.119 243.407 304.863C243.194 304.603 242.903 304.474 242.533 304.474C242.164 304.474 241.871 304.603 241.655 304.863C241.442 305.119 241.336 305.453 241.336 305.866V306.42ZM245.607 311.574C245.607 310.915 245.815 310.375 246.231 309.952C246.65 309.526 247.185 309.314 247.837 309.314C248.493 309.314 249.03 309.525 249.449 309.947C249.868 310.37 250.078 310.93 250.078 311.629V312.163C250.078 312.821 249.868 313.364 249.449 313.789C249.033 314.212 248.501 314.423 247.852 314.423C247.204 314.423 246.667 314.214 246.241 313.794C245.818 313.375 245.607 312.816 245.607 312.118V311.574ZM246.64 312.163C246.64 312.562 246.75 312.89 246.969 313.146C247.189 313.398 247.483 313.525 247.852 313.525C248.212 313.525 248.498 313.4 248.711 313.151C248.927 312.901 249.035 312.562 249.035 312.133V311.574C249.035 311.175 248.927 310.85 248.711 310.601C248.494 310.348 248.203 310.222 247.837 310.222C247.485 310.222 247.197 310.346 246.974 310.596C246.751 310.845 246.64 311.181 246.64 311.604V312.163ZM242.863 313.465L242.074 312.991L247.398 304.843L248.182 305.317L242.863 313.465Z" fill="#05C168"/>
<path d="M121.121 271.175V269.647H116.759V261.675H115.153V271.175H121.121ZM123.649 267.241C123.701 266.534 124.264 265.774 125.242 265.774C126.316 265.774 126.827 266.469 126.854 267.241H123.649ZM127.028 268.957C126.814 269.612 126.33 270.114 125.391 270.114C124.426 270.114 123.649 269.394 123.61 268.381H128.382C128.395 268.355 128.425 268.141 128.425 267.887C128.425 265.8 127.242 264.469 125.229 264.469C123.579 264.469 122.051 265.84 122.051 267.927C122.051 270.171 123.623 271.455 125.391 271.455C126.963 271.455 127.993 270.533 128.342 269.381L127.028 268.957ZM129.425 269.477C129.425 270.516 130.268 271.455 131.639 271.455C132.695 271.455 133.341 270.922 133.651 270.424C133.651 270.869 133.704 271.136 133.717 271.175H135.166C135.153 271.11 135.083 270.721 135.083 270.132V266.905C135.083 265.613 134.319 264.469 132.307 264.469C130.7 264.469 129.678 265.477 129.556 266.599L130.979 266.918C131.045 266.263 131.503 265.744 132.32 265.744C133.18 265.744 133.555 266.185 133.555 266.73C133.555 266.958 133.446 267.145 133.071 267.198L131.394 267.451C130.281 267.612 129.425 268.25 129.425 269.411V269.477ZM131.931 270.158C131.316 270.158 130.979 269.756 130.979 269.32C130.979 268.782 131.368 268.516 131.853 268.438L133.555 268.184V268.477C133.555 269.743 132.804 270.158 131.931 270.158ZM138.14 267.949C138.14 266.665 138.891 265.853 139.908 265.853C140.93 265.853 141.624 266.652 141.624 267.935C141.624 269.219 140.916 270.088 139.895 270.088C138.834 270.088 138.14 269.232 138.14 267.949ZM143.126 261.395H141.611V265.412C141.41 264.993 140.833 264.469 139.694 264.469C137.856 264.469 136.581 266.019 136.581 267.949C136.581 269.979 137.843 271.455 139.72 271.455C140.646 271.455 141.331 271 141.637 270.45C141.637 270.599 141.681 271.031 141.707 271.175H143.195C143.182 271.07 143.126 270.573 143.126 269.983V261.395ZM144.619 269.477C144.697 270.223 145.422 271.455 147.313 271.455C148.976 271.455 149.784 270.359 149.784 269.354C149.784 268.376 149.138 267.617 147.906 267.346L146.911 267.141C146.509 267.062 146.256 266.805 146.256 266.451C146.256 266.045 146.645 265.691 147.195 265.691C148.064 265.691 148.347 266.303 148.4 266.682L149.714 266.303C149.609 265.652 149.02 264.469 147.195 264.469C145.837 264.469 144.793 265.438 144.793 266.586C144.793 267.495 145.396 268.254 146.549 268.512L147.513 268.73C148.037 268.839 148.282 269.11 148.282 269.464C148.282 269.87 147.946 270.223 147.3 270.223C146.47 270.223 146.025 269.695 145.972 269.097L144.619 269.477ZM159.053 271.455C161.48 271.455 162.93 269.913 163.362 268.272L161.886 267.778C161.563 268.874 160.651 269.913 159.053 269.913C157.433 269.913 155.901 268.708 155.901 266.434C155.901 264.08 157.472 262.915 159.04 262.915C160.638 262.915 161.524 263.858 161.803 265.036L163.318 264.517C162.891 262.819 161.454 261.395 159.04 261.395C156.573 261.395 154.255 263.268 154.255 266.434C154.255 269.599 156.494 271.455 159.053 271.455ZM164.353 269.477C164.353 270.516 165.196 271.455 166.567 271.455C167.623 271.455 168.27 270.922 168.579 270.424C168.579 270.869 168.632 271.136 168.645 271.175H170.094C170.081 271.11 170.011 270.721 170.011 270.132V266.905C170.011 265.613 169.247 264.469 167.235 264.469C165.628 264.469 164.606 265.477 164.484 266.599L165.907 266.918C165.973 266.263 166.431 265.744 167.248 265.744C168.108 265.744 168.483 266.185 168.483 266.73C168.483 266.958 168.374 267.145 167.999 267.198L166.322 267.451C165.209 267.612 164.353 268.25 164.353 269.411V269.477ZM166.859 270.158C166.244 270.158 165.907 269.756 165.907 269.32C165.907 268.782 166.296 268.516 166.781 268.438L168.483 268.184V268.477C168.483 269.743 167.732 270.158 166.859 270.158ZM173.561 273.69V270.559C173.897 271.053 174.609 271.455 175.548 271.455C177.425 271.455 178.617 269.979 178.617 267.949C178.617 265.949 177.534 264.469 175.6 264.469C174.596 264.469 173.845 264.94 173.522 265.504V264.748H172.02V273.69H173.561ZM177.063 268.018C177.063 269.267 176.338 270.075 175.307 270.075C174.286 270.075 173.548 269.267 173.548 268.018C173.548 266.687 174.286 265.853 175.307 265.853C176.351 265.853 177.063 266.687 177.063 267.949V268.018ZM182.097 262.792H180.686V263.753C180.686 264.316 180.376 264.748 179.682 264.748H179.346V266.132H180.551V269.258C180.551 270.455 181.302 271.175 182.511 271.175C183.075 271.175 183.367 271.07 183.463 271.031V269.743C183.398 269.756 183.14 269.795 182.926 269.795C182.35 269.795 182.097 269.564 182.097 269.018V266.132H183.45V264.748H182.097V262.792ZM189.405 270.455C189.405 270.721 189.431 271.031 189.458 271.175H190.946C190.92 270.935 190.881 270.52 190.881 269.983V264.748H189.322V268.538C189.322 269.376 188.855 269.97 187.956 269.97C187.017 269.97 186.642 269.298 186.642 268.512V264.748H185.087V268.787C185.087 270.302 185.996 271.455 187.554 271.455C188.318 271.455 189.082 271.136 189.405 270.546V270.455ZM196.801 264.513C196.731 264.499 196.57 264.469 196.382 264.469C195.526 264.469 194.802 264.888 194.492 265.6V264.748H192.977V271.175H194.531V268.115C194.531 266.765 195.081 266.054 196.291 266.054C196.452 266.054 196.627 266.067 196.801 266.097V264.513ZM199.093 267.241C199.146 266.534 199.709 265.774 200.687 265.774C201.761 265.774 202.272 266.469 202.298 267.241H199.093ZM202.473 268.957C202.259 269.612 201.774 270.114 200.836 270.114C199.871 270.114 199.093 269.394 199.054 268.381H203.826C203.839 268.355 203.87 268.141 203.87 267.887C203.87 265.8 202.687 264.469 200.674 264.469C199.024 264.469 197.496 265.84 197.496 267.927C197.496 270.171 199.067 271.455 200.836 271.455C202.407 271.455 203.438 270.533 203.787 269.381L202.473 268.957Z" fill="white" fill-opacity="0.5"/>
<path d="M125.499 316.309H121.877V299.015L116.528 300.861V297.787L125.03 294.594H125.499V316.309ZM133.643 321.219L131.677 320.052C132.255 319.147 132.651 318.355 132.864 317.676C133.084 317.004 133.197 316.319 133.203 315.621V312.786H136.487L136.467 315.411C136.46 316.469 136.194 317.53 135.668 318.594C135.143 319.659 134.468 320.534 133.643 321.219ZM154.569 316.309H139.92V313.854L147.175 306.07C148.226 304.933 148.971 303.981 149.41 303.216C149.856 302.451 150.079 301.683 150.079 300.911C150.079 299.9 149.786 299.081 149.201 298.456C148.622 297.831 147.837 297.518 146.845 297.518C145.668 297.518 144.753 297.877 144.101 298.596C143.456 299.314 143.133 300.299 143.133 301.55H139.501C139.501 300.219 139.8 299.021 140.399 297.957C141.004 296.892 141.869 296.068 142.993 295.482C144.118 294.89 145.412 294.594 146.875 294.594C148.991 294.594 150.661 295.116 151.885 296.161C153.109 297.205 153.721 298.649 153.721 300.492C153.721 301.563 153.412 302.684 152.793 303.855C152.181 305.026 151.176 306.353 149.779 307.837L144.45 313.405H154.569V316.309ZM168.481 294.594V297.608H168.032C165.996 297.634 164.369 298.153 163.152 299.165C161.934 300.176 161.209 301.606 160.976 303.456C162.147 302.232 163.641 301.619 165.457 301.619C167.38 301.619 168.897 302.298 170.008 303.655C171.125 305.006 171.684 306.752 171.684 308.894C171.684 311.103 171.032 312.893 169.728 314.263C168.424 315.627 166.715 316.309 164.599 316.309C162.423 316.309 160.66 315.524 159.31 313.954C157.959 312.384 157.284 310.325 157.284 307.777V306.559C157.284 302.82 158.212 299.893 160.068 297.777C161.931 295.655 164.609 294.594 168.102 294.594H168.481ZM164.569 304.553C163.771 304.553 163.039 304.776 162.373 305.222C161.715 305.668 161.229 306.263 160.916 307.008V308.116C160.916 309.726 161.256 311.007 161.934 311.958C162.613 312.903 163.491 313.375 164.569 313.375C165.647 313.375 166.498 312.973 167.124 312.168C167.756 311.363 168.072 310.305 168.072 308.994C168.072 307.684 167.752 306.616 167.114 305.791C166.475 304.966 165.627 304.553 164.569 304.553ZM186.713 308.645H189.418V311.569H186.713V316.309H183.071V311.569H173.66L173.55 309.354L182.951 294.594H186.713V308.645ZM177.373 308.645H183.071V299.504L182.801 299.983L177.373 308.645Z" fill="white"/>
<mask id="mask4_1_1810" style="mask-type:luminance" maskUnits="userSpaceOnUse" x="276" y="478" width="19" height="18">
<path d="M294.122 478.276H276.878V495.52H294.122V478.276Z" fill="white"/>
</mask>
<g mask="url(#mask4_1_1810)">
<path d="M291.851 479.357H279.146C278.496 479.357 277.964 479.889 277.964 480.539V493.245C277.964 493.895 278.496 494.426 279.146 494.426H291.851C292.501 494.426 293.033 493.895 293.033 493.245V480.539C293.033 479.889 292.501 479.357 291.851 479.357ZM290.184 487.842H288.665V493.54H286.575V487.842H285.055V485.942H286.575V483.663C286.575 482.713 287.41 482.245 287.905 482.143C288.308 482.06 289.099 482.029 290.279 482.048V484.138H288.949C288.696 484.138 288.569 484.264 288.569 484.517V485.942H290.374L290.184 487.842Z" fill="white"/>
</g>
<mask id="mask5_1_1810" style="mask-type:luminance" maskUnits="userSpaceOnUse" x="349" y="476" width="22" height="22">
<path d="M370.764 476.36H349.688V497.436H370.764V476.36Z" fill="white"/>
</mask>
<g mask="url(#mask5_1_1810)">
<path d="M369.008 481.629C369.008 480.659 368.222 479.872 367.252 479.872H353.2C352.23 479.872 351.444 480.659 351.444 481.629V492.167C351.444 493.137 352.23 493.923 353.2 493.923H367.252C368.222 493.923 369.008 493.137 369.008 492.167V481.629ZM366.812 492.167H365.934C365.692 492.167 365.495 491.97 365.495 491.728V483.71L360.595 487.636C360.488 487.716 360.36 487.765 360.226 487.776H360.068C359.919 487.774 359.775 487.725 359.655 487.636L354.957 483.903V491.728C354.957 491.97 354.76 492.167 354.518 492.167H353.64C353.397 492.167 353.2 491.97 353.2 491.728V482.068C353.2 481.825 353.397 481.629 353.64 481.629H354.614C354.812 481.63 355.004 481.698 355.159 481.822L360.103 485.774L365.056 481.822C365.211 481.698 365.402 481.63 365.601 481.629H366.812C367.055 481.629 367.252 481.825 367.252 482.068V491.728C367.252 491.97 367.055 492.167 366.812 492.167Z" fill="white"/>
</g>
<mask id="mask6_1_1810" style="mask-type:luminance" maskUnits="userSpaceOnUse" x="425" y="477" width="20" height="20">
<path d="M444.532 477.318H425.372V496.478H444.532V477.318Z" fill="white"/>
</mask>
<g mask="url(#mask6_1_1810)">
<path d="M438.085 491.293L439.657 483.883C439.721 483.569 439.683 483.345 439.544 483.209C439.405 483.074 439.222 483.049 438.994 483.134L429.756 486.695C429.549 486.773 429.408 486.862 429.333 486.962C429.258 487.062 429.25 487.156 429.307 487.245C429.364 487.335 429.478 487.404 429.649 487.454L432.012 488.192L437.497 484.738C437.647 484.638 437.761 484.617 437.839 484.674C437.889 484.71 437.875 484.763 437.796 484.834L433.359 488.844L433.188 491.282C433.352 491.282 433.512 491.203 433.669 491.047L434.824 489.935L437.219 491.699C437.675 491.955 437.964 491.82 438.085 491.293ZM444.532 486.898C444.532 488.195 444.279 489.436 443.773 490.619C443.267 491.802 442.586 492.822 441.731 493.677C440.876 494.532 439.856 495.213 438.673 495.719C437.49 496.225 436.249 496.478 434.952 496.478C433.655 496.478 432.414 496.225 431.231 495.719C430.048 495.213 429.029 494.532 428.173 493.677C427.318 492.822 426.637 491.802 426.131 490.619C425.625 489.436 425.372 488.195 425.372 486.898C425.372 485.601 425.625 484.36 426.131 483.177C426.637 481.994 427.318 480.974 428.173 480.119C429.029 479.264 430.048 478.583 431.231 478.077C432.414 477.571 433.655 477.318 434.952 477.318C436.249 477.318 437.49 477.571 438.673 478.077C439.856 478.583 440.876 479.264 441.731 480.119C442.586 480.974 443.267 481.994 443.773 483.177C444.279 484.36 444.532 485.601 444.532 486.898Z" fill="white"/>
</g>
<path d="M371.363 273.58H362.207V272.045L366.741 267.18C367.398 266.469 367.864 265.875 368.139 265.397C368.417 264.918 368.556 264.438 368.556 263.956C368.556 263.324 368.373 262.812 368.008 262.421C367.646 262.031 367.155 261.835 366.536 261.835C365.8 261.835 365.228 262.06 364.82 262.509C364.417 262.958 364.215 263.573 364.215 264.355H361.945C361.945 263.523 362.132 262.775 362.506 262.11C362.885 261.444 363.425 260.929 364.128 260.563C364.831 260.193 365.64 260.008 366.554 260.008C367.877 260.008 368.92 260.334 369.685 260.987C370.45 261.64 370.833 262.542 370.833 263.694C370.833 264.363 370.64 265.064 370.253 265.796C369.87 266.528 369.243 267.357 368.369 268.284L365.039 271.765H371.363V273.58ZM381.86 267.835C381.86 269.735 381.494 271.168 380.763 272.133C380.031 273.097 378.916 273.58 377.419 273.58C375.947 273.58 374.837 273.11 374.089 272.17C373.345 271.23 372.964 269.837 372.947 267.991V265.702C372.947 263.806 373.313 262.384 374.045 261.436C374.777 260.484 375.895 260.008 377.401 260.008C378.889 260.008 380 260.471 380.731 261.398C381.467 262.322 381.844 263.706 381.86 265.552V267.835ZM379.59 265.384C379.59 264.162 379.415 263.265 379.066 262.696C378.717 262.122 378.162 261.835 377.401 261.835C376.656 261.835 376.11 262.105 375.76 262.646C375.411 263.186 375.228 264.031 375.211 265.178V268.141C375.211 269.359 375.388 270.268 375.742 270.866C376.099 271.465 376.658 271.765 377.419 271.765C378.147 271.765 378.686 271.488 379.035 270.935C379.384 270.382 379.569 269.517 379.59 268.34V265.384ZM392.919 273.58H383.763V272.045L388.297 267.18C388.954 266.469 389.42 265.875 389.694 265.397C389.973 264.918 390.112 264.438 390.112 263.956C390.112 263.324 389.929 262.812 389.563 262.421C389.201 262.031 388.711 261.835 388.091 261.835C387.355 261.835 386.784 262.06 386.376 262.509C385.973 262.958 385.771 263.573 385.771 264.355H383.501C383.501 263.523 383.688 262.775 384.062 262.11C384.44 261.444 384.981 260.929 385.684 260.563C386.386 260.193 387.195 260.008 388.11 260.008C389.432 260.008 390.476 260.334 391.241 260.987C392.006 261.64 392.389 262.542 392.389 263.694C392.389 264.363 392.195 265.064 391.809 265.796C391.426 266.528 390.798 267.357 389.925 268.284L386.594 271.765H392.919V273.58ZM397.166 265.596H398.551C399.25 265.592 399.803 265.428 400.21 265.103C400.622 264.779 400.827 264.311 400.827 263.7C400.827 263.11 400.657 262.652 400.316 262.328C399.975 261.999 399.455 261.835 398.757 261.835C398.146 261.835 397.642 262.012 397.247 262.365C396.856 262.719 396.661 263.178 396.661 263.744H394.391C394.391 263.045 394.576 262.409 394.946 261.835C395.316 261.261 395.834 260.814 396.499 260.494C397.164 260.17 397.908 260.008 398.732 260.008C400.091 260.008 401.158 260.332 401.932 260.981C402.709 261.625 403.098 262.521 403.098 263.669C403.098 264.247 402.902 264.792 402.512 265.303C402.125 265.814 401.622 266.199 401.002 266.457C401.751 266.71 402.32 267.11 402.711 267.654C403.102 268.199 403.297 268.85 403.297 269.607C403.297 270.821 402.877 271.787 402.037 272.507C401.198 273.222 400.096 273.58 398.732 273.58C397.422 273.58 396.349 273.23 395.513 272.532C394.678 271.833 394.26 270.904 394.26 269.744H396.53C396.53 270.343 396.732 270.829 397.135 271.203C397.538 271.578 398.079 271.765 398.757 271.765C399.464 271.765 400.019 271.58 400.422 271.21C400.83 270.839 401.033 270.303 401.033 269.6C401.033 268.893 400.821 268.349 400.397 267.966C399.973 267.584 399.343 267.392 398.507 267.392H397.166V265.596ZM421.298 267.137C421.298 268.388 421.092 269.474 420.68 270.392C420.273 271.307 419.701 272.035 418.965 272.576L421.304 274.365L419.77 275.75L416.869 273.461C416.491 273.54 416.084 273.58 415.647 273.58C414.549 273.58 413.568 273.318 412.703 272.794C411.838 272.27 411.171 271.526 410.701 270.561C410.231 269.592 409.992 268.476 409.984 267.212V266.469C409.984 265.18 410.219 264.043 410.688 263.058C411.162 262.072 411.828 261.317 412.684 260.793C413.541 260.27 414.522 260.008 415.628 260.008C416.751 260.008 417.741 260.267 418.597 260.787C419.454 261.303 420.115 262.047 420.581 263.02C421.05 263.989 421.29 265.116 421.298 266.401V267.137ZM418.921 266.451C418.921 264.983 418.635 263.87 418.061 263.114C417.487 262.353 416.676 261.972 415.628 261.972C414.61 261.972 413.811 262.357 413.233 263.126C412.659 263.891 412.366 264.974 412.354 266.376V267.137C412.354 268.546 412.641 269.648 413.215 270.442C413.792 271.237 414.603 271.634 415.647 271.634C416.699 271.634 417.508 271.251 418.073 270.486C418.639 269.721 418.921 268.605 418.921 267.137V266.451ZM429.437 273.58H427.173V262.771L423.83 263.925V262.003L429.144 260.008H429.437V273.58Z" fill="white"/>
<mask id="mask7_1_1810" style="mask-type:luminance" maskUnits="userSpaceOnUse" x="439" y="258" width="18" height="19">
<path d="M456.987 258.887H439.742V276.132H456.987V258.887Z" fill="white"/>
</mask>
<g mask="url(#mask7_1_1810)">
<path fill-rule="evenodd" clip-rule="evenodd" d="M444.967 264.8C444.82 264.653 444.621 264.57 444.413 264.57C444.205 264.57 444.005 264.653 443.858 264.8C443.711 264.947 443.629 265.146 443.629 265.354C443.629 265.562 443.711 265.761 443.858 265.908L448.17 270.219C448.317 270.366 448.516 270.449 448.724 270.449C448.932 270.449 449.131 270.366 449.278 270.219L453.589 265.909C453.736 265.761 453.819 265.562 453.819 265.354C453.819 265.146 453.736 264.947 453.589 264.8C453.442 264.653 453.243 264.57 453.035 264.57C452.827 264.57 452.628 264.653 452.481 264.8L448.724 268.557L444.967 264.8Z" fill="white"/>
</g>
<path d="M451.239 353.732H114.013V354.69H451.239V353.732Z" fill="white" fill-opacity="0.12"/>
<path d="M451.239 391.095H114.013V392.053H451.239V391.095Z" fill="white" fill-opacity="0.12"/>
<path d="M451.239 428.458H114.013V429.416H451.239V428.458Z" fill="white" fill-opacity="0.12"/>
<path d="M451.239 465.821H114.013V466.779H451.239V465.821Z" fill="white" fill-opacity="0.12"/>
<path d="M131.257 387.263C131.257 384.618 133.402 382.473 136.047 382.473C138.693 382.473 140.838 384.618 140.838 387.263V465.821H131.257V387.263Z" fill="white"/>
<path d="M205.984 350.858C205.984 348.213 208.128 346.068 210.774 346.068C213.419 346.068 215.564 348.213 215.564 350.858V465.821H205.984V350.858Z" fill="white"/>
<path d="M280.71 413.13C280.71 410.484 282.854 408.34 285.5 408.34C288.145 408.34 290.29 410.484 290.29 413.13V465.821H280.71V413.13Z" fill="white"/>
<path d="M355.436 373.851C355.436 371.205 357.58 369.061 360.226 369.061C362.871 369.061 365.016 371.205 365.016 373.851V465.821H355.436V373.851Z" fill="white"/>
<path d="M430.162 426.542C430.162 423.897 432.307 421.752 434.952 421.752C437.598 421.752 439.742 423.897 439.742 426.542V465.821H430.162V426.542Z" fill="white"/>
<path d="M367.417 199.91C385.848 207.127 406.651 198.008 413.881 179.542C421.111 161.077 412.031 140.257 393.599 133.04C375.168 125.824 354.365 134.943 347.135 153.408C339.905 171.874 348.985 192.694 367.417 199.91Z" fill="#460BF9"/>
<path d="M378.803 149.157L381.905 156.426L376.062 154.139L372.96 146.869L378.803 149.157ZM393.977 155.098L397.078 162.367L391.236 160.08L388.134 152.81L393.977 155.098ZM386.391 152.128L389.493 159.397L383.651 157.11L380.55 149.841L386.392 152.128L386.391 152.128ZM401.335 157.979C402.622 158.483 403.275 159.723 402.835 160.836L401.55 164.118L398.821 163.05L395.719 155.78L401.335 157.979ZM371.218 146.187L374.324 153.458L366.66 150.457L367.945 147.175C368.382 146.06 369.704 145.594 370.991 146.098L371.218 146.187Z" fill="white"/>
<path fill-rule="evenodd" clip-rule="evenodd" d="M359.684 174.973C358.397 174.469 357.744 173.229 358.18 172.114L366.146 151.77L401.036 165.431L393.07 185.775C392.634 186.89 391.313 187.357 390.025 186.853L359.684 174.973ZM379.717 164.652C378.982 164.364 378.197 164.471 377.899 165.234L375.437 171.521C375.138 172.284 375.641 172.896 376.377 173.184C376.653 173.292 376.9 173.338 377.183 173.294L383.59 172.385C384.099 172.332 384.534 172.003 384.719 171.531C384.903 171.06 384.807 170.523 384.469 170.138L380.384 165.119C380.206 164.894 379.948 164.743 379.717 164.652Z" fill="white"/>
<path d="M324.3 87.4005C338.321 87.4005 349.688 76.034 349.688 62.0128C349.688 47.9915 338.321 36.625 324.3 36.625C310.279 36.625 298.912 47.9915 298.912 62.0128C298.912 76.034 310.279 87.4005 324.3 87.4005Z" fill="#460BF9"/>
<mask id="mask8_1_1810" style="mask-type:luminance" maskUnits="userSpaceOnUse" x="312" y="50" width="25" height="25">
<path d="M336.763 50.4729H312.76V74.4758H336.763V50.4729Z" fill="white"/>
</mask>
<g mask="url(#mask8_1_1810)">
<path d="M328.072 59.1642C330.873 61.9681 330.835 66.4634 328.089 69.2243C328.084 69.2299 328.078 69.2361 328.072 69.2416L324.922 72.392C322.143 75.1706 317.622 75.1703 314.844 72.392C312.066 69.6139 312.066 65.0927 314.844 62.3146L316.584 60.575C317.045 60.1137 317.84 60.4203 317.863 61.0722C317.894 61.903 318.043 62.7377 318.318 63.5438C318.411 63.8168 318.344 64.1186 318.14 64.3226L317.527 64.9361C316.213 66.25 316.172 68.3893 317.473 69.7161C318.786 71.0559 320.946 71.0639 322.27 69.74L325.42 66.5901C326.742 65.2685 326.736 63.1323 325.42 61.8162C325.247 61.643 325.072 61.5085 324.935 61.4145C324.739 61.28 324.619 61.0609 324.61 60.8235C324.591 60.3281 324.767 59.8176 325.158 59.4262L326.145 58.4391C326.404 58.1803 326.81 58.1485 327.11 58.358C327.454 58.598 327.776 58.8677 328.072 59.1642ZM334.679 52.5567C331.901 49.7784 327.38 49.7781 324.602 52.5567L321.451 55.7071C321.446 55.7127 321.44 55.7188 321.434 55.7244C318.689 58.4853 318.65 62.9807 321.451 65.7846C321.748 66.081 322.07 66.3508 322.413 66.5907C322.714 66.8002 323.12 66.7684 323.378 66.5096L324.365 65.5225C324.757 65.1311 324.932 64.6206 324.914 64.1252C324.905 63.8878 324.784 63.6687 324.588 63.5342C324.452 63.4402 324.277 63.3057 324.103 63.1325C322.787 61.8164 322.782 59.6802 324.103 58.3586L327.254 55.2087C328.578 53.8848 330.737 53.8928 332.051 55.2326C333.352 56.5593 333.311 58.6987 331.997 60.0126L331.383 60.6261C331.179 60.83 331.113 61.1319 331.206 61.4048C331.481 62.2109 331.63 63.0457 331.66 63.8765C331.684 64.5284 332.478 64.835 332.94 64.3737L334.679 62.6341C337.458 59.856 337.458 55.3349 334.679 52.5567Z" fill="white"/>
</g>
<path d="M231.372 185.119C242.747 185.119 251.969 175.897 251.969 164.522C251.969 153.146 242.747 143.924 231.372 143.924C219.996 143.924 210.774 153.146 210.774 164.522C210.774 175.897 219.996 185.119 231.372 185.119Z" fill="#460BF9"/>
<mask id="mask9_1_1810" style="mask-type:luminance" maskUnits="userSpaceOnUse" x="223" y="154" width="18" height="18">
<path d="M240.31 154.806H223.21V171.906H240.31V154.806Z" fill="white"/>
</mask>
<g mask="url(#mask9_1_1810)">
<path d="M237.547 165.99C236.5 165.99 235.589 166.573 235.121 167.432L230.762 166.298C230.769 166.201 230.773 166.104 230.773 166.007C230.773 165.156 230.491 164.371 230.017 163.739L234.123 159.329C234.429 159.479 234.772 159.563 235.135 159.563C236.406 159.563 237.436 158.533 237.436 157.263C237.436 155.992 236.406 154.962 235.135 154.962C233.865 154.962 232.835 155.992 232.835 157.263C232.835 157.684 232.948 158.079 233.146 158.418L229.039 162.828C228.449 162.447 227.746 162.226 226.991 162.226C224.903 162.226 223.21 163.919 223.21 166.007C223.21 168.095 224.903 169.788 226.991 169.788C228.514 169.788 229.826 168.888 230.426 167.591L234.785 168.725C234.785 168.734 234.785 168.743 234.785 168.753C234.785 170.279 236.021 171.516 237.547 171.516C239.073 171.516 240.31 170.279 240.31 168.753C240.31 167.227 239.073 165.99 237.547 165.99Z" fill="white"/>
</g>
<path d="M135.569 113.267C150.119 113.267 161.914 101.472 161.914 86.9215C161.914 72.3711 150.119 60.5757 135.569 60.5757C121.018 60.5757 109.223 72.3711 109.223 86.9215C109.223 101.472 121.018 113.267 135.569 113.267Z" fill="#460BF9"/>
<mask id="mask10_1_1810" style="mask-type:luminance" maskUnits="userSpaceOnUse" x="116" y="68" width="38" height="37">
<path d="M134.899 68.24L116.887 86.8053L135.453 104.817L153.464 86.2515L134.899 68.24Z" fill="white"/>
</mask>
<g mask="url(#mask10_1_1810)">
<path d="M135.514 71.0889L119.753 87.3335C119.133 87.9735 119.146 88.9969 119.788 89.6196L132.552 102.003C133.192 102.623 134.217 102.608 134.838 101.968L150.598 85.7233C151.219 85.0833 151.203 84.0582 150.563 83.4372L137.8 71.0543C137.158 70.4316 136.134 70.4489 135.514 71.0889ZM136.427 74.7908C136.587 74.9456 136.668 75.1515 136.671 75.3587C136.675 75.5659 136.599 75.7742 136.444 75.9338C136.133 76.2547 135.622 76.2624 135.301 75.9511C135.142 75.7963 135.06 75.5903 135.057 75.3831C135.054 75.176 135.129 74.9676 135.284 74.808C135.439 74.6485 135.645 74.5668 135.852 74.5636C136.059 74.5605 136.267 74.636 136.427 74.7908ZM134.176 77.1114C134.335 77.2662 134.417 77.4722 134.42 77.6793C134.423 77.8866 134.348 78.0949 134.193 78.2544C133.882 78.5753 133.371 78.5831 133.05 78.2718C132.89 78.117 132.809 77.911 132.805 77.7038C132.802 77.4966 132.878 77.2883 133.033 77.1287C133.187 76.9692 133.393 76.8875 133.601 76.8843C133.808 76.8812 134.016 76.9566 134.176 77.1114ZM130.554 80.0244C130.551 79.8173 130.626 79.609 130.781 79.4494C130.936 79.2898 131.142 79.2081 131.349 79.205C131.556 79.2018 131.765 79.2773 131.924 79.4321C132.084 79.5869 132.165 79.7928 132.169 80C132.172 80.2072 132.096 80.4156 131.941 80.5751C131.63 80.896 131.119 80.9038 130.798 80.5924C130.639 80.4376 130.557 80.2317 130.554 80.0244ZM149.147 84.3161C149.307 84.471 149.311 84.7281 149.156 84.8877L133.959 100.552C133.804 100.712 133.547 100.716 133.387 100.561L124.54 91.9772C124.46 91.8998 124.458 91.7712 124.535 91.6914L140.014 75.7368C140.092 75.657 140.22 75.6551 140.3 75.7325L149.147 84.3161ZM138.538 92.3315C138.113 92.4683 137.658 92.2341 137.521 91.8093L135.635 85.9534C135.498 85.5285 135.732 85.073 136.157 84.9362C136.582 84.7993 137.038 85.0336 137.175 85.4585L139.059 91.3161C139.195 91.741 138.963 92.1947 138.538 92.3315ZM135.181 93.6256L132.995 93.6588C132.549 93.6655 132.181 93.3084 132.174 92.8619L132.141 90.6759C132.14 90.6188 132.184 90.5735 132.241 90.5726L133.656 90.5511C133.713 90.5503 133.758 90.5943 133.759 90.6514L133.774 91.623C133.777 91.8445 133.962 92.0239 134.183 92.0205L135.155 92.0058C135.212 92.005 135.257 92.0489 135.258 92.1061L135.28 93.5206C135.282 93.5794 135.238 93.6248 135.181 93.6256ZM142.17 86.4225L140.755 86.4439C140.698 86.4448 140.653 86.4008 140.652 86.3436L140.637 85.3721C140.634 85.1506 140.449 84.9713 140.227 84.9746L139.256 84.9892C139.199 84.9902 139.153 84.9461 139.152 84.889L139.131 83.4745C139.13 83.4174 139.174 83.3721 139.231 83.3712L141.417 83.3381C141.864 83.3313 142.232 83.6884 142.239 84.1349L142.272 86.321C142.271 86.3763 142.227 86.4216 142.17 86.4225Z" fill="white"/>
</g>
<path d="M305.619 153.504C310.381 153.504 314.241 149.644 314.241 144.882C314.241 140.12 310.381 136.26 305.619 136.26C300.857 136.26 296.996 140.12 296.996 144.882C296.996 149.644 300.857 153.504 305.619 153.504Z" fill="#6B57FF"/>
<path d="M162.872 173.623C164.989 173.623 166.705 171.907 166.705 169.791C166.705 167.674 164.989 165.959 162.872 165.959C160.756 165.959 159.04 167.674 159.04 169.791C159.04 171.907 160.756 173.623 162.872 173.623Z" fill="#C757FF"/>
<path d="M373.639 103.687C375.755 103.687 377.471 101.971 377.471 99.8549C377.471 97.7384 375.755 96.0228 373.639 96.0228C371.522 96.0228 369.806 97.7384 369.806 99.8549C369.806 101.971 371.522 103.687 373.639 103.687Z" fill="#FF5757"/>
<path d="M243.347 84.5264C244.934 84.5264 246.221 83.2396 246.221 81.6523C246.221 80.065 244.934 78.7783 243.347 78.7783C241.759 78.7783 240.473 80.065 240.473 81.6523C240.473 83.2396 241.759 84.5264 243.347 84.5264Z" fill="#7BF379"/>
<path d="M270.171 214.818C272.817 214.818 274.962 212.674 274.962 210.028C274.962 207.382 272.817 205.238 270.171 205.238C267.526 205.238 265.381 207.382 265.381 210.028C265.381 212.674 267.526 214.818 270.171 214.818Z" fill="#FFC933"/>
<path d="M443.836 92.4661C453.727 86.9419 457.33 74.5614 451.886 64.8135C446.441 55.0656 434.01 51.6416 424.119 57.1658C414.229 62.69 410.625 75.0705 416.07 84.8184C421.515 94.5663 433.946 97.9903 443.836 92.4661Z" fill="#460BF9"/>
<mask id="mask11_1_1810" style="mask-type:luminance" maskUnits="userSpaceOnUse" x="418" y="59" width="32" height="32">
<path d="M438.551 59.1042L418.201 70.4707L429.404 90.5277L449.754 79.1613L438.551 59.1042Z" fill="white"/>
</mask>
<g mask="url(#mask11_1_1810)">
<path d="M443.645 72.7054L444.281 72.3501L439.03 62.9484L438.394 63.3037L438.098 62.7734C437.489 61.6834 436.11 61.2899 435.025 61.8962L422.427 68.9324C421.342 69.5384 420.955 70.9186 421.563 72.0086L421.86 72.5389L421.224 72.8941L426.475 82.2958L427.111 81.9406L429.858 86.8584C430.466 87.9483 431.845 88.3418 432.93 87.7359L442.47 82.4075C442.623 82.3221 442.74 82.1849 442.8 82.0213L444.396 77.696C444.549 77.3172 444.358 76.8913 443.974 76.7555C443.589 76.6196 443.164 76.8277 443.034 77.2149L441.956 80.1377L440.648 77.7961C440.425 77.3968 440.556 76.8978 440.941 76.6829L444.073 74.9332C444.425 74.737 444.553 74.2972 444.359 73.9511C444.34 73.916 444.308 73.8935 444.283 73.8628C444.277 73.8515 444.278 73.8386 444.271 73.8267L443.645 72.7054ZM442.723 74.0426L440.241 75.4293C439.155 76.0356 438.767 77.4159 439.376 78.5058L441.073 81.5432L432.23 86.4823C431.846 86.6968 431.352 86.5466 431.13 86.148L428.383 81.2302L442.373 73.4158L442.723 74.0426ZM429.664 76.0616C429.854 76.0296 430.011 75.9789 430.136 75.9093L430.251 75.845C430.485 75.7139 430.662 75.5188 430.782 75.2601L430.62 74.9693L429.721 75.4712C429.515 75.5863 429.27 75.5287 428.983 75.2981L428.884 75.1213C428.803 74.9747 428.818 74.7833 428.931 74.5466C428.981 74.4441 429.111 74.3342 429.323 74.2163L430.415 73.6061C430.793 73.3947 431.104 73.398 431.345 73.6161L431.415 73.707L432.108 74.9467C432.25 75.2018 432.09 75.6632 431.626 76.3315C431.361 76.6222 431.132 76.8213 430.941 76.9282L430.704 77.0607C430.085 77.406 429.353 77.4466 428.507 77.1814C427.878 76.9126 427.437 76.5491 427.181 76.091L427.054 75.8641C426.714 75.2548 426.682 74.5291 426.96 73.6859C427.239 73.0589 427.61 72.6161 428.075 72.3564L428.312 72.2239C428.7 72.0073 429.209 71.9156 429.837 71.9486C430.256 71.988 430.52 72.1069 430.63 72.305L430.686 72.404C430.736 72.4936 430.743 72.6416 430.707 72.8475C430.619 73.0268 430.517 73.1494 430.402 73.2137C430.234 73.3075 429.995 73.3133 429.686 73.2319C429.378 73.1991 429.107 73.2485 428.873 73.3796L428.758 73.4439C428.283 73.7089 428.057 74.17 428.078 74.8276C428.098 74.9883 428.146 75.1439 428.221 75.2871L428.284 75.4005C428.546 75.8677 429.006 76.0881 429.664 76.0616ZM433.781 74.7664L431.667 70.9825C431.551 70.7744 431.61 70.5309 431.844 70.2515L432.031 70.147C432.242 70.0291 432.487 70.0849 432.765 70.3133L434.879 74.0972C434.995 74.3053 434.936 74.5489 434.702 74.8281L434.515 74.9326C434.304 75.0505 434.059 74.9952 433.781 74.7664ZM436.263 70.4138L436.378 70.6194L437.837 69.8042C438.048 69.6863 438.297 69.7431 438.582 69.9734L438.681 70.1508C438.763 70.2975 438.745 70.4902 438.628 70.7294C438.582 70.8288 438.454 70.9379 438.244 71.0555L437.008 71.746L437.36 72.3766C437.571 72.7545 437.585 73.0442 437.402 73.2451C437.415 73.269 437.371 73.3187 437.269 73.3946L437.125 73.4748C436.914 73.5928 436.669 73.5371 436.39 73.3086L434.277 69.5247C434.161 69.3167 434.22 69.0731 434.454 68.7937L436.883 67.4365C437.095 67.3186 437.342 67.3729 437.625 67.5989L437.728 67.7831C437.844 67.9912 437.783 68.2359 437.544 68.518L435.747 69.5218L436.263 70.4138ZM437.122 64.0141L423.131 71.8285L422.835 71.2982C422.613 70.8996 422.743 70.4005 423.128 70.186L435.725 63.1498C436.109 62.9349 436.603 63.0852 436.826 63.4838L437.122 64.0141Z" fill="white"/>
</g>
</svg>
