<svg width="20" height="21" viewBox="0 0 20 21" fill="none" xmlns="http://www.w3.org/2000/svg">
<g clip-path="url(#clip0_1_1478)">
<mask id="mask0_1_1478" style="mask-type:luminance" maskUnits="userSpaceOnUse" x="0" y="0" width="20" height="21">
<path d="M20 0.0795898H0V20.0796H20V0.0795898Z" fill="white"/>
</mask>
<g mask="url(#mask0_1_1478)">
<path d="M0 1.51209C0 0.72084 0.6575 0.0795898 1.46875 0.0795898H18.5312C19.3425 0.0795898 20 0.72084 20 1.51209V18.6471C20 19.4383 19.3425 20.0796 18.5312 20.0796H1.46875C0.6575 20.0796 0 19.4383 0 18.6471V1.51209ZM6.17875 16.8221V7.79084H3.1775V16.8221H6.17875ZM4.67875 6.55709C5.725 6.55709 6.37625 5.86459 6.37625 4.99709C6.3575 4.11084 5.72625 3.43709 4.69875 3.43709C3.67125 3.43709 3 4.11209 3 4.99709C3 5.86459 3.65125 6.55709 4.65875 6.55709H4.67875ZM10.8138 16.8221V11.7783C10.8138 11.5083 10.8337 11.2383 10.9137 11.0458C11.13 10.5071 11.6238 9.94834 12.4538 9.94834C13.54 9.94834 13.9738 10.7758 13.9738 11.9908V16.8221H16.975V11.6421C16.975 8.86709 15.495 7.57709 13.52 7.57709C11.9275 7.57709 11.2137 8.45209 10.8138 9.06834V9.09959H10.7938C10.8004 9.08915 10.807 9.07874 10.8138 9.06834V7.79084H7.81375C7.83875 8.35584 7.83875 11.3663 7.81375 16.8221H10.8138Z" fill="white" fill-opacity="0.5"/>
</g>
</g>
<defs>
<clipPath id="clip0_1_1478">
<rect width="20" height="20" fill="white" transform="translate(0 0.0795898)"/>
</clipPath>
</defs>
</svg>
