<svg width="21" height="29" viewBox="0 0 21 29" fill="none" xmlns="http://www.w3.org/2000/svg">
<g clip-path="url(#clip0_1_1756)">
<mask id="mask0_1_1756" style="mask-type:luminance" maskUnits="userSpaceOnUse" x="0" y="4" width="21" height="21">
<path d="M20.5901 4.88004H0.590088V24.88H20.5901V4.88004Z" fill="white"/>
</mask>
<g mask="url(#mask0_1_1756)">
<path fill-rule="evenodd" clip-rule="evenodd" d="M19.7567 12.3668V9.46337C19.7567 8.88807 19.5533 8.39703 19.1465 7.99023C18.7397 7.58343 18.2487 7.38004 17.6733 7.38004H3.50668C2.93138 7.38004 2.44033 7.58343 2.03353 7.99023C1.62674 8.39703 1.42334 8.88807 1.42334 9.46337V16.1299C1.42334 16.5902 1.79644 16.9633 2.25667 16.9633C2.71691 16.9633 3.09 16.5902 3.09 16.1299V14.0467H18.0901V20.2967C18.0901 20.4117 18.0494 20.5099 17.9681 20.5913C17.8868 20.6726 17.7885 20.7133 17.6735 20.7133H5.5901C5.12986 20.7133 4.75678 21.0864 4.75678 21.5467C4.75678 22.0068 5.12986 22.3799 5.5901 22.3799H17.6735C18.2487 22.3799 18.7398 22.1765 19.1466 21.7698C19.5533 21.363 19.7567 20.8719 19.7567 20.2967V12.3799V12.3668ZM4.38629 10.7134C4.38629 11.1736 4.75939 11.5467 5.21963 11.5467H6.05295C6.51319 11.5467 6.88629 11.1736 6.88629 10.7134C6.88629 10.2531 6.51319 9.88004 6.05295 9.88004H5.21963C4.75939 9.88004 4.38629 10.2531 4.38629 10.7134ZM8.55336 11.5467H16.0533C16.5136 11.5467 16.8867 11.1736 16.8867 10.7134C16.8867 10.2531 16.5136 9.88004 16.0533 9.88004H8.55336C8.09313 9.88004 7.72003 10.2531 7.72003 10.7134C7.72003 11.1736 8.09313 11.5467 8.55336 11.5467ZM14.7543 18.1297C14.9103 18.2818 15.1191 18.3667 15.3365 18.3667L15.3471 18.3666C15.5681 18.3638 15.7788 18.2733 15.9332 18.1151C16.0848 17.9595 16.1698 17.7507 16.1698 17.5334L16.1697 17.524C16.167 17.303 16.0765 17.0909 15.9182 16.9367L14.0513 15.1167C13.7402 14.8134 13.2483 14.8 12.9212 15.0859L10.1439 17.5133L7.95321 15.4154C7.62469 15.1008 7.10458 15.1077 6.78458 15.431L1.71141 20.5563C1.55697 20.7124 1.47034 20.923 1.47034 21.1425L1.47035 21.1468C1.47148 21.3679 1.56036 21.5794 1.71744 21.7348C1.87346 21.8893 2.08413 21.9759 2.30367 21.9759H2.30793C2.52894 21.9748 2.74045 21.8859 2.89593 21.7288L7.39246 17.186L9.54183 19.2444C9.85357 19.543 10.3416 19.5541 10.6666 19.27L13.4387 16.8471L14.7543 18.1297Z" fill="white"/>
</g>
</g>
<defs>
<clipPath id="clip0_1_1756">
<rect width="20" height="20" fill="white" transform="translate(0.590088 4.88004)"/>
</clipPath>
</defs>
</svg>
