<svg width="21" height="29" viewBox="0 0 21 29" fill="none" xmlns="http://www.w3.org/2000/svg">
<g clip-path="url(#clip0_1_1766)">
<mask id="mask0_1_1766" style="mask-type:luminance" maskUnits="userSpaceOnUse" x="0" y="4" width="21" height="21">
<path d="M20.75 4.22H0.75V24.22H20.75V4.22Z" fill="white"/>
</mask>
<g mask="url(#mask0_1_1766)">
<path d="M16.4519 6.15875H14.5378C14.5762 6.267 14.5762 6.37615 14.5762 6.48438C14.5762 7.28209 14.0405 8.04226 13.4283 8.04226H8.07167C7.45949 8.04226 6.92383 7.28209 6.92383 6.48438C6.92383 6.37615 6.92382 6.267 6.96222 6.15875H5.04817C3.59449 6.15875 3.25 7.0281 3.25 8.29628V20.8683C3.25 22.2455 3.74728 22.97 5.12471 22.97H16.3753C17.7525 22.97 18.25 22.2458 18.25 20.8683V8.29628C18.25 7.02808 17.9055 6.15875 16.4519 6.15875ZM6.92289 13.9843H14.5767C14.8827 13.9843 15.1123 14.3106 15.1123 14.6005C15.1123 14.8903 14.9209 15.2159 14.6532 15.2159H6.84637C6.57842 15.2159 6.38724 14.8902 6.38724 14.6005C6.38724 14.3106 6.6168 13.9843 6.92289 13.9843ZM14.5759 10.5429C14.7678 10.5429 14.9602 10.6916 15.0538 10.8957L15.058 10.9052C15.0596 10.9087 15.0611 10.9121 15.0625 10.9157C15.0875 10.9766 15.1039 11.0403 15.1099 11.1035C15.1099 11.1041 15.11 11.1048 15.1102 11.1055C15.1109 11.1136 15.1116 11.1219 15.1121 11.13C15.1125 11.1394 15.1128 11.1488 15.1128 11.1585C15.1128 11.4482 14.8067 11.7747 14.5378 11.7747H6.96222C6.69335 11.7747 6.38724 11.4482 6.38724 11.1585C6.38724 11.149 6.38746 11.1394 6.38795 11.13C6.3884 11.1219 6.38889 11.1136 6.38982 11.1055C6.38982 11.1048 6.38983 11.1041 6.39005 11.1035C6.39615 11.0403 6.41254 10.9766 6.43759 10.9157C6.43895 10.9121 6.4406 10.9087 6.44201 10.9052L6.44623 10.8957C6.53983 10.6916 6.73244 10.5429 6.92409 10.5429H14.5759ZM14.6918 18.5499H6.80821C6.54029 18.5499 6.23441 18.1868 6.23441 17.8614C6.23441 17.5717 6.46398 17.282 6.7701 17.282H14.7302C15.0363 17.282 15.2658 17.5717 15.2658 17.8614C15.2658 18.1868 14.9597 18.5499 14.6918 18.5499ZM8.72224 7.35439H12.7778C13.2369 7.35439 13.6579 6.91871 13.6579 6.41162C13.6579 5.90452 13.2753 5.47 12.7778 5.47H8.72224C8.22495 5.47 7.84235 5.86884 7.84235 6.41164C7.84235 6.95558 8.22472 7.35439 8.72224 7.35439Z" fill="white"/>
</g>
</g>
<defs>
<clipPath id="clip0_1_1766">
<rect width="20" height="20" fill="white" transform="translate(0.75 4.22)"/>
</clipPath>
</defs>
</svg>
