<svg width="21" height="29" viewBox="0 0 21 29" fill="none" xmlns="http://www.w3.org/2000/svg">
<g clip-path="url(#clip0_1_1798)">
<mask id="mask0_1_1798" style="mask-type:luminance" maskUnits="userSpaceOnUse" x="0" y="4" width="21" height="21">
<path d="M20.4199 4.22H0.419922V24.22H20.4199V4.22Z" fill="white"/>
</mask>
<g mask="url(#mask0_1_1798)">
<path d="M17.8273 10.6252C17.4126 9.81596 16.8209 9.09081 16.0683 8.46983C14.5384 7.20722 12.5094 6.51187 10.3552 6.51187C8.20105 6.51187 6.1721 7.20724 4.6421 8.46983C3.88962 9.09081 3.29781 9.81597 2.88305 10.6252C2.44987 11.4703 2.23022 12.3691 2.23022 13.2965C2.23022 14.2239 2.44987 15.1226 2.88305 15.9678C3.29781 16.777 3.88962 17.5022 4.6421 18.1232C6.1721 19.3857 8.20105 20.0811 10.3552 20.0811C10.9684 20.0811 11.5782 20.024 12.1713 19.9111C12.6135 20.3036 13.6256 21.0411 15.2418 21.3386L16.1833 21.5119L15.7201 20.6735C15.3241 19.9567 15.1105 19.3321 14.9951 18.8685C15.9925 18.2884 16.8291 17.5232 17.4283 16.6403C18.1165 15.6263 18.4802 14.47 18.4802 13.2965C18.4802 12.3691 18.2606 11.4704 17.8273 10.6252ZM7.25974 13.9432L6.55555 13.5494L5.86727 13.9716C5.7456 13.7601 5.67262 13.4915 5.67262 13.199C5.67262 12.5174 6.06791 11.9649 6.55555 11.9649C7.04317 11.9649 7.43846 12.5174 7.43846 13.199C7.43846 13.4786 7.37186 13.7363 7.25974 13.9432ZM11.3394 13.9432L10.6352 13.5494L9.94695 13.9716C9.82527 13.7601 9.75229 13.4915 9.75229 13.199C9.75229 12.5174 10.1476 11.9649 10.6352 11.9649C11.1228 11.9649 11.5181 12.5174 11.5181 13.199C11.5182 13.4786 11.4515 13.7363 11.3394 13.9432Z" fill="white"/>
</g>
</g>
<defs>
<clipPath id="clip0_1_1798">
<rect width="20" height="20" fill="white" transform="translate(0.419922 4.22)"/>
</clipPath>
</defs>
</svg>
