<svg width="20" height="21" viewBox="0 0 20 21" fill="none" xmlns="http://www.w3.org/2000/svg">
<g clip-path="url(#clip0_1_1463)">
<mask id="mask0_1_1463" style="mask-type:luminance" maskUnits="userSpaceOnUse" x="0" y="0" width="20" height="21">
<path d="M20 0.0795898H0V20.0796H20V0.0795898Z" fill="white"/>
</mask>
<g mask="url(#mask0_1_1463)">
<path d="M6.2825 18.83C13.83 18.83 17.9587 12.5762 17.9587 7.16246C17.9587 6.98746 17.9587 6.80996 17.9513 6.63496C18.7551 6.05308 19.4489 5.33265 20 4.50746C19.2491 4.83853 18.4535 5.05673 17.6388 5.15496C18.4969 4.64201 19.1396 3.83493 19.4475 2.88372C18.6412 3.36137 17.7587 3.69668 16.8387 3.87496C16.2202 3.21624 15.4017 2.77987 14.5101 2.63342C13.6185 2.48697 12.7034 2.63862 11.9067 3.06489C11.11 3.49115 10.476 4.16825 10.1031 4.99129C9.73011 5.81433 9.63898 6.73738 9.84375 7.61746C8.21218 7.53565 6.61602 7.1118 5.1588 6.37339C3.70159 5.63499 2.41585 4.59851 1.385 3.33122C0.861675 4.23506 0.701967 5.30421 0.938308 6.32155C1.17465 7.33888 1.78931 8.22813 2.6575 8.80871C2.00692 8.78661 1.37065 8.61191 0.8 8.29871V8.35496C0.801121 9.30181 1.12913 10.2192 1.72859 10.9522C2.32805 11.6851 3.16219 12.1886 4.09 12.3775C3.73783 12.4745 3.37404 12.5229 3.00875 12.5212C2.75122 12.522 2.49423 12.4981 2.24125 12.45C2.50349 13.265 3.01409 13.9776 3.70156 14.488C4.38903 14.9984 5.21891 15.281 6.075 15.2962C4.6207 16.4385 2.82425 17.058 0.975 17.055C0.649151 17.0564 0.323529 17.0375 0 16.9987C1.87689 18.1952 4.05662 18.8306 6.2825 18.83Z" fill="white" fill-opacity="0.5"/>
</g>
</g>
<defs>
<clipPath id="clip0_1_1463">
<rect width="20" height="20" fill="white" transform="translate(0 0.0795898)"/>
</clipPath>
</defs>
</svg>
