<svg width="20" height="15" viewBox="0 0 20 15" fill="none" xmlns="http://www.w3.org/2000/svg">
<g clip-path="url(#clip0_1_1475)">
<path d="M19.5826 2.26653C19.3527 1.40602 18.6741 0.728316 17.8147 0.498698C16.7746 0.219293 14.1697 0.0795898 10 0.0795898C5.83036 0.0795898 3.22545 0.21855 2.18527 0.496469C1.32366 0.726087 0.647321 1.40379 0.417411 2.2643C0.139137 3.30464 0 4.90974 0 7.07959C0 9.24946 0.139137 10.8538 0.417411 11.8927C0.647321 12.7532 1.32589 13.4309 2.18527 13.6605C3.22545 13.9399 5.83036 14.0796 10 14.0796C14.1697 14.0796 16.7746 13.9399 17.8147 13.6605C18.6763 13.4309 19.3527 12.7532 19.5826 11.8927C19.8609 10.8538 20 9.24946 20 7.07959C20 4.90974 19.8609 3.30538 19.5826 2.26653ZM8.01339 10.0668V4.09233L13.192 7.0573L8.01339 10.0668Z" fill="white" fill-opacity="0.5"/>
</g>
<defs>
<clipPath id="clip0_1_1475">
<rect width="20" height="14" fill="white" transform="translate(0 0.0795898)"/>
</clipPath>
</defs>
</svg>
